<svg width="608" height="128" viewBox="0 0 608 128" fill="none" xmlns="http://www.w3.org/2000/svg">
<g filter="url(#filter0_d_1_7)">
<path d="M61.7441 48.536C61.4881 44.44 60.5068 40.5573 58.8001 36.888C57.0934 33.2187 54.6188 30.232 51.3761 27.928C48.1334 25.624 43.9948 24.472 38.9601 24.472C33.6694 24.472 29.6161 25.9653 26.8001 28.952C23.9841 31.9387 22.5761 35.4373 22.5761 39.448C22.5761 43.032 23.6001 46.0613 25.6481 48.536C27.6961 50.9253 30.3414 53.0587 33.5841 54.936C36.9121 56.728 40.4108 58.4773 44.0801 60.184C47.3228 61.6347 50.5654 63.2133 53.8081 64.92C57.0508 66.5413 59.9948 68.4187 62.6401 70.552C65.2854 72.6853 67.3761 75.2453 68.9121 78.232C70.5334 81.1333 71.3441 84.632 71.3441 88.728C71.3441 93.4213 70.1494 97.6027 67.7601 101.272C65.4561 104.941 62.0854 107.843 57.6481 109.976C53.2108 112.024 47.7921 113.048 41.3921 113.048C37.5521 113.048 33.5841 112.493 29.4881 111.384C25.3921 110.275 21.7654 108.653 18.6081 106.52L19.2481 112.024H12.5921L11.8241 84.76H16.8161C17.2428 92.2693 19.8454 97.9867 24.6241 101.912C29.4028 105.752 35.1628 107.672 41.9041 107.672C45.2321 107.672 48.3041 107.075 51.1201 105.88C53.9361 104.6 56.1548 102.765 57.7761 100.376C59.4828 97.9867 60.3361 95.0853 60.3361 91.672C60.3361 87.832 59.3121 84.632 57.2641 82.072C55.2161 79.512 52.5708 77.2933 49.3281 75.416C46.0854 73.5387 42.6294 71.7467 38.9601 70.04C35.7174 68.5893 32.5174 67.0533 29.3601 65.432C26.2028 63.8107 23.3014 61.976 20.6561 59.928C18.0961 57.7947 16.0054 55.2773 14.3841 52.376C12.8481 49.4747 12.0801 45.976 12.0801 41.88C12.0801 39.6613 12.4641 37.272 13.2321 34.712C14.0001 32.152 15.3228 29.72 17.2001 27.416C19.1628 25.0267 21.8081 23.1067 25.1361 21.656C28.5494 20.12 32.8588 19.352 38.0641 19.352C41.3068 19.352 44.9334 19.8213 48.9441 20.76C53.0401 21.6133 56.8374 23.32 60.3361 25.88L59.8241 20.376H66.3521V48.536H61.7441ZM106.221 113.048C104.258 113.048 102.253 112.749 100.205 112.152C98.1571 111.64 96.2371 110.573 94.4451 108.952C92.7384 107.331 91.3731 104.984 90.3491 101.912C89.3251 98.7547 88.8131 94.616 88.8131 89.496L89.0691 52.376L79.2131 52.504V47C81.4318 46.9147 83.6931 46.104 85.9971 44.568C88.3011 42.9467 90.3491 40.7707 92.1411 38.04C94.0184 35.3093 95.2984 32.3227 95.9811 29.08H100.333V47H121.837V51.992L100.333 52.248L100.077 87.832C100.077 91.672 100.376 94.9573 100.973 97.688C101.656 100.333 102.722 102.339 104.173 103.704C105.624 105.069 107.501 105.752 109.805 105.752C112.194 105.752 114.413 105.069 116.461 103.704C118.594 102.339 120.472 100.461 122.093 98.072L125.549 100.888C123.672 103.704 121.794 105.923 119.917 107.544C118.125 109.165 116.376 110.36 114.669 111.128C112.962 111.981 111.384 112.493 109.933 112.664C108.482 112.92 107.245 113.048 106.221 113.048ZM158.665 113.048C154.057 113.048 150.174 112.195 147.017 110.488C143.945 108.781 141.598 105.88 139.977 101.784C138.441 97.688 137.673 92.1413 137.673 85.144V62.36C137.673 60.9947 137.673 59.6293 137.673 58.264C137.758 56.8987 137.929 55.4907 138.185 54.04C136.734 54.1253 135.241 54.2107 133.705 54.296C132.254 54.296 130.804 54.3387 129.353 54.424V49.176H133.321C136.99 49.176 139.636 48.8347 141.257 48.152C142.964 47.384 144.286 46.5733 145.225 45.72H148.937V84.76C148.937 92.0987 149.961 97.6027 152.009 101.272C154.142 104.856 157.726 106.605 162.761 106.52C166.004 106.435 169.076 105.453 171.977 103.576C174.964 101.613 177.353 99.3093 179.145 96.664V63.768C179.145 61.72 179.188 59.9707 179.273 58.52C179.358 56.984 179.529 55.4907 179.785 54.04C178.249 54.1253 176.713 54.2107 175.177 54.296C173.641 54.296 172.105 54.3387 170.569 54.424V49.176H174.537C178.206 49.176 180.852 48.8347 182.473 48.152C184.18 47.384 185.502 46.5733 186.441 45.72H190.153L190.025 94.104C190.025 95.4693 189.982 97.3893 189.897 99.864C189.812 102.339 189.684 104.429 189.513 106.136C191.049 106.051 192.585 105.965 194.121 105.88C195.657 105.795 197.193 105.709 198.729 105.624V111H180.425C180.169 109.549 179.956 108.184 179.785 106.904C179.7 105.624 179.614 104.429 179.529 103.32C176.884 105.965 173.684 108.269 169.929 110.232C166.174 112.109 162.42 113.048 158.665 113.048Z" fill="#364F6B"/>
<path d="M227.104 111.384L211.616 66.968C210.848 64.7493 210.251 63.0853 209.824 61.976C209.483 60.8667 209.227 59.928 209.056 59.16C208.885 58.392 208.672 57.496 208.416 56.472L203.424 56.728V47H234.144V55.192C231.499 55.2773 229.963 56.3013 229.536 58.264C229.109 60.2267 229.237 62.5307 229.92 65.176L234.272 80.792C234.784 82.6693 235.253 84.6747 235.68 86.808C236.192 88.856 236.619 90.904 236.96 92.952C237.387 91.16 237.813 89.1973 238.24 87.064C238.752 84.9307 239.477 82.2853 240.416 79.128L249.76 47H263.712L273.952 82.328C274.464 84.12 274.976 86.0827 275.488 88.216C276.085 90.264 276.597 92.1413 277.024 93.848C277.365 92.1413 277.835 90.264 278.432 88.216C279.029 86.168 279.584 84.3333 280.096 82.712L285.088 66.456C285.771 64.152 286.368 62.2747 286.88 60.824C287.392 59.288 288.032 57.752 288.8 56.216L281.504 56.728V47H305.824V55.192C304.117 55.192 302.624 55.7467 301.344 56.856C300.064 57.9653 298.912 59.3307 297.888 60.952C296.949 62.488 296.181 64.024 295.584 65.56C294.987 67.0107 294.56 68.1627 294.304 69.016L279.712 111.384H266.144L257.312 84.12C257.056 83.1813 256.629 81.816 256.032 80.024C255.52 78.232 254.965 76.312 254.368 74.264C253.856 72.1307 253.344 70.168 252.832 68.376C252.405 70.7653 251.765 73.496 250.912 76.568C250.059 79.64 249.248 82.456 248.48 85.016C247.712 87.576 247.157 89.3253 246.816 90.264L239.776 111.384H227.104ZM341.508 113.048C335.364 113.048 329.817 111.725 324.868 109.08C319.919 106.435 315.993 102.68 313.092 97.816C310.276 92.8667 308.868 87.064 308.868 80.408C308.868 73.3253 310.319 67.1387 313.22 61.848C316.207 56.472 320.132 52.3333 324.996 49.432C329.945 46.4453 335.321 44.952 341.124 44.952C347.268 44.952 352.772 46.2747 357.636 48.92C362.5 51.5653 366.34 55.3627 369.156 60.312C371.972 65.176 373.38 71.0213 373.38 77.848C373.38 85.016 372.015 91.2453 369.284 96.536C366.553 101.827 362.799 105.923 358.02 108.824C353.241 111.64 347.737 113.048 341.508 113.048ZM342.02 103.96C345.433 103.875 347.993 102.68 349.7 100.376C351.492 98.072 352.729 95.1707 353.412 91.672C354.095 88.1733 354.436 84.632 354.436 81.048C354.436 77.8907 354.18 74.6907 353.668 71.448C353.241 68.2053 352.516 65.2613 351.492 62.616C350.468 59.9707 349.06 57.8373 347.268 56.216C345.561 54.5947 343.428 53.8267 340.868 53.912C337.54 53.9973 334.895 55.192 332.932 57.496C331.055 59.8 329.689 62.7013 328.836 66.2C328.068 69.6133 327.684 73.1973 327.684 76.952C327.684 81.304 328.153 85.5707 329.092 89.752C330.031 93.9333 331.524 97.3893 333.572 100.12C335.705 102.765 338.521 104.045 342.02 103.96ZM382.648 102.68C385.037 102.68 386.744 102.211 387.768 101.272C388.792 100.333 389.432 99.0107 389.688 97.304C390.029 95.512 390.2 93.5067 390.2 91.288V69.784C390.2 68.248 390.243 66.5413 390.328 64.664C390.413 62.7013 390.541 60.7813 390.712 58.904C389.347 58.9893 387.725 59.0747 385.848 59.16C384.056 59.16 382.691 59.2027 381.752 59.288V49.56H386.872C390.2 49.56 393.229 49.1333 395.96 48.28C398.776 47.4267 400.611 46.5733 401.464 45.72H407.736C407.907 46.5733 408.035 48.1947 408.12 50.584C408.205 52.888 408.248 54.936 408.248 56.728C410.552 53.912 412.728 51.6507 414.776 49.944C416.824 48.2373 418.829 47 420.792 46.232C422.84 45.3787 424.888 44.952 426.936 44.952C429.923 44.952 432.525 45.8053 434.744 47.512C436.963 49.1333 438.072 51.8213 438.072 55.576C438.072 56.856 437.773 58.2213 437.176 59.672C436.579 61.0373 435.64 62.1893 434.36 63.128C433.08 64.0667 431.331 64.536 429.112 64.536C427.405 64.536 425.656 64.024 423.864 63C422.072 61.976 421.048 60.0133 420.792 57.112C419.085 57.112 417.379 57.8373 415.672 59.288C413.965 60.6533 412.429 62.3173 411.064 64.28C409.784 66.1573 408.888 67.9067 408.376 69.528V90.392C408.376 91.5867 408.333 93.2933 408.248 95.512C408.163 97.6453 408.035 99.6933 407.864 101.656C409.229 101.485 410.723 101.4 412.344 101.4C414.051 101.315 415.331 101.272 416.184 101.272V111H382.648V102.68ZM440.975 111V102.68C443.364 102.68 445.071 102.211 446.095 101.272C447.204 100.333 447.887 99.0107 448.143 97.304C448.484 95.512 448.655 93.5067 448.655 91.288V38.68C448.655 37.144 448.698 35.3947 448.783 33.432C448.868 31.384 448.996 29.4213 449.167 27.544C447.802 27.6293 446.18 27.7147 444.303 27.8C442.511 27.8 441.146 27.8427 440.207 27.928V18.2C444.132 18.2 447.418 17.9867 450.063 17.56C452.794 17.1333 454.97 16.6213 456.591 16.024C458.212 15.4267 459.279 14.872 459.791 14.36H466.831V72.728H472.975L482.191 62.104C483.3 60.9093 484.196 59.8853 484.879 59.032C485.647 58.1787 486.415 57.4107 487.183 56.728H480.399V47H509.199V55.192C506.212 55.5333 503.567 56.2587 501.263 57.368C498.959 58.392 496.954 59.6293 495.247 61.08C493.626 62.5307 492.218 63.9387 491.023 65.304L482.831 74.52C484.111 75.1173 485.348 76.0133 486.543 77.208C487.823 78.3173 489.359 80.0667 491.151 82.456L499.727 93.72C500.239 94.3173 500.879 95.128 501.647 96.152C502.5 97.176 503.439 98.2 504.463 99.224C505.487 100.163 506.596 100.973 507.791 101.656C508.986 102.339 510.223 102.68 511.503 102.68V111H496.783C494.052 111 491.663 110.061 489.615 108.184C487.567 106.221 485.22 103.448 482.575 99.864C481.039 97.816 479.418 95.64 477.711 93.336C476.09 90.9467 474.554 88.728 473.103 86.68C471.738 84.5467 470.628 82.8827 469.775 81.688L466.831 81.816V90.392C466.831 91.5867 466.788 93.2933 466.703 95.512C466.618 97.6453 466.49 99.6933 466.319 101.656C467.684 101.485 469.178 101.4 470.799 101.4C472.42 101.315 473.7 101.272 474.639 101.272V111H440.975ZM548.463 113.048C544.794 113.048 541.21 112.579 537.711 111.64C534.212 110.701 531.482 109.507 529.519 108.056L529.775 111.896H520.047L519.535 89.88H527.855C528.111 92.44 529.135 94.7867 530.927 96.92C532.719 99.0533 535.066 100.76 537.967 102.04C540.868 103.235 544.111 103.832 547.695 103.832C549.146 103.832 550.511 103.619 551.791 103.192C553.156 102.765 554.266 102.083 555.119 101.144C556.058 100.12 556.527 98.8827 556.527 97.432C556.527 95.8107 555.93 94.488 554.735 93.464C553.626 92.44 551.962 91.4587 549.743 90.52C547.61 89.5813 544.922 88.5147 541.679 87.32C539.034 86.296 536.346 85.2293 533.615 84.12C530.97 83.0107 528.495 81.688 526.191 80.152C523.972 78.5307 522.18 76.568 520.815 74.264C519.45 71.8747 518.767 68.9733 518.767 65.56C518.767 63.0853 519.236 60.6533 520.175 58.264C521.114 55.7893 522.564 53.5707 524.527 51.608C526.49 49.56 528.964 47.9387 531.951 46.744C535.023 45.5493 538.65 44.952 542.831 44.952C545.135 44.952 547.738 45.336 550.639 46.104C553.626 46.7867 556.143 47.8533 558.191 49.304V45.592H567.919V68.248H559.599C559.087 65.2613 558.02 62.7013 556.399 60.568C554.863 58.4347 552.858 56.8133 550.383 55.704C547.908 54.5093 545.135 53.912 542.063 53.912C539.93 53.912 537.967 54.424 536.175 55.448C534.468 56.472 533.615 58.2213 533.615 60.696C533.615 62.6587 534.298 64.2373 535.663 65.432C537.028 66.5413 538.906 67.48 541.295 68.248C543.684 69.016 546.33 69.912 549.231 70.936C553.583 72.3867 557.423 74.0933 560.751 76.056C564.164 78.0187 566.852 80.408 568.815 83.224C570.778 85.9547 571.759 89.3253 571.759 93.336C571.759 97.7733 570.65 101.443 568.431 104.344C566.212 107.245 563.311 109.421 559.727 110.872C556.228 112.323 552.474 113.048 548.463 113.048ZM590.876 113.048C588.145 113.048 585.884 112.067 584.092 110.104C582.385 108.141 581.532 105.795 581.532 103.064C581.532 100.333 582.471 97.9867 584.348 96.024C586.225 94.0613 588.401 93.08 590.876 93.08C593.521 93.08 595.697 94.0613 597.404 96.024C599.196 97.9867 600.092 100.333 600.092 103.064C600.092 105.795 599.239 108.141 597.532 110.104C595.911 112.067 593.692 113.048 590.876 113.048Z" fill="#3FC1C9"/>
</g>
<defs>
<filter id="filter0_d_1_7" x="0.824097" y="8.35999" width="606.268" height="116.688" filterUnits="userSpaceOnUse" color-interpolation-filters="sRGB">
<feFlood flood-opacity="0" result="BackgroundImageFix"/>
<feColorMatrix in="SourceAlpha" type="matrix" values="0 0 0 0 0 0 0 0 0 0 0 0 0 0 0 0 0 0 127 0" result="hardAlpha"/>
<feOffset dx="-2" dy="3"/>
<feGaussianBlur stdDeviation="4.5"/>
<feComposite in2="hardAlpha" operator="out"/>
<feColorMatrix type="matrix" values="0 0 0 0 0 0 0 0 0 0 0 0 0 0 0 0 0 0 0.25 0"/>
<feBlend mode="normal" in2="BackgroundImageFix" result="effect1_dropShadow_1_7"/>
<feBlend mode="normal" in="SourceGraphic" in2="effect1_dropShadow_1_7" result="shape"/>
</filter>
</defs>
</svg>
