<svg width="367" height="251" viewBox="0 0 367 251" fill="none" xmlns="http://www.w3.org/2000/svg">
<g filter="url(#filter0_d_1_23)">
<path d="M77.25 221.5C70.9167 221.5 63.5833 220.75 55.25 219.25C47.0833 217.75 39.8333 214.917 33.5 210.75L34.25 219.5H21.25L22.5 166.25H32.25C32.4167 176.417 34.5 184.833 38.5 191.5C42.6667 198.167 48.25 203.083 55.25 206.25C62.25 209.417 70.1667 211 79 211C85.5 211 91.5833 209.833 97.25 207.5C102.917 205.167 107.583 201.667 111.25 197C114.917 192.333 116.917 186.667 117.25 180C117.75 171.667 115.75 164.833 111.25 159.5C106.917 154 101.25 149.333 94.25 145.5C87.25 141.667 79.8333 137.917 72 134.25C64.3333 130.583 57 126.667 50 122.5C43 118.167 37.3333 112.833 33 106.5C28.8333 100.167 27 92.25 27.5 82.75C27.8333 78.4167 28.8333 73.75 30.5 68.75C32.3333 63.75 35.25 58.9167 39.25 54.25C43.25 49.5833 48.5833 45.8333 55.25 43C61.9167 40 70.3333 38.5 80.5 38.5C86.8333 38.5 93.8333 39.4167 101.5 41.25C109.333 42.9167 116.583 46.25 123.25 51.25L122.75 40.5H135.5L132.75 95.5H123.75C123.75 87.5 122.25 79.9167 119.25 72.75C116.25 65.5833 111.667 59.75 105.5 55.25C99.3333 50.75 91.3333 48.5 81.5 48.5C71.1667 48.5 63 51.5 57 57.5C51 63.3333 47.8333 70.1667 47.5 78C47.1667 84.5 48.5833 90.0833 51.75 94.75C55.0833 99.25 59.5 103.25 65 106.75C70.5 110.083 76.5 113.25 83 116.25C89.5 119.417 96.0833 122.667 102.75 126C109.417 129.167 115.5 132.917 121 137.25C126.667 141.417 131.083 146.5 134.25 152.5C137.417 158.5 138.75 165.75 138.25 174.25C137.917 183.417 135.25 191.583 130.25 198.75C125.25 205.917 118.25 211.5 109.25 215.5C100.417 219.5 89.75 221.5 77.25 221.5Z" fill="#364F6B"/>
<path d="M199.352 218.25L169.102 131.5C167.602 127.167 166.435 123.917 165.602 121.75C164.935 119.583 164.435 117.75 164.102 116.25C163.768 114.75 163.352 113 162.852 111L153.102 111.5V92.5H213.102V108.5C207.935 108.667 204.935 110.667 204.102 114.5C203.268 118.333 203.518 122.833 204.852 128L213.352 158.5C214.352 162.167 215.268 166.083 216.102 170.25C217.102 174.25 217.935 178.25 218.602 182.25C219.435 178.75 220.268 174.917 221.102 170.75C222.102 166.583 223.518 161.417 225.352 155.25L243.602 92.5H270.852L290.852 161.5C291.852 165 292.852 168.833 293.852 173C295.018 177 296.018 180.667 296.852 184C297.518 180.667 298.435 177 299.602 173C300.768 169 301.852 165.417 302.852 162.25L312.602 130.5C313.935 126 315.102 122.333 316.102 119.5C317.102 116.5 318.352 113.5 319.852 110.5L305.602 111.5V92.5H353.102V108.5C349.768 108.5 346.852 109.583 344.352 111.75C341.852 113.917 339.602 116.583 337.602 119.75C335.768 122.75 334.268 125.75 333.102 128.75C331.935 131.583 331.102 133.833 330.602 135.5L302.102 218.25H275.602L258.352 165C257.852 163.167 257.018 160.5 255.852 157C254.852 153.5 253.768 149.75 252.602 145.75C251.602 141.583 250.602 137.75 249.602 134.25C248.768 138.917 247.518 144.25 245.852 150.25C244.185 156.25 242.602 161.75 241.102 166.75C239.602 171.75 238.518 175.167 237.852 177L224.102 218.25H199.352Z" fill="#3FC1C9"/>
</g>
<defs>
<filter id="filter0_d_1_23" x="0.865676" y="27.3813" width="365.208" height="216.356" filterUnits="userSpaceOnUse" color-interpolation-filters="sRGB">
<feFlood flood-opacity="0" result="BackgroundImageFix"/>
<feColorMatrix in="SourceAlpha" type="matrix" values="0 0 0 0 0 0 0 0 0 0 0 0 0 0 0 0 0 0 127 0" result="hardAlpha"/>
<feOffset dx="-3.70624" dy="5.55936"/>
<feGaussianBlur stdDeviation="8.33904"/>
<feComposite in2="hardAlpha" operator="out"/>
<feColorMatrix type="matrix" values="0 0 0 0 0 0 0 0 0 0 0 0 0 0 0 0 0 0 0.25 0"/>
<feBlend mode="normal" in2="BackgroundImageFix" result="effect1_dropShadow_1_23"/>
<feBlend mode="normal" in="SourceGraphic" in2="effect1_dropShadow_1_23" result="shape"/>
</filter>
</defs>
</svg>
