<svg width="666" height="182" viewBox="0 0 666 182" fill="none" xmlns="http://www.w3.org/2000/svg">
<g filter="url(#filter0_d_1_13)">
<path d="M61.7441 48.536C61.4881 44.44 60.5068 40.5573 58.8001 36.888C57.0934 33.2187 54.6188 30.232 51.3761 27.928C48.1334 25.624 43.9948 24.472 38.9601 24.472C33.6694 24.472 29.6161 25.9653 26.8001 28.952C23.9841 31.9387 22.5761 35.4373 22.5761 39.448C22.5761 43.032 23.6001 46.0613 25.6481 48.536C27.6961 50.9253 30.3414 53.0587 33.5841 54.936C36.9121 56.728 40.4108 58.4773 44.0801 60.184C47.3228 61.6347 50.5654 63.2133 53.8081 64.92C57.0508 66.5413 59.9948 68.4187 62.6401 70.552C65.2854 72.6853 67.3761 75.2453 68.9121 78.232C70.5334 81.1333 71.3441 84.632 71.3441 88.728C71.3441 93.4213 70.1494 97.6027 67.7601 101.272C65.4561 104.941 62.0854 107.843 57.6481 109.976C53.2108 112.024 47.7921 113.048 41.3921 113.048C37.5521 113.048 33.5841 112.493 29.4881 111.384C25.3921 110.275 21.7654 108.653 18.6081 106.52L19.2481 112.024H12.5921L11.8241 84.76H16.8161C17.2428 92.2693 19.8454 97.9867 24.6241 101.912C29.4028 105.752 35.1628 107.672 41.9041 107.672C45.2321 107.672 48.3041 107.075 51.1201 105.88C53.9361 104.6 56.1548 102.765 57.7761 100.376C59.4828 97.9867 60.3361 95.0853 60.3361 91.672C60.3361 87.832 59.3121 84.632 57.2641 82.072C55.2161 79.512 52.5708 77.2933 49.3281 75.416C46.0854 73.5387 42.6294 71.7467 38.9601 70.04C35.7174 68.5893 32.5174 67.0533 29.3601 65.432C26.2028 63.8107 23.3014 61.976 20.6561 59.928C18.0961 57.7947 16.0054 55.2773 14.3841 52.376C12.8481 49.4747 12.0801 45.976 12.0801 41.88C12.0801 39.6613 12.4641 37.272 13.2321 34.712C14.0001 32.152 15.3228 29.72 17.2001 27.416C19.1628 25.0267 21.8081 23.1067 25.1361 21.656C28.5494 20.12 32.8588 19.352 38.0641 19.352C41.3068 19.352 44.9334 19.8213 48.9441 20.76C53.0401 21.6133 56.8374 23.32 60.3361 25.88L59.8241 20.376H66.3521V48.536H61.7441ZM106.221 113.048C104.258 113.048 102.253 112.749 100.205 112.152C98.1571 111.64 96.2371 110.573 94.4451 108.952C92.7384 107.331 91.3731 104.984 90.3491 101.912C89.3251 98.7547 88.8131 94.616 88.8131 89.496L89.0691 52.376L79.2131 52.504V47C81.4318 46.9147 83.6931 46.104 85.9971 44.568C88.3011 42.9467 90.3491 40.7707 92.1411 38.04C94.0184 35.3093 95.2984 32.3227 95.9811 29.08H100.333V47H121.837V51.992L100.333 52.248L100.077 87.832C100.077 91.672 100.376 94.9573 100.973 97.688C101.656 100.333 102.722 102.339 104.173 103.704C105.624 105.069 107.501 105.752 109.805 105.752C112.194 105.752 114.413 105.069 116.461 103.704C118.594 102.339 120.472 100.461 122.093 98.072L125.549 100.888C123.672 103.704 121.794 105.923 119.917 107.544C118.125 109.165 116.376 110.36 114.669 111.128C112.962 111.981 111.384 112.493 109.933 112.664C108.482 112.92 107.245 113.048 106.221 113.048ZM158.665 113.048C154.057 113.048 150.174 112.195 147.017 110.488C143.945 108.781 141.598 105.88 139.977 101.784C138.441 97.688 137.673 92.1413 137.673 85.144V62.36C137.673 60.9947 137.673 59.6293 137.673 58.264C137.758 56.8987 137.929 55.4907 138.185 54.04C136.734 54.1253 135.241 54.2107 133.705 54.296C132.254 54.296 130.804 54.3387 129.353 54.424V49.176H133.321C136.99 49.176 139.636 48.8347 141.257 48.152C142.964 47.384 144.286 46.5733 145.225 45.72H148.937V84.76C148.937 92.0987 149.961 97.6027 152.009 101.272C154.142 104.856 157.726 106.605 162.761 106.52C166.004 106.435 169.076 105.453 171.977 103.576C174.964 101.613 177.353 99.3093 179.145 96.664V63.768C179.145 61.72 179.188 59.9707 179.273 58.52C179.358 56.984 179.529 55.4907 179.785 54.04C178.249 54.1253 176.713 54.2107 175.177 54.296C173.641 54.296 172.105 54.3387 170.569 54.424V49.176H174.537C178.206 49.176 180.852 48.8347 182.473 48.152C184.18 47.384 185.502 46.5733 186.441 45.72H190.153L190.025 94.104C190.025 95.4693 189.982 97.3893 189.897 99.864C189.812 102.339 189.684 104.429 189.513 106.136C191.049 106.051 192.585 105.965 194.121 105.88C195.657 105.795 197.193 105.709 198.729 105.624V111H180.425C180.169 109.549 179.956 108.184 179.785 106.904C179.7 105.624 179.614 104.429 179.529 103.32C176.884 105.965 173.684 108.269 169.929 110.232C166.174 112.109 162.42 113.048 158.665 113.048Z" fill="#F5F5F5"/>
<path d="M227.104 111.384L211.616 66.968C210.848 64.7493 210.251 63.0853 209.824 61.976C209.483 60.8667 209.227 59.928 209.056 59.16C208.885 58.392 208.672 57.496 208.416 56.472L203.424 56.728V47H234.144V55.192C231.499 55.2773 229.963 56.3013 229.536 58.264C229.109 60.2267 229.237 62.5307 229.92 65.176L234.272 80.792C234.784 82.6693 235.253 84.6747 235.68 86.808C236.192 88.856 236.619 90.904 236.96 92.952C237.387 91.16 237.813 89.1973 238.24 87.064C238.752 84.9307 239.477 82.2853 240.416 79.128L249.76 47H263.712L273.952 82.328C274.464 84.12 274.976 86.0827 275.488 88.216C276.085 90.264 276.597 92.1413 277.024 93.848C277.365 92.1413 277.835 90.264 278.432 88.216C279.029 86.168 279.584 84.3333 280.096 82.712L285.088 66.456C285.771 64.152 286.368 62.2747 286.88 60.824C287.392 59.288 288.032 57.752 288.8 56.216L281.504 56.728V47H305.824V55.192C304.117 55.192 302.624 55.7467 301.344 56.856C300.064 57.9653 298.912 59.3307 297.888 60.952C296.949 62.488 296.181 64.024 295.584 65.56C294.987 67.0107 294.56 68.1627 294.304 69.016L279.712 111.384H266.144L257.312 84.12C257.056 83.1813 256.629 81.816 256.032 80.024C255.52 78.232 254.965 76.312 254.368 74.264C253.856 72.1307 253.344 70.168 252.832 68.376C252.405 70.7653 251.765 73.496 250.912 76.568C250.059 79.64 249.248 82.456 248.48 85.016C247.712 87.576 247.157 89.3253 246.816 90.264L239.776 111.384H227.104ZM341.508 113.048C335.364 113.048 329.817 111.725 324.868 109.08C319.919 106.435 315.993 102.68 313.092 97.816C310.276 92.8667 308.868 87.064 308.868 80.408C308.868 73.3253 310.319 67.1387 313.22 61.848C316.207 56.472 320.132 52.3333 324.996 49.432C329.945 46.4453 335.321 44.952 341.124 44.952C347.268 44.952 352.772 46.2747 357.636 48.92C362.5 51.5653 366.34 55.3627 369.156 60.312C371.972 65.176 373.38 71.0213 373.38 77.848C373.38 85.016 372.015 91.2453 369.284 96.536C366.553 101.827 362.799 105.923 358.02 108.824C353.241 111.64 347.737 113.048 341.508 113.048ZM342.02 103.96C345.433 103.875 347.993 102.68 349.7 100.376C351.492 98.072 352.729 95.1707 353.412 91.672C354.095 88.1733 354.436 84.632 354.436 81.048C354.436 77.8907 354.18 74.6907 353.668 71.448C353.241 68.2053 352.516 65.2613 351.492 62.616C350.468 59.9707 349.06 57.8373 347.268 56.216C345.561 54.5947 343.428 53.8267 340.868 53.912C337.54 53.9973 334.895 55.192 332.932 57.496C331.055 59.8 329.689 62.7013 328.836 66.2C328.068 69.6133 327.684 73.1973 327.684 76.952C327.684 81.304 328.153 85.5707 329.092 89.752C330.031 93.9333 331.524 97.3893 333.572 100.12C335.705 102.765 338.521 104.045 342.02 103.96ZM382.648 102.68C385.037 102.68 386.744 102.211 387.768 101.272C388.792 100.333 389.432 99.0107 389.688 97.304C390.029 95.512 390.2 93.5067 390.2 91.288V69.784C390.2 68.248 390.243 66.5413 390.328 64.664C390.413 62.7013 390.541 60.7813 390.712 58.904C389.347 58.9893 387.725 59.0747 385.848 59.16C384.056 59.16 382.691 59.2027 381.752 59.288V49.56H386.872C390.2 49.56 393.229 49.1333 395.96 48.28C398.776 47.4267 400.611 46.5733 401.464 45.72H407.736C407.907 46.5733 408.035 48.1947 408.12 50.584C408.205 52.888 408.248 54.936 408.248 56.728C410.552 53.912 412.728 51.6507 414.776 49.944C416.824 48.2373 418.829 47 420.792 46.232C422.84 45.3787 424.888 44.952 426.936 44.952C429.923 44.952 432.525 45.8053 434.744 47.512C436.963 49.1333 438.072 51.8213 438.072 55.576C438.072 56.856 437.773 58.2213 437.176 59.672C436.579 61.0373 435.64 62.1893 434.36 63.128C433.08 64.0667 431.331 64.536 429.112 64.536C427.405 64.536 425.656 64.024 423.864 63C422.072 61.976 421.048 60.0133 420.792 57.112C419.085 57.112 417.379 57.8373 415.672 59.288C413.965 60.6533 412.429 62.3173 411.064 64.28C409.784 66.1573 408.888 67.9067 408.376 69.528V90.392C408.376 91.5867 408.333 93.2933 408.248 95.512C408.163 97.6453 408.035 99.6933 407.864 101.656C409.229 101.485 410.723 101.4 412.344 101.4C414.051 101.315 415.331 101.272 416.184 101.272V111H382.648V102.68ZM440.975 111V102.68C443.364 102.68 445.071 102.211 446.095 101.272C447.204 100.333 447.887 99.0107 448.143 97.304C448.484 95.512 448.655 93.5067 448.655 91.288V38.68C448.655 37.144 448.698 35.3947 448.783 33.432C448.868 31.384 448.996 29.4213 449.167 27.544C447.802 27.6293 446.18 27.7147 444.303 27.8C442.511 27.8 441.146 27.8427 440.207 27.928V18.2C444.132 18.2 447.418 17.9867 450.063 17.56C452.794 17.1333 454.97 16.6213 456.591 16.024C458.212 15.4267 459.279 14.872 459.791 14.36H466.831V72.728H472.975L482.191 62.104C483.3 60.9093 484.196 59.8853 484.879 59.032C485.647 58.1787 486.415 57.4107 487.183 56.728H480.399V47H509.199V55.192C506.212 55.5333 503.567 56.2587 501.263 57.368C498.959 58.392 496.954 59.6293 495.247 61.08C493.626 62.5307 492.218 63.9387 491.023 65.304L482.831 74.52C484.111 75.1173 485.348 76.0133 486.543 77.208C487.823 78.3173 489.359 80.0667 491.151 82.456L499.727 93.72C500.239 94.3173 500.879 95.128 501.647 96.152C502.5 97.176 503.439 98.2 504.463 99.224C505.487 100.163 506.596 100.973 507.791 101.656C508.986 102.339 510.223 102.68 511.503 102.68V111H496.783C494.052 111 491.663 110.061 489.615 108.184C487.567 106.221 485.22 103.448 482.575 99.864C481.039 97.816 479.418 95.64 477.711 93.336C476.09 90.9467 474.554 88.728 473.103 86.68C471.738 84.5467 470.628 82.8827 469.775 81.688L466.831 81.816V90.392C466.831 91.5867 466.788 93.2933 466.703 95.512C466.618 97.6453 466.49 99.6933 466.319 101.656C467.684 101.485 469.178 101.4 470.799 101.4C472.42 101.315 473.7 101.272 474.639 101.272V111H440.975ZM548.463 113.048C544.794 113.048 541.21 112.579 537.711 111.64C534.212 110.701 531.482 109.507 529.519 108.056L529.775 111.896H520.047L519.535 89.88H527.855C528.111 92.44 529.135 94.7867 530.927 96.92C532.719 99.0533 535.066 100.76 537.967 102.04C540.868 103.235 544.111 103.832 547.695 103.832C549.146 103.832 550.511 103.619 551.791 103.192C553.156 102.765 554.266 102.083 555.119 101.144C556.058 100.12 556.527 98.8827 556.527 97.432C556.527 95.8107 555.93 94.488 554.735 93.464C553.626 92.44 551.962 91.4587 549.743 90.52C547.61 89.5813 544.922 88.5147 541.679 87.32C539.034 86.296 536.346 85.2293 533.615 84.12C530.97 83.0107 528.495 81.688 526.191 80.152C523.972 78.5307 522.18 76.568 520.815 74.264C519.45 71.8747 518.767 68.9733 518.767 65.56C518.767 63.0853 519.236 60.6533 520.175 58.264C521.114 55.7893 522.564 53.5707 524.527 51.608C526.49 49.56 528.964 47.9387 531.951 46.744C535.023 45.5493 538.65 44.952 542.831 44.952C545.135 44.952 547.738 45.336 550.639 46.104C553.626 46.7867 556.143 47.8533 558.191 49.304V45.592H567.919V68.248H559.599C559.087 65.2613 558.02 62.7013 556.399 60.568C554.863 58.4347 552.858 56.8133 550.383 55.704C547.908 54.5093 545.135 53.912 542.063 53.912C539.93 53.912 537.967 54.424 536.175 55.448C534.468 56.472 533.615 58.2213 533.615 60.696C533.615 62.6587 534.298 64.2373 535.663 65.432C537.028 66.5413 538.906 67.48 541.295 68.248C543.684 69.016 546.33 69.912 549.231 70.936C553.583 72.3867 557.423 74.0933 560.751 76.056C564.164 78.0187 566.852 80.408 568.815 83.224C570.778 85.9547 571.759 89.3253 571.759 93.336C571.759 97.7733 570.65 101.443 568.431 104.344C566.212 107.245 563.311 109.421 559.727 110.872C556.228 112.323 552.474 113.048 548.463 113.048ZM590.876 113.048C588.145 113.048 585.884 112.067 584.092 110.104C582.385 108.141 581.532 105.795 581.532 103.064C581.532 100.333 582.471 97.9867 584.348 96.024C586.225 94.0613 588.401 93.08 590.876 93.08C593.521 93.08 595.697 94.0613 597.404 96.024C599.196 97.9867 600.092 100.333 600.092 103.064C600.092 105.795 599.239 108.141 597.532 110.104C595.911 112.067 593.692 113.048 590.876 113.048Z" fill="#3FC1C9"/>
<path d="M84.9694 169L78.4894 145.672H82.5214L85.9774 159.16C86.2334 160.248 86.4734 161.336 86.6974 162.424C86.9214 163.48 87.1454 164.552 87.3694 165.64H87.5614C87.8174 164.552 88.0734 163.48 88.3294 162.424C88.5854 161.336 88.8574 160.248 89.1454 159.16L92.7454 145.672H96.5854L100.233 159.16C100.521 160.248 100.793 161.336 101.049 162.424C101.337 163.48 101.609 164.552 101.865 165.64H102.057C102.313 164.552 102.553 163.48 102.777 162.424C103.033 161.336 103.273 160.248 103.497 159.16L106.905 145.672H110.649L104.409 169H99.6094L96.2494 156.472C95.9614 155.352 95.6894 154.248 95.4334 153.16C95.2094 152.072 94.9534 150.936 94.6654 149.752H94.4734C94.2174 150.936 93.9614 152.088 93.7054 153.208C93.4494 154.296 93.1614 155.4 92.8414 156.52L89.5774 169H84.9694ZM115.727 169V134.824H119.663V144.136L119.519 148.936C120.639 147.88 121.807 146.984 123.023 146.248C124.271 145.48 125.695 145.096 127.295 145.096C129.759 145.096 131.551 145.88 132.671 147.448C133.823 148.984 134.399 151.24 134.399 154.216V169H130.463V154.744C130.463 152.568 130.111 150.984 129.407 149.992C128.703 149 127.583 148.504 126.047 148.504C124.863 148.504 123.791 148.808 122.831 149.416C121.903 150.024 120.847 150.92 119.663 152.104V169H115.727ZM151.292 169.576C149.212 169.576 147.324 169.096 145.628 168.136C143.932 167.144 142.588 165.736 141.596 163.912C140.604 162.088 140.108 159.912 140.108 157.384C140.108 154.824 140.604 152.632 141.596 150.808C142.62 148.984 143.932 147.576 145.532 146.584C147.132 145.592 148.812 145.096 150.572 145.096C153.548 145.096 155.836 146.088 157.436 148.072C159.068 150.056 159.884 152.712 159.884 156.04C159.884 156.456 159.868 156.872 159.836 157.288C159.836 157.672 159.804 158.008 159.74 158.296H143.996C144.156 160.76 144.924 162.728 146.3 164.2C147.708 165.672 149.532 166.408 151.772 166.408C152.892 166.408 153.916 166.248 154.844 165.928C155.804 165.576 156.716 165.128 157.58 164.584L158.972 167.176C157.98 167.816 156.844 168.376 155.564 168.856C154.316 169.336 152.892 169.576 151.292 169.576ZM143.948 155.464H156.428C156.428 153.096 155.916 151.304 154.892 150.088C153.9 148.84 152.492 148.216 150.668 148.216C149.036 148.216 147.564 148.856 146.252 150.136C144.972 151.384 144.204 153.16 143.948 155.464ZM165.648 169V145.672H168.912L169.248 149.896H169.392C170.192 148.424 171.168 147.256 172.32 146.392C173.472 145.528 174.704 145.096 176.016 145.096C176.944 145.096 177.776 145.256 178.512 145.576L177.744 149.032C177.36 148.904 177.008 148.808 176.688 148.744C176.368 148.68 175.968 148.648 175.488 148.648C174.496 148.648 173.456 149.048 172.368 149.848C171.312 150.648 170.384 152.04 169.584 154.024V169H165.648ZM191.276 169.576C189.196 169.576 187.308 169.096 185.612 168.136C183.916 167.144 182.572 165.736 181.58 163.912C180.588 162.088 180.092 159.912 180.092 157.384C180.092 154.824 180.588 152.632 181.58 150.808C182.604 148.984 183.916 147.576 185.516 146.584C187.116 145.592 188.796 145.096 190.556 145.096C193.532 145.096 195.82 146.088 197.42 148.072C199.052 150.056 199.868 152.712 199.868 156.04C199.868 156.456 199.852 156.872 199.82 157.288C199.82 157.672 199.788 158.008 199.724 158.296H183.98C184.14 160.76 184.908 162.728 186.284 164.2C187.692 165.672 189.516 166.408 191.756 166.408C192.876 166.408 193.9 166.248 194.828 165.928C195.788 165.576 196.7 165.128 197.564 164.584L198.956 167.176C197.964 167.816 196.828 168.376 195.548 168.856C194.3 169.336 192.876 169.576 191.276 169.576ZM183.932 155.464H196.412C196.412 153.096 195.9 151.304 194.876 150.088C193.884 148.84 192.476 148.216 190.652 148.216C189.02 148.216 187.548 148.856 186.236 150.136C184.956 151.384 184.188 153.16 183.932 155.464ZM221.338 169.576C219.674 169.576 218.09 169.272 216.586 168.664C215.082 168.024 213.77 167.256 212.65 166.36L214.618 163.72C215.642 164.52 216.698 165.192 217.786 165.736C218.874 166.248 220.106 166.504 221.482 166.504C223.018 166.504 224.17 166.152 224.938 165.448C225.706 164.712 226.09 163.848 226.09 162.856C226.09 162.056 225.818 161.384 225.274 160.84C224.762 160.296 224.09 159.848 223.258 159.496C222.458 159.112 221.626 158.76 220.762 158.44C219.674 158.024 218.602 157.56 217.546 157.048C216.49 156.504 215.626 155.816 214.954 154.984C214.282 154.12 213.946 153.032 213.946 151.72C213.946 149.832 214.65 148.264 216.058 147.016C217.498 145.736 219.482 145.096 222.01 145.096C223.45 145.096 224.794 145.352 226.042 145.864C227.29 146.376 228.362 147 229.258 147.736L227.338 150.232C226.538 149.624 225.706 149.128 224.842 148.744C223.978 148.36 223.034 148.168 222.01 148.168C220.538 148.168 219.45 148.504 218.746 149.176C218.074 149.848 217.738 150.632 217.738 151.528C217.738 152.264 217.978 152.872 218.458 153.352C218.938 153.8 219.562 154.2 220.33 154.552C221.098 154.872 221.914 155.208 222.778 155.56C223.898 155.976 225.002 156.456 226.09 157C227.178 157.512 228.074 158.216 228.778 159.112C229.514 159.976 229.882 161.144 229.882 162.616C229.882 163.864 229.546 165.016 228.874 166.072C228.234 167.128 227.274 167.976 225.994 168.616C224.746 169.256 223.194 169.576 221.338 169.576ZM241.758 169.576C239.262 169.576 237.518 168.856 236.526 167.416C235.566 165.976 235.086 164.104 235.086 161.8V148.888H231.63V145.912L235.278 145.672L235.758 139.144H239.07V145.672H245.358V148.888H239.07V161.848C239.07 163.288 239.326 164.408 239.838 165.208C240.382 165.976 241.326 166.36 242.67 166.36C243.086 166.36 243.534 166.296 244.014 166.168C244.494 166.008 244.926 165.864 245.31 165.736L246.078 168.712C245.438 168.936 244.734 169.128 243.966 169.288C243.23 169.48 242.494 169.576 241.758 169.576ZM257.449 169.576C254.985 169.576 253.177 168.808 252.025 167.272C250.873 165.704 250.297 163.432 250.297 160.456V145.672H254.281V159.928C254.281 162.104 254.617 163.688 255.289 164.68C255.993 165.672 257.113 166.168 258.649 166.168C259.865 166.168 260.937 165.864 261.865 165.256C262.825 164.616 263.849 163.608 264.937 162.232V145.672H268.873V169H265.609L265.273 165.352H265.129C264.041 166.632 262.889 167.656 261.673 168.424C260.457 169.192 259.049 169.576 257.449 169.576ZM284.71 169.576C281.798 169.576 279.462 168.52 277.702 166.408C275.942 164.264 275.062 161.256 275.062 157.384C275.062 154.856 275.526 152.68 276.454 150.856C277.414 149 278.662 147.576 280.198 146.584C281.766 145.592 283.43 145.096 285.19 145.096C286.534 145.096 287.702 145.336 288.694 145.816C289.686 146.296 290.694 146.952 291.718 147.784L291.526 143.8V134.824H295.51V169H292.246L291.91 166.264H291.766C290.87 167.16 289.814 167.944 288.598 168.616C287.382 169.256 286.086 169.576 284.71 169.576ZM285.574 166.264C287.622 166.264 289.606 165.192 291.526 163.048V150.856C290.534 149.96 289.574 149.336 288.646 148.984C287.75 148.6 286.822 148.408 285.862 148.408C284.614 148.408 283.478 148.792 282.454 149.56C281.462 150.296 280.662 151.336 280.054 152.68C279.446 153.992 279.142 155.544 279.142 157.336C279.142 160.12 279.702 162.312 280.822 163.912C281.942 165.48 283.526 166.264 285.574 166.264ZM312.823 169.576C310.743 169.576 308.855 169.096 307.159 168.136C305.463 167.144 304.119 165.736 303.127 163.912C302.135 162.088 301.639 159.912 301.639 157.384C301.639 154.824 302.135 152.632 303.127 150.808C304.151 148.984 305.463 147.576 307.063 146.584C308.663 145.592 310.343 145.096 312.103 145.096C315.079 145.096 317.367 146.088 318.967 148.072C320.599 150.056 321.415 152.712 321.415 156.04C321.415 156.456 321.399 156.872 321.367 157.288C321.367 157.672 321.335 158.008 321.271 158.296H305.527C305.687 160.76 306.455 162.728 307.831 164.2C309.239 165.672 311.063 166.408 313.303 166.408C314.423 166.408 315.447 166.248 316.375 165.928C317.335 165.576 318.247 165.128 319.111 164.584L320.503 167.176C319.511 167.816 318.375 168.376 317.095 168.856C315.847 169.336 314.423 169.576 312.823 169.576ZM305.479 155.464H317.959C317.959 153.096 317.447 151.304 316.423 150.088C315.431 148.84 314.023 148.216 312.199 148.216C310.567 148.216 309.095 148.856 307.783 150.136C306.503 151.384 305.735 153.16 305.479 155.464ZM327.18 169V145.672H330.444L330.78 149.032H330.924C332.044 147.912 333.228 146.984 334.476 146.248C335.724 145.48 337.148 145.096 338.748 145.096C341.212 145.096 343.004 145.88 344.124 147.448C345.276 148.984 345.852 151.24 345.852 154.216V169H341.916V154.744C341.916 152.568 341.564 150.984 340.86 149.992C340.156 149 339.036 148.504 337.5 148.504C336.316 148.504 335.244 148.808 334.284 149.416C333.356 150.024 332.3 150.92 331.116 152.104V169H327.18ZM360.774 169.576C358.278 169.576 356.534 168.856 355.542 167.416C354.582 165.976 354.102 164.104 354.102 161.8V148.888H350.646V145.912L354.294 145.672L354.774 139.144H358.086V145.672H364.374V148.888H358.086V161.848C358.086 163.288 358.342 164.408 358.854 165.208C359.398 165.976 360.342 166.36 361.686 166.36C362.102 166.36 362.55 166.296 363.03 166.168C363.51 166.008 363.942 165.864 364.326 165.736L365.094 168.712C364.454 168.936 363.75 169.128 362.982 169.288C362.246 169.48 361.51 169.576 360.774 169.576ZM375.276 169.576C373.612 169.576 372.028 169.272 370.524 168.664C369.02 168.024 367.708 167.256 366.588 166.36L368.556 163.72C369.58 164.52 370.636 165.192 371.724 165.736C372.812 166.248 374.044 166.504 375.42 166.504C376.956 166.504 378.108 166.152 378.876 165.448C379.644 164.712 380.028 163.848 380.028 162.856C380.028 162.056 379.756 161.384 379.212 160.84C378.7 160.296 378.028 159.848 377.196 159.496C376.396 159.112 375.564 158.76 374.7 158.44C373.612 158.024 372.54 157.56 371.484 157.048C370.428 156.504 369.564 155.816 368.892 154.984C368.22 154.12 367.884 153.032 367.884 151.72C367.884 149.832 368.588 148.264 369.996 147.016C371.436 145.736 373.42 145.096 375.948 145.096C377.388 145.096 378.732 145.352 379.98 145.864C381.228 146.376 382.3 147 383.196 147.736L381.276 150.232C380.476 149.624 379.644 149.128 378.78 148.744C377.916 148.36 376.972 148.168 375.948 148.168C374.476 148.168 373.388 148.504 372.684 149.176C372.012 149.848 371.676 150.632 371.676 151.528C371.676 152.264 371.916 152.872 372.396 153.352C372.876 153.8 373.5 154.2 374.268 154.552C375.036 154.872 375.852 155.208 376.716 155.56C377.836 155.976 378.94 156.456 380.028 157C381.116 157.512 382.012 158.216 382.716 159.112C383.452 159.976 383.82 161.144 383.82 162.616C383.82 163.864 383.484 165.016 382.812 166.072C382.172 167.128 381.212 167.976 379.932 168.616C378.684 169.256 377.132 169.576 375.276 169.576ZM403.074 169.576C401.602 169.576 400.53 169.128 399.858 168.232C399.218 167.304 398.898 165.992 398.898 164.296V134.824H402.834V164.584C402.834 165.192 402.946 165.64 403.17 165.928C403.394 166.184 403.65 166.312 403.938 166.312C404.066 166.312 404.178 166.312 404.274 166.312C404.402 166.28 404.578 166.248 404.802 166.216L405.33 169.192C405.074 169.32 404.77 169.416 404.418 169.48C404.066 169.544 403.618 169.576 403.074 169.576ZM420.205 169.576C418.317 169.576 416.541 169.096 414.877 168.136C413.245 167.176 411.917 165.784 410.893 163.96C409.901 162.136 409.405 159.944 409.405 157.384C409.405 154.76 409.901 152.536 410.893 150.712C411.917 148.888 413.245 147.496 414.877 146.536C416.541 145.576 418.317 145.096 420.205 145.096C422.125 145.096 423.901 145.576 425.533 146.536C427.165 147.496 428.477 148.888 429.469 150.712C430.493 152.536 431.005 154.76 431.005 157.384C431.005 159.944 430.493 162.136 429.469 163.96C428.477 165.784 427.165 167.176 425.533 168.136C423.901 169.096 422.125 169.576 420.205 169.576ZM420.205 166.312C422.221 166.312 423.837 165.496 425.053 163.864C426.301 162.2 426.925 160.04 426.925 157.384C426.925 154.696 426.301 152.52 425.053 150.856C423.837 149.192 422.221 148.36 420.205 148.36C418.221 148.36 416.605 149.192 415.357 150.856C414.109 152.52 413.485 154.696 413.485 157.384C413.485 160.04 414.109 162.2 415.357 163.864C416.605 165.496 418.221 166.312 420.205 166.312ZM446.22 169.576C444.332 169.576 442.556 169.096 440.892 168.136C439.26 167.176 437.932 165.784 436.908 163.96C435.916 162.136 435.42 159.944 435.42 157.384C435.42 154.76 435.916 152.536 436.908 150.712C437.932 148.888 439.26 147.496 440.892 146.536C442.556 145.576 444.332 145.096 446.22 145.096C448.14 145.096 449.916 145.576 451.548 146.536C453.18 147.496 454.492 148.888 455.484 150.712C456.508 152.536 457.02 154.76 457.02 157.384C457.02 159.944 456.508 162.136 455.484 163.96C454.492 165.784 453.18 167.176 451.548 168.136C449.916 169.096 448.14 169.576 446.22 169.576ZM446.22 166.312C448.236 166.312 449.852 165.496 451.068 163.864C452.316 162.2 452.94 160.04 452.94 157.384C452.94 154.696 452.316 152.52 451.068 150.856C449.852 149.192 448.236 148.36 446.22 148.36C444.236 148.36 442.62 149.192 441.372 150.856C440.124 152.52 439.5 154.696 439.5 157.384C439.5 160.04 440.124 162.2 441.372 163.864C442.62 165.496 444.236 166.312 446.22 166.312ZM463.164 169V134.824H467.052V157.96H467.196L477.132 145.672H481.5L473.676 155.032L482.556 169H478.236L471.42 157.768L467.052 162.856V169H463.164ZM497.211 169V148.888H494.043V145.912L497.211 145.672V141.976C497.211 139.608 497.755 137.736 498.843 136.36C499.963 134.952 501.691 134.248 504.027 134.248C504.763 134.248 505.467 134.328 506.139 134.488C506.811 134.616 507.403 134.792 507.915 135.016L507.051 138.04C506.187 137.656 505.307 137.464 504.411 137.464C502.235 137.464 501.147 138.968 501.147 141.976V145.672H506.091V148.888H501.147V169H497.211ZM519.158 169.576C517.27 169.576 515.494 169.096 513.83 168.136C512.198 167.176 510.87 165.784 509.846 163.96C508.854 162.136 508.358 159.944 508.358 157.384C508.358 154.76 508.854 152.536 509.846 150.712C510.87 148.888 512.198 147.496 513.83 146.536C515.494 145.576 517.27 145.096 519.158 145.096C521.078 145.096 522.854 145.576 524.486 146.536C526.118 147.496 527.43 148.888 528.422 150.712C529.446 152.536 529.958 154.76 529.958 157.384C529.958 159.944 529.446 162.136 528.422 163.96C527.43 165.784 526.118 167.176 524.486 168.136C522.854 169.096 521.078 169.576 519.158 169.576ZM519.158 166.312C521.174 166.312 522.79 165.496 524.006 163.864C525.254 162.2 525.878 160.04 525.878 157.384C525.878 154.696 525.254 152.52 524.006 150.856C522.79 149.192 521.174 148.36 519.158 148.36C517.174 148.36 515.558 149.192 514.31 150.856C513.062 152.52 512.438 154.696 512.438 157.384C512.438 160.04 513.062 162.2 514.31 163.864C515.558 165.496 517.174 166.312 519.158 166.312ZM536.102 169V145.672H539.366L539.702 149.896H539.846C540.646 148.424 541.622 147.256 542.774 146.392C543.926 145.528 545.158 145.096 546.47 145.096C547.398 145.096 548.23 145.256 548.966 145.576L548.198 149.032C547.814 148.904 547.462 148.808 547.142 148.744C546.822 148.68 546.422 148.648 545.942 148.648C544.95 148.648 543.91 149.048 542.822 149.848C541.766 150.648 540.838 152.04 540.038 154.024V169H536.102ZM566.048 169L559.568 145.672H563.6L567.056 159.16C567.312 160.248 567.552 161.336 567.776 162.424C568 163.48 568.224 164.552 568.448 165.64H568.64C568.896 164.552 569.152 163.48 569.408 162.424C569.664 161.336 569.936 160.248 570.224 159.16L573.824 145.672H577.664L581.312 159.16C581.6 160.248 581.872 161.336 582.128 162.424C582.416 163.48 582.688 164.552 582.944 165.64H583.136C583.392 164.552 583.632 163.48 583.856 162.424C584.112 161.336 584.352 160.248 584.576 159.16L587.984 145.672H591.728L585.488 169H580.688L577.328 156.472C577.04 155.352 576.768 154.248 576.512 153.16C576.288 152.072 576.032 150.936 575.744 149.752H575.552C575.296 150.936 575.04 152.088 574.784 153.208C574.528 154.296 574.24 155.4 573.92 156.52L570.656 169H566.048ZM605.689 169.576C603.801 169.576 602.025 169.096 600.361 168.136C598.729 167.176 597.401 165.784 596.377 163.96C595.385 162.136 594.889 159.944 594.889 157.384C594.889 154.76 595.385 152.536 596.377 150.712C597.401 148.888 598.729 147.496 600.361 146.536C602.025 145.576 603.801 145.096 605.689 145.096C607.609 145.096 609.385 145.576 611.017 146.536C612.649 147.496 613.961 148.888 614.953 150.712C615.977 152.536 616.489 154.76 616.489 157.384C616.489 159.944 615.977 162.136 614.953 163.96C613.961 165.784 612.649 167.176 611.017 168.136C609.385 169.096 607.609 169.576 605.689 169.576ZM605.689 166.312C607.705 166.312 609.321 165.496 610.537 163.864C611.785 162.2 612.409 160.04 612.409 157.384C612.409 154.696 611.785 152.52 610.537 150.856C609.321 149.192 607.705 148.36 605.689 148.36C603.705 148.36 602.089 149.192 600.841 150.856C599.593 152.52 598.969 154.696 598.969 157.384C598.969 160.04 599.593 162.2 600.841 163.864C602.089 165.496 603.705 166.312 605.689 166.312ZM622.633 169V145.672H625.897L626.233 149.896H626.377C627.177 148.424 628.153 147.256 629.305 146.392C630.457 145.528 631.689 145.096 633.001 145.096C633.929 145.096 634.761 145.256 635.497 145.576L634.729 149.032C634.345 148.904 633.993 148.808 633.673 148.744C633.353 148.68 632.953 148.648 632.473 148.648C631.481 148.648 630.441 149.048 629.353 149.848C628.297 150.648 627.369 152.04 626.569 154.024V169H622.633ZM639.273 169V134.824H643.161V157.96H643.305L653.241 145.672H657.609L649.785 155.032L658.665 169H654.345L647.529 157.768L643.161 162.856V169H639.273Z" fill="#F5F5F5"/>
</g>
<defs>
<filter id="filter0_d_1_13" x="0.824097" y="8.35999" width="664.841" height="173.216" filterUnits="userSpaceOnUse" color-interpolation-filters="sRGB">
<feFlood flood-opacity="0" result="BackgroundImageFix"/>
<feColorMatrix in="SourceAlpha" type="matrix" values="0 0 0 0 0 0 0 0 0 0 0 0 0 0 0 0 0 0 127 0" result="hardAlpha"/>
<feOffset dx="-2" dy="3"/>
<feGaussianBlur stdDeviation="4.5"/>
<feComposite in2="hardAlpha" operator="out"/>
<feColorMatrix type="matrix" values="0 0 0 0 0 0 0 0 0 0 0 0 0 0 0 0 0 0 0.25 0"/>
<feBlend mode="normal" in2="BackgroundImageFix" result="effect1_dropShadow_1_13"/>
<feBlend mode="normal" in="SourceGraphic" in2="effect1_dropShadow_1_13" result="shape"/>
</filter>
</defs>
</svg>
