<?xml version="1.0" standalone="no"?><svg xmlns:xlink="http://www.w3.org/1999/xlink" xmlns="http://www.w3.org/2000/svg" viewBox="0 0 1000 285.71108949416345" preserveAspectRatio="xMaxYMax slice"><g transform="scale(0.9727626459143969)"><rect x="0" y="0" width="1028" height="293.7142857142857" fill="#364F6B"/><rect x="0" y="0" width="73.43" height="73.43" fill="#36546f"/><polygon points="73.43,0 73.43,73.43 0,73.43" fill="#39768b"/><rect x="73.43" y="0" width="73.43" height="73.43" fill="#3eb8c2"/><polygon points="73.43,0 146.86,0 146.86,73.43" fill="#364f6b"/><rect x="146.85714285714286" y="0" width="73.42857142857143" height="73.42857142857143" fill="#364F6B"/><rect x="146.86" y="0" width="36.71" height="36.71" fill="#364f6b"/><polygon points="146.86,0 183.57000000000002,0 183.57000000000002,36.71" fill="#3c9fad"/><rect x="183.57" y="0" width="36.71" height="36.71" fill="#364f6b"/><polygon points="183.57,0 220.28,36.71 183.57,36.71" fill="#364f6b"/><rect x="146.86" y="36.71" width="36.71" height="36.71" fill="#3eb8c2"/><polygon points="146.86,36.71 183.57000000000002,73.42 146.86,73.42" fill="#3c96a6"/><rect x="183.57" y="36.71" width="36.71" height="36.71" fill="#364f6b"/><polygon points="183.57,36.71 220.28,73.42 183.57,73.42" fill="#3b8e9f"/><rect x="220.29" y="0" width="73.43" height="73.43" fill="#364f6b"/><polygon points="220.29,0 293.72,73.43 220.29,73.43" fill="#3eb2bc"/><rect x="293.7142857142857" y="0" width="73.42857142857143" height="73.42857142857143" fill="#364F6B"/><rect x="293.71" y="0" width="36.71" height="36.71" fill="#38637b"/><polygon points="293.71,0 330.41999999999996,0 330.41999999999996,36.71" fill="#364f6b"/><rect x="330.43" y="0" width="36.71" height="36.71" fill="#3eafba"/><polygon points="330.43,0 367.14,0 367.14,36.71" fill="#364f6b"/><rect x="293.71" y="36.71" width="36.71" height="36.71" fill="#364f6b"/><polygon points="293.71,36.71 330.41999999999996,73.42 293.71,73.42" fill="#37617a"/><rect x="330.43" y="36.71" width="36.71" height="36.71" fill="#364f6b"/><polygon points="367.14,36.71 367.14,73.42 330.43,73.42" fill="#3eb7c0"/><rect x="367.14285714285717" y="0" width="73.42857142857143" height="73.42857142857143" fill="#364F6B"/><rect x="367.14" y="0" width="36.71" height="36.71" fill="#3da7b3"/><polygon points="367.14,0 403.84999999999997,36.71 367.14,36.71" fill="#364f6b"/><rect x="403.86" y="0" width="36.71" height="36.71" fill="#364f6b"/><polygon points="403.86,0 440.57,36.71 403.86,36.71" fill="#3a8194"/><rect x="367.14" y="36.71" width="36.71" height="36.71" fill="#3c9ba9"/><polygon points="367.14,36.71 403.84999999999997,36.71 403.84999999999997,73.42" fill="#3a7d91"/><rect x="403.86" y="36.71" width="36.71" height="36.71" fill="#38647c"/><polygon points="403.86,36.71 440.57,36.71 440.57,73.42" fill="#3fc1c9"/><rect x="440.57142857142856" y="0" width="73.42857142857143" height="73.42857142857143" fill="#364F6B"/><rect x="440.57" y="0" width="36.71" height="36.71" fill="#3eb1bc"/><polygon points="440.57,0 477.28,0 440.57,36.71" fill="#3eb2bd"/><rect x="477.29" y="0" width="36.71" height="36.71" fill="#364f6b"/><polygon points="477.29,0 514,0 514,36.71" fill="#364f6b"/><rect x="440.57" y="36.71" width="36.71" height="36.71" fill="#397288"/><polygon points="440.57,36.71 477.28,36.71 477.28,73.42" fill="#3eb7c1"/><rect x="477.29" y="36.71" width="36.71" height="36.71" fill="#364f6b"/><polygon points="477.29,36.71 514,36.71 477.29,73.42" fill="#386981"/><rect x="514" y="0" width="73.42857142857143" height="73.42857142857143" fill="#364F6B"/><rect x="514" y="0" width="36.71" height="36.71" fill="#3c9dab"/><polygon points="514,0 550.71,0 514,36.71" fill="#3b8c9d"/><rect x="550.71" y="0" width="36.71" height="36.71" fill="#386980"/><polygon points="550.71,0 587.4200000000001,36.71 550.71,36.71" fill="#397187"/><rect x="514" y="36.71" width="36.71" height="36.71" fill="#364f6b"/><polygon points="514,36.71 550.71,36.71 550.71,73.42" fill="#364f6b"/><rect x="550.71" y="36.71" width="36.71" height="36.71" fill="#386880"/><polygon points="587.4200000000001,36.71 587.4200000000001,73.42 550.71,73.42" fill="#365570"/><rect x="587.43" y="0" width="73.43" height="73.43" fill="#364f6b"/><polygon points="587.43,0 660.8599999999999,73.43 587.43,73.43" fill="#364f6b"/><rect x="660.8571428571429" y="0" width="73.42857142857143" height="73.42857142857143" fill="#364F6B"/><rect x="660.86" y="0" width="36.71" height="36.71" fill="#364f6b"/><polygon points="660.86,0 697.57,0 697.57,36.71" fill="#364f6b"/><rect x="697.57" y="0" width="36.71" height="36.71" fill="#397489"/><polygon points="697.57,0 734.2800000000001,36.71 697.57,36.71" fill="#364f6b"/><rect x="660.86" y="36.71" width="36.71" height="36.71" fill="#364f6b"/><polygon points="697.57,36.71 697.57,73.42 660.86,73.42" fill="#3b93a3"/><rect x="697.57" y="36.71" width="36.71" height="36.71" fill="#364f6b"/><polygon points="734.2800000000001,36.71 734.2800000000001,73.42 697.57,73.42" fill="#364f6b"/><rect x="734.29" y="0" width="73.43" height="73.43" fill="#364f6b"/><polygon points="734.29,0 807.72,73.43 734.29,73.43" fill="#36546f"/><rect x="807.7142857142858" y="0" width="73.42857142857143" height="73.42857142857143" fill="#364F6B"/><rect x="807.71" y="0" width="36.71" height="36.71" fill="#3c95a5"/><polygon points="807.71,0 844.4200000000001,0 844.4200000000001,36.71" fill="#364f6b"/><rect x="844.43" y="0" width="36.71" height="36.71" fill="#375a74"/><polygon points="844.43,0 881.14,0 881.14,36.71" fill="#3da2af"/><rect x="807.71" y="36.71" width="36.71" height="36.71" fill="#39788d"/><polygon points="807.71,36.71 844.4200000000001,36.71 807.71,73.42" fill="#364f6b"/><rect x="844.43" y="36.71" width="36.71" height="36.71" fill="#364f6b"/><polygon points="881.14,36.71 881.14,73.42 844.43,73.42" fill="#364f6b"/><rect x="881.14" y="0" width="73.43" height="73.43" fill="#3daab6"/><polygon points="881.14,0 954.5699999999999,0 954.5699999999999,73.43" fill="#3fc0c8"/><rect x="954.57" y="0" width="73.43" height="73.43" fill="#364f6b"/><polygon points="954.57,0 1028,0 954.57,73.43" fill="#375973"/><rect x="0" y="73.43" width="73.43" height="73.43" fill="#364f6b"/><polygon points="0,73.43 73.43,73.43 73.43,146.86" fill="#3a8799"/><rect x="73.43" y="73.43" width="73.43" height="73.43" fill="#364f6b"/><polygon points="73.43,73.43 146.86,73.43 146.86,146.86" fill="#375c76"/><rect x="146.86" y="73.43" width="73.43" height="73.43" fill="#364f6b"/><polygon points="146.86,73.43 220.29000000000002,146.86 146.86,146.86" fill="#3a7d91"/><rect x="220.29" y="73.43" width="73.43" height="73.43" fill="#3b8d9e"/><polygon points="220.29,73.43 293.72,73.43 293.72,146.86" fill="#364f6b"/><rect x="293.71" y="73.43" width="73.43" height="73.43" fill="#364f6b"/><polygon points="367.14,73.43 367.14,146.86 293.71,146.86" fill="#364f6b"/><rect x="367.14285714285717" y="73.42857142857143" width="73.42857142857143" height="73.42857142857143" fill="#364F6B"/><rect x="367.14" y="73.43" width="36.71" height="36.71" fill="#3b8fa0"/><polygon points="367.14,73.43 403.84999999999997,73.43 403.84999999999997,110.14000000000001" fill="#364f6b"/><rect x="403.86" y="73.43" width="36.71" height="36.71" fill="#386980"/><polygon points="440.57,73.43 440.57,110.14000000000001 403.86,110.14000000000001" fill="#364f6b"/><rect x="367.14" y="110.14" width="36.71" height="36.71" fill="#364f6b"/><polygon points="367.14,110.14 403.84999999999997,110.14 367.14,146.85" fill="#364f6b"/><rect x="403.86" y="110.14" width="36.71" height="36.71" fill="#386c83"/><polygon points="403.86,110.14 440.57,146.85 403.86,146.85" fill="#364f6b"/><rect x="440.57" y="73.43" width="73.43" height="73.43" fill="#397a8f"/><polygon points="440.57,73.43 514,73.43 514,146.86" fill="#38667e"/><rect x="514" y="73.43" width="73.43" height="73.43" fill="#364f6b"/><polygon points="514,73.43 587.4300000000001,146.86 514,146.86" fill="#364f6b"/><rect x="587.4285714285714" y="73.42857142857143" width="73.42857142857143" height="73.42857142857143" fill="#364F6B"/><rect x="587.43" y="73.43" width="36.71" height="36.71" fill="#364f6b"/><polygon points="587.43,73.43 624.14,73.43 587.43,110.14000000000001" fill="#364f6b"/><rect x="624.14" y="73.43" width="36.71" height="36.71" fill="#364f6b"/><polygon points="624.14,73.43 660.85,73.43 660.85,110.14000000000001" fill="#364f6b"/><rect x="587.43" y="110.14" width="36.71" height="36.71" fill="#364f6b"/><polygon points="587.43,110.14 624.14,110.14 587.43,146.85" fill="#364f6b"/><rect x="624.14" y="110.14" width="36.71" height="36.71" fill="#364f6b"/><polygon points="624.14,110.14 660.85,110.14 660.85,146.85" fill="#3b92a2"/><rect x="660.8571428571429" y="73.42857142857143" width="73.42857142857143" height="73.42857142857143" fill="#364F6B"/><rect x="660.86" y="73.43" width="36.71" height="36.71" fill="#397389"/><polygon points="660.86,73.43 697.57,110.14000000000001 660.86,110.14000000000001" fill="#364f6b"/><rect x="697.57" y="73.43" width="36.71" height="36.71" fill="#364f6b"/><polygon points="697.57,73.43 734.2800000000001,110.14000000000001 697.57,110.14000000000001" fill="#364f6b"/><rect x="660.86" y="110.14" width="36.71" height="36.71" fill="#375872"/><polygon points="660.86,110.14 697.57,110.14 697.57,146.85" fill="#3ebac3"/><rect x="697.57" y="110.14" width="36.71" height="36.71" fill="#386d84"/><polygon points="697.57,110.14 734.2800000000001,110.14 734.2800000000001,146.85" fill="#364f6b"/><rect x="734.2857142857143" y="73.42857142857143" width="73.42857142857143" height="73.42857142857143" fill="#364F6B"/><rect x="734.29" y="73.43" width="36.71" height="36.71" fill="#364f6b"/><polygon points="734.29,73.43 771,73.43 734.29,110.14000000000001" fill="#3fbfc8"/><rect x="771" y="73.43" width="36.71" height="36.71" fill="#364f6b"/><polygon points="771,73.43 807.71,73.43 807.71,110.14000000000001" fill="#38637b"/><rect x="734.29" y="110.14" width="36.71" height="36.71" fill="#364f6b"/><polygon points="734.29,110.14 771,146.85 734.29,146.85" fill="#364f6b"/><rect x="771" y="110.14" width="36.71" height="36.71" fill="#364f6b"/><polygon points="771,110.14 807.71,110.14 771,146.85" fill="#364f6b"/><rect x="807.7142857142858" y="73.42857142857143" width="73.42857142857143" height="73.42857142857143" fill="#364F6B"/><rect x="807.71" y="73.43" width="36.71" height="36.71" fill="#3b8b9d"/><polygon points="844.4200000000001,73.43 844.4200000000001,110.14000000000001 807.71,110.14000000000001" fill="#39768b"/><rect x="844.43" y="73.43" width="36.71" height="36.71" fill="#364f6b"/><polygon points="881.14,73.43 881.14,110.14000000000001 844.43,110.14000000000001" fill="#364f6b"/><rect x="807.71" y="110.14" width="36.71" height="36.71" fill="#3c96a6"/><polygon points="807.71,110.14 844.4200000000001,110.14 844.4200000000001,146.85" fill="#375d77"/><rect x="844.43" y="110.14" width="36.71" height="36.71" fill="#364f6b"/><polygon points="844.43,110.14 881.14,110.14 881.14,146.85" fill="#364f6b"/><rect x="881.1428571428571" y="73.42857142857143" width="73.42857142857143" height="73.42857142857143" fill="#364F6B"/><rect x="881.14" y="73.43" width="36.71" height="36.71" fill="#364f6b"/><polygon points="881.14,73.43 917.85,110.14000000000001 881.14,110.14000000000001" fill="#397086"/><rect x="917.86" y="73.43" width="36.71" height="36.71" fill="#364f6b"/><polygon points="917.86,73.43 954.57,73.43 954.57,110.14000000000001" fill="#364f6b"/><rect x="881.14" y="110.14" width="36.71" height="36.71" fill="#39758a"/><polygon points="881.14,110.14 917.85,110.14 881.14,146.85" fill="#38667e"/><rect x="917.86" y="110.14" width="36.71" height="36.71" fill="#364f6b"/><polygon points="917.86,110.14 954.57,146.85 917.86,146.85" fill="#38627b"/><rect x="954.5714285714286" y="73.42857142857143" width="73.42857142857143" height="73.42857142857143" fill="#364F6B"/><rect x="954.57" y="73.43" width="36.71" height="36.71" fill="#364f6b"/><polygon points="954.57,73.43 991.2800000000001,110.14000000000001 954.57,110.14000000000001" fill="#364f6b"/><rect x="991.29" y="73.43" width="36.71" height="36.71" fill="#364f6b"/><polygon points="1028,73.43 1028,110.14000000000001 991.29,110.14000000000001" fill="#3b8b9c"/><rect x="954.57" y="110.14" width="36.71" height="36.71" fill="#3a7b90"/><polygon points="954.57,110.14 991.2800000000001,146.85 954.57,146.85" fill="#397086"/><rect x="991.29" y="110.14" width="36.71" height="36.71" fill="#364f6b"/><polygon points="991.29,110.14 1028,110.14 991.29,146.85" fill="#364f6b"/><rect x="0" y="146.86" width="73.43" height="73.43" fill="#3b92a2"/><polygon points="0,146.86 73.43,146.86 73.43,220.29000000000002" fill="#364f6b"/><rect x="73.43" y="146.86" width="73.43" height="73.43" fill="#364f6b"/><polygon points="73.43,146.86 146.86,220.29000000000002 73.43,220.29000000000002" fill="#39788d"/><rect x="146.85714285714286" y="146.85714285714286" width="73.42857142857143" height="73.42857142857143" fill="#364F6B"/><rect x="146.86" y="146.86" width="36.71" height="36.71" fill="#364f6b"/><polygon points="183.57000000000002,146.86 183.57000000000002,183.57000000000002 146.86,183.57000000000002" fill="#3ca0ae"/><rect x="183.57" y="146.86" width="36.71" height="36.71" fill="#364f6b"/><polygon points="183.57,146.86 220.28,183.57000000000002 183.57,183.57000000000002" fill="#3eb3be"/><rect x="146.86" y="183.57" width="36.71" height="36.71" fill="#364f6b"/><polygon points="146.86,183.57 183.57000000000002,220.28 146.86,220.28" fill="#364f6b"/><rect x="183.57" y="183.57" width="36.71" height="36.71" fill="#364f6b"/><polygon points="183.57,183.57 220.28,183.57 183.57,220.28" fill="#364f6b"/><rect x="220.29" y="146.86" width="73.43" height="73.43" fill="#364f6b"/><polygon points="220.29,146.86 293.72,146.86 293.72,220.29000000000002" fill="#364f6b"/><rect x="293.7142857142857" y="146.85714285714286" width="73.42857142857143" height="73.42857142857143" fill="#364F6B"/><rect x="293.71" y="146.86" width="36.71" height="36.71" fill="#3a8093"/><polygon points="293.71,146.86 330.41999999999996,146.86 330.41999999999996,183.57000000000002" fill="#386d84"/><rect x="330.43" y="146.86" width="36.71" height="36.71" fill="#38647d"/><polygon points="330.43,146.86 367.14,146.86 330.43,183.57000000000002" fill="#364f6b"/><rect x="293.71" y="183.57" width="36.71" height="36.71" fill="#364f6b"/><polygon points="293.71,183.57 330.41999999999996,183.57 330.41999999999996,220.28" fill="#39788c"/><rect x="330.43" y="183.57" width="36.71" height="36.71" fill="#375b75"/><polygon points="330.43,183.57 367.14,183.57 367.14,220.28" fill="#3eb2bc"/><rect x="367.14285714285717" y="146.85714285714286" width="73.42857142857143" height="73.42857142857143" fill="#364F6B"/><rect x="367.14" y="146.86" width="36.71" height="36.71" fill="#364f6b"/><polygon points="403.84999999999997,146.86 403.84999999999997,183.57000000000002 367.14,183.57000000000002" fill="#364f6b"/><rect x="403.86" y="146.86" width="36.71" height="36.71" fill="#364f6b"/><polygon points="403.86,146.86 440.57,146.86 403.86,183.57000000000002" fill="#364f6b"/><rect x="367.14" y="183.57" width="36.71" height="36.71" fill="#3a8295"/><polygon points="403.84999999999997,183.57 403.84999999999997,220.28 367.14,220.28" fill="#364f6b"/><rect x="403.86" y="183.57" width="36.71" height="36.71" fill="#364f6b"/><polygon points="440.57,183.57 440.57,220.28 403.86,220.28" fill="#397389"/><rect x="440.57142857142856" y="146.85714285714286" width="73.42857142857143" height="73.42857142857143" fill="#364F6B"/><rect x="440.57" y="146.86" width="36.71" height="36.71" fill="#364f6b"/><polygon points="477.28,146.86 477.28,183.57000000000002 440.57,183.57000000000002" fill="#364f6b"/><rect x="477.29" y="146.86" width="36.71" height="36.71" fill="#3fbfc8"/><polygon points="477.29,146.86 514,146.86 477.29,183.57000000000002" fill="#364f6b"/><rect x="440.57" y="183.57" width="36.71" height="36.71" fill="#364f6b"/><polygon points="440.57,183.57 477.28,183.57 440.57,220.28" fill="#364f6b"/><rect x="477.29" y="183.57" width="36.71" height="36.71" fill="#397a8e"/><polygon points="514,183.57 514,220.28 477.29,220.28" fill="#364f6b"/><rect x="514" y="146.85714285714286" width="73.42857142857143" height="73.42857142857143" fill="#364F6B"/><rect x="514" y="146.86" width="36.71" height="36.71" fill="#386a82"/><polygon points="514,146.86 550.71,146.86 550.71,183.57000000000002" fill="#38667e"/><rect x="550.71" y="146.86" width="36.71" height="36.71" fill="#3b94a4"/><polygon points="550.71,146.86 587.4200000000001,146.86 550.71,183.57000000000002" fill="#3fbfc8"/><rect x="514" y="183.57" width="36.71" height="36.71" fill="#3eaeb9"/><polygon points="514,183.57 550.71,220.28 514,220.28" fill="#3c9cab"/><rect x="550.71" y="183.57" width="36.71" height="36.71" fill="#364f6b"/><polygon points="550.71,183.57 587.4200000000001,183.57 550.71,220.28" fill="#3da8b4"/><rect x="587.43" y="146.86" width="73.43" height="73.43" fill="#364f6b"/><polygon points="587.43,146.86 660.8599999999999,146.86 660.8599999999999,220.29000000000002" fill="#39758b"/><rect x="660.86" y="146.86" width="73.43" height="73.43" fill="#365570"/><polygon points="660.86,146.86 734.29,220.29000000000002 660.86,220.29000000000002" fill="#376079"/><rect x="734.2857142857143" y="146.85714285714286" width="73.42857142857143" height="73.42857142857143" fill="#364F6B"/><rect x="734.29" y="146.86" width="36.71" height="36.71" fill="#364f6b"/><polygon points="734.29,146.86 771,183.57000000000002 734.29,183.57000000000002" fill="#364f6b"/><rect x="771" y="146.86" width="36.71" height="36.71" fill="#364f6b"/><polygon points="807.71,146.86 807.71,183.57000000000002 771,183.57000000000002" fill="#3da4b1"/><rect x="734.29" y="183.57" width="36.71" height="36.71" fill="#364f6b"/><polygon points="734.29,183.57 771,183.57 771,220.28" fill="#364f6b"/><rect x="771" y="183.57" width="36.71" height="36.71" fill="#364f6b"/><polygon points="771,183.57 807.71,183.57 807.71,220.28" fill="#39768b"/><rect x="807.71" y="146.86" width="73.43" height="73.43" fill="#364f6b"/><polygon points="807.71,146.86 881.1400000000001,146.86 881.1400000000001,220.29000000000002" fill="#364f6b"/><rect x="881.14" y="146.86" width="73.43" height="73.43" fill="#3da6b3"/><polygon points="881.14,146.86 954.5699999999999,220.29000000000002 881.14,220.29000000000002" fill="#3b91a2"/><rect x="954.5714285714286" y="146.85714285714286" width="73.42857142857143" height="73.42857142857143" fill="#364F6B"/><rect x="954.57" y="146.86" width="36.71" height="36.71" fill="#3b8b9d"/><polygon points="954.57,146.86 991.2800000000001,183.57000000000002 954.57,183.57000000000002" fill="#396f86"/><rect x="991.29" y="146.86" width="36.71" height="36.71" fill="#386b82"/><polygon points="991.29,146.86 1028,146.86 991.29,183.57000000000002" fill="#364f6b"/><rect x="954.57" y="183.57" width="36.71" height="36.71" fill="#38687f"/><polygon points="954.57,183.57 991.2800000000001,183.57 954.57,220.28" fill="#3eb2bd"/><rect x="991.29" y="183.57" width="36.71" height="36.71" fill="#3b92a2"/><polygon points="991.29,183.57 1028,220.28 991.29,220.28" fill="#364f6b"/><rect x="0" y="220.28571428571428" width="73.42857142857143" height="73.42857142857143" fill="#364F6B"/><rect x="0" y="220.29" width="36.71" height="36.71" fill="#364f6b"/><polygon points="36.71,220.29 36.71,257 0,257" fill="#375a74"/><rect x="36.71" y="220.29" width="36.71" height="36.71" fill="#364f6b"/><polygon points="36.71,220.29 73.42,220.29 73.42,257" fill="#364f6b"/><rect x="0" y="257" width="36.71" height="36.71" fill="#37617a"/><polygon points="0,257 36.71,293.71 0,293.71" fill="#364f6b"/><rect x="36.71" y="257" width="36.71" height="36.71" fill="#364f6b"/><polygon points="73.42,257 73.42,293.71 36.71,293.71" fill="#364f6b"/><rect x="73.43" y="220.29" width="73.43" height="73.43" fill="#364f6b"/><polygon points="73.43,220.29 146.86,293.72 73.43,293.72" fill="#364f6b"/><rect x="146.85714285714286" y="220.28571428571428" width="73.42857142857143" height="73.42857142857143" fill="#364F6B"/><rect x="146.86" y="220.29" width="36.71" height="36.71" fill="#3da6b3"/><polygon points="146.86,220.29 183.57000000000002,220.29 146.86,257" fill="#364f6b"/><rect x="183.57" y="220.29" width="36.71" height="36.71" fill="#3c97a6"/><polygon points="220.28,220.29 220.28,257 183.57,257" fill="#3b8b9d"/><rect x="146.86" y="257" width="36.71" height="36.71" fill="#375f78"/><polygon points="183.57000000000002,257 183.57000000000002,293.71 146.86,293.71" fill="#364f6b"/><rect x="183.57" y="257" width="36.71" height="36.71" fill="#3b8fa0"/><polygon points="220.28,257 220.28,293.71 183.57,293.71" fill="#3eafba"/><rect x="220.29" y="220.29" width="73.43" height="73.43" fill="#3b90a1"/><polygon points="220.29,220.29 293.72,220.29 220.29,293.72" fill="#364f6b"/><rect x="293.7142857142857" y="220.28571428571428" width="73.42857142857143" height="73.42857142857143" fill="#364F6B"/><rect x="293.71" y="220.29" width="36.71" height="36.71" fill="#364f6b"/><polygon points="293.71,220.29 330.41999999999996,220.29 330.41999999999996,257" fill="#364f6b"/><rect x="330.43" y="220.29" width="36.71" height="36.71" fill="#3eb1bc"/><polygon points="367.14,220.29 367.14,257 330.43,257" fill="#364f6b"/><rect x="293.71" y="257" width="36.71" height="36.71" fill="#3c9aa9"/><polygon points="293.71,257 330.41999999999996,257 293.71,293.71" fill="#364f6b"/><rect x="330.43" y="257" width="36.71" height="36.71" fill="#3fbdc6"/><polygon points="330.43,257 367.14,257 330.43,293.71" fill="#3da3b0"/><rect x="367.14285714285717" y="220.28571428571428" width="73.42857142857143" height="73.42857142857143" fill="#364F6B"/><rect x="367.14" y="220.29" width="36.71" height="36.71" fill="#364f6b"/><polygon points="403.84999999999997,220.29 403.84999999999997,257 367.14,257" fill="#364f6b"/><rect x="403.86" y="220.29" width="36.71" height="36.71" fill="#36546f"/><polygon points="403.86,220.29 440.57,220.29 440.57,257" fill="#3a8093"/><rect x="367.14" y="257" width="36.71" height="36.71" fill="#38627b"/><polygon points="367.14,257 403.84999999999997,257 403.84999999999997,293.71" fill="#364f6b"/><rect x="403.86" y="257" width="36.71" height="36.71" fill="#364f6b"/><polygon points="440.57,257 440.57,293.71 403.86,293.71" fill="#386f85"/><rect x="440.57" y="220.29" width="73.43" height="73.43" fill="#364f6b"/><polygon points="440.57,220.29 514,293.72 440.57,293.72" fill="#364f6b"/><rect x="514" y="220.29" width="73.43" height="73.43" fill="#375671"/><polygon points="514,220.29 587.4300000000001,293.72 514,293.72" fill="#364f6b"/><rect x="587.4285714285714" y="220.28571428571428" width="73.42857142857143" height="73.42857142857143" fill="#364F6B"/><rect x="587.43" y="220.29" width="36.71" height="36.71" fill="#39768b"/><polygon points="587.43,220.29 624.14,220.29 587.43,257" fill="#397489"/><rect x="624.14" y="220.29" width="36.71" height="36.71" fill="#364f6b"/><polygon points="624.14,220.29 660.85,220.29 660.85,257" fill="#364f6b"/><rect x="587.43" y="257" width="36.71" height="36.71" fill="#364f6b"/><polygon points="587.43,257 624.14,257 624.14,293.71" fill="#3daab6"/><rect x="624.14" y="257" width="36.71" height="36.71" fill="#364f6b"/><polygon points="624.14,257 660.85,257 624.14,293.71" fill="#3a7c90"/><rect x="660.86" y="220.29" width="73.43" height="73.43" fill="#364f6b"/><polygon points="660.86,220.29 734.29,293.72 660.86,293.72" fill="#396f85"/><rect x="734.2857142857143" y="220.28571428571428" width="73.42857142857143" height="73.42857142857143" fill="#364F6B"/><rect x="734.29" y="220.29" width="36.71" height="36.71" fill="#36526e"/><polygon points="734.29,220.29 771,220.29 771,257" fill="#364f6b"/><rect x="771" y="220.29" width="36.71" height="36.71" fill="#364f6b"/><polygon points="771,220.29 807.71,257 771,257" fill="#3a7c90"/><rect x="734.29" y="257" width="36.71" height="36.71" fill="#3fbdc6"/><polygon points="734.29,257 771,257 734.29,293.71" fill="#39798d"/><rect x="771" y="257" width="36.71" height="36.71" fill="#39788d"/><polygon points="771,257 807.71,293.71 771,293.71" fill="#364f6b"/><rect x="807.7142857142858" y="220.28571428571428" width="73.42857142857143" height="73.42857142857143" fill="#364F6B"/><rect x="807.71" y="220.29" width="36.71" height="36.71" fill="#364f6b"/><polygon points="807.71,220.29 844.4200000000001,220.29 807.71,257" fill="#3a7d91"/><rect x="844.43" y="220.29" width="36.71" height="36.71" fill="#364f6b"/><polygon points="844.43,220.29 881.14,220.29 844.43,257" fill="#38647c"/><rect x="807.71" y="257" width="36.71" height="36.71" fill="#364f6b"/><polygon points="807.71,257 844.4200000000001,257 844.4200000000001,293.71" fill="#38687f"/><rect x="844.43" y="257" width="36.71" height="36.71" fill="#3da7b4"/><polygon points="844.43,257 881.14,257 881.14,293.71" fill="#364f6b"/><rect x="881.1428571428571" y="220.28571428571428" width="73.42857142857143" height="73.42857142857143" fill="#364F6B"/><rect x="881.14" y="220.29" width="36.71" height="36.71" fill="#375771"/><polygon points="881.14,220.29 917.85,220.29 917.85,257" fill="#364f6b"/><rect x="917.86" y="220.29" width="36.71" height="36.71" fill="#364f6b"/><polygon points="917.86,220.29 954.57,257 917.86,257" fill="#364f6b"/><rect x="881.14" y="257" width="36.71" height="36.71" fill="#364f6b"/><polygon points="881.14,257 917.85,257 917.85,293.71" fill="#3a889a"/><rect x="917.86" y="257" width="36.71" height="36.71" fill="#397a8f"/><polygon points="917.86,257 954.57,293.71 917.86,293.71" fill="#364f6b"/><rect x="954.57" y="220.29" width="73.43" height="73.43" fill="#3da4b1"/><polygon points="954.57,220.29 1028,220.29 1028,293.72" fill="#39758a"/></g></svg>