<?xml version="1.0" standalone="no"?><svg xmlns:xlink="http://www.w3.org/1999/xlink" xmlns="http://www.w3.org/2000/svg" viewBox="0 0 1000 1750.0346229871452" preserveAspectRatio="xMaxYMax slice"><g transform="scale(4.196725714597471)"><rect x="0" y="0" width="238.28571428571428" height="417" fill="#0c4a6e"/><rect x="0" y="0" width="29.79" height="29.79" fill="#467692"/><polygon points="0,0 29.79,29.79 0,29.79" fill="#d6e4eb"/><rect x="29.785714285714285" y="0" width="29.785714285714285" height="29.785714285714285" fill="#0c4a6e"/><rect x="29.79" y="0" width="14.89" height="14.89" fill="#2f6584"/><path d="M 29.79 0 A 14.89 14.89 0 0 0 44.68 14.89 L 44.68 0" fill="#2d6382"/><rect x="44.68" y="0" width="14.89" height="14.89" fill="#428bb2"/><path d="M 44.68 14.89 A 14.89 14.89 0 0 0 59.57 0 L 44.68 0" fill="#70c3ec"/><rect x="29.79" y="14.89" width="14.89" height="14.89" fill="#eff8fb"/><path d="M 29.79 29.78 A 14.89 14.89 0 0 1  44.68 14.89 L 44.68 29.78" fill="#1b5c81"/><rect x="44.68" y="14.89" width="14.89" height="14.89" fill="#155174"/><path d="M 44.68 14.89 A 14.89 14.89 0 0 1 59.57 29.78 L 44.68 29.78" fill="#69bbe3"/><rect x="59.57" y="0" width="29.79" height="29.79" fill="#276b90"/><polygon points="59.57,0 89.36,0 59.57,29.79" fill="#4089af"/><rect x="89.36" y="0" width="29.79" height="29.79" fill="#2e7499"/><rect x="89.36" y="0" width="29.79" height="29.79" fill="#195a7f"/><rect x="119.14285714285714" y="0" width="29.785714285714285" height="29.785714285714285" fill="#0c4a6e"/><rect x="119.14" y="0" width="14.89" height="14.89" fill="#3981a7"/><path d="M 119.14 14.89 A 14.89 14.89 0 0 0 134.03 0 L 119.14 0" fill="#206388"/><rect x="134.04" y="0" width="14.89" height="14.89" fill="#cedee6"/><path d="M 134.04 0 A 14.89 14.89 0 0 0 148.93 14.89 L 148.93 0" fill="#24678c"/><rect x="119.14" y="14.89" width="14.89" height="14.89" fill="#acc4d1"/><path d="M 119.14 14.89 A 14.89 14.89 0 0 1 134.03 29.78 L 119.14 29.78" fill="#2c7197"/><rect x="134.04" y="14.89" width="14.89" height="14.89" fill="#3880a6"/><path d="M 134.04 29.78 A 14.89 14.89 0 0 1  148.93 14.89 L 148.93 29.78" fill="#3981a7"/><rect x="148.92857142857142" y="0" width="29.785714285714285" height="29.785714285714285" fill="#0c4a6e"/><rect x="148.93" y="0" width="14.89" height="14.89" fill="#7cd2fb"/><path d="M 148.93 14.89 A 14.89 14.89 0 0 1 163.82 0 L 163.82 3.7225 A 11.1675 11.1675 0 0 0 152.6525 14.89" fill="#6dc0e8"/><rect x="163.82" y="0" width="14.89" height="14.89" fill="#437490"/><path d="M 163.82 0 A 14.89 14.89 0 0 1 178.70999999999998 14.89 L 174.98749999999998 14.89 A 11.1675 11.1675 0 0 0 163.82 3.7225" fill="#6abce4"/><rect x="148.93" y="14.89" width="14.89" height="14.89" fill="#2b7095"/><path d="M 148.93 14.89 A 14.89 14.89 0 0 0 163.82 29.78 L 163.82 26.0575 A 11.1675 11.1675 0 0 1 152.6525 14.89" fill="#7ea1b4"/><rect x="163.82" y="14.89" width="14.89" height="14.89" fill="#377ea4"/><path d="M 163.82 29.78 A 14.89 14.89 0 0 0 178.70999999999998 14.89 L 174.98749999999998 14.89 A 11.1675 11.1675 0 0 1 163.82 26.0575" fill="#83a5b7"/><rect x="178.71428571428572" y="0" width="29.785714285714285" height="29.785714285714285" fill="#0c4a6e"/><rect x="178.71" y="0" width="14.89" height="14.89" fill="#134f72"/><path d="M 178.71 14.89 A 14.89 14.89 0 0 1  193.60000000000002 0 L 193.60000000000002 14.89" fill="#296080"/><rect x="193.61" y="0" width="14.89" height="14.89" fill="#bcd0db"/><path d="M 193.61 0 A 14.89 14.89 0 0 1 208.5 14.89 L 193.61 14.89" fill="#7dd3fc"/><rect x="178.71" y="14.89" width="14.89" height="14.89" fill="#135377"/><path d="M 178.71 14.89 A 14.89 14.89 0 0 0 193.60000000000002 29.78 L 193.60000000000002 14.89" fill="#7b9fb3"/><rect x="193.61" y="14.89" width="14.89" height="14.89" fill="#a4becc"/><path d="M 193.61 29.78 A 14.89 14.89 0 0 0 208.5 14.89 L 193.61 14.89" fill="#3d86ac"/><rect x="208.5" y="0" width="29.79" height="29.79" fill="#79cff7"/><rect x="208.5" y="0" width="29.79" height="29.79" fill="#6bbde6"/><rect x="0" y="29.79" width="29.79" height="29.79" fill="#5cabd3"/><polygon points="29.79,29.79 29.79,59.58 0,59.58" fill="#92b1c1"/><rect x="29.79" y="29.79" width="29.79" height="29.79" fill="#438db4"/><rect x="29.79" y="29.79" width="29.79" height="29.79" fill="#76caf3"/><rect x="59.57" y="29.79" width="29.79" height="29.79" fill="#edf6f9"/><rect x="59.57" y="29.79" width="29.79" height="29.79" fill="#5ba9d1"/><rect x="89.36" y="29.79" width="29.79" height="29.79" fill="#0c4a6e"/><polygon points="89.36,29.79 119.15,29.79 89.36,59.58" fill="#2f7499"/><rect x="119.14285714285714" y="29.785714285714285" width="29.785714285714285" height="29.785714285714285" fill="#0c4a6e"/><rect x="119.14" y="29.79" width="14.89" height="14.89" fill="#55a2c9"/><polygon points="134.03,29.79 134.03,44.68 119.14,44.68" fill="#1a5b7f"/><rect x="134.04" y="29.79" width="14.89" height="14.89" fill="#16567a"/><polygon points="134.04,29.79 148.93,44.68 134.04,44.68" fill="#3c85ab"/><rect x="119.14" y="44.68" width="14.89" height="14.89" fill="#9cb8c7"/><polygon points="119.14,44.68 134.03,44.68 119.14,59.57" fill="#5cabd3"/><rect x="134.04" y="44.68" width="14.89" height="14.89" fill="#0f4d72"/><polygon points="134.04,44.68 148.93,44.68 148.93,59.57" fill="#60b0d8"/><rect x="148.93" y="29.79" width="29.79" height="29.79" fill="#2d7298"/><path d="M 148.93 59.58 A 29.79 29.79 0 0 1  178.72 29.79 L 178.72 59.58" fill="#2c6282"/><rect x="178.71" y="29.79" width="29.79" height="29.79" fill="#72c6ef"/><rect x="178.71" y="29.79" width="29.79" height="29.79" fill="#115175"/><rect x="208.5" y="29.79" width="29.79" height="29.79" fill="#438db4"/><rect x="208.5" y="29.79" width="29.79" height="29.79" fill="#78cdf6"/><rect x="0" y="59.57142857142857" width="29.785714285714285" height="29.785714285714285" fill="#0c4a6e"/><rect x="0" y="59.57" width="14.89" height="14.89" fill="#799db1"/><circle cx="7.445" cy="67.015" r="7.445" fill="#6991a8"/><rect x="14.89" y="59.57" width="14.89" height="14.89" fill="#276a8f"/><rect x="14.89" y="59.57" width="14.89" height="14.89" fill="#135073"/><rect x="0" y="74.46" width="14.89" height="14.89" fill="#75c9f2"/><circle cx="7.445" cy="81.905" r="7.445" fill="#32779d"/><rect x="14.89" y="74.46" width="14.89" height="14.89" fill="#1f6185"/><rect x="14.89" y="74.46" width="14.89" height="14.89" fill="#125276"/><rect x="29.79" y="59.57" width="29.79" height="29.79" fill="#67b9e1"/><polygon points="29.79,59.57 59.58,89.36 29.79,89.36" fill="#135276"/><rect x="59.57142857142857" y="59.57142857142857" width="29.785714285714285" height="29.785714285714285" fill="#0c4a6e"/><rect x="59.57" y="59.57" width="14.89" height="14.89" fill="#2d6383"/><path d="M 59.57 74.46000000000001 A 14.89 14.89 0 0 1 74.46000000000001 59.57 L 74.46000000000001 63.292500000000004 A 11.1675 11.1675 0 0 0 63.292500000000004 74.46000000000001" fill="#115075"/><rect x="74.46" y="59.57" width="14.89" height="14.89" fill="#4893b9"/><path d="M 74.46 59.57 A 14.89 14.89 0 0 1 89.35 74.46000000000001 L 85.6275 74.46000000000001 A 11.1675 11.1675 0 0 0 74.46 63.292500000000004" fill="#377ea4"/><rect x="59.57" y="74.46" width="14.89" height="14.89" fill="#cadbe3"/><path d="M 59.57 74.46 A 14.89 14.89 0 0 0 74.46000000000001 89.35 L 74.46000000000001 85.6275 A 11.1675 11.1675 0 0 1 63.292500000000004 74.46" fill="#1e5879"/><rect x="74.46" y="74.46" width="14.89" height="14.89" fill="#55a3ca"/><path d="M 74.46 89.35 A 14.89 14.89 0 0 0 89.35 74.46 L 85.6275 74.46 A 11.1675 11.1675 0 0 1 74.46 85.6275" fill="#6abce5"/><rect x="89.36" y="59.57" width="29.79" height="29.79" fill="#4a95bc"/><path d="M 89.36 89.36 A 29.79 29.79 0 0 1  119.15 59.57 L 89.36 89.36 A 29.79 29.79 0 0 0 119.15 59.57" fill="#acc4d1"/><rect x="119.14285714285714" y="59.57142857142857" width="29.785714285714285" height="29.785714285714285" fill="#0c4a6e"/><rect x="119.14" y="59.57" width="14.89" height="14.89" fill="#347ba1"/><polygon points="134.03,59.57 134.03,74.46000000000001 119.14,74.46000000000001" fill="#7ea1b5"/><rect x="134.04" y="59.57" width="14.89" height="14.89" fill="#5baad1"/><polygon points="134.04,59.57 148.93,59.57 134.04,74.46000000000001" fill="#3981a7"/><rect x="119.14" y="74.46" width="14.89" height="14.89" fill="#2f759b"/><polygon points="119.14,74.46 134.03,74.46 134.03,89.35" fill="#74c8f1"/><rect x="134.04" y="74.46" width="14.89" height="14.89" fill="#155579"/><polygon points="134.04,74.46 148.93,89.35 134.04,89.35" fill="#6dc0e8"/><rect x="148.92857142857142" y="59.57142857142857" width="29.785714285714285" height="29.785714285714285" fill="#0c4a6e"/><rect x="148.93" y="59.57" width="14.89" height="14.89" fill="#418ab0"/><path d="M 148.93 74.46000000000001 A 14.89 14.89 0 0 1 163.82 59.57 L 163.82 63.292500000000004 A 11.1675 11.1675 0 0 0 152.6525 74.46000000000001" fill="#529ec5"/><rect x="163.82" y="59.57" width="14.89" height="14.89" fill="#9ab6c6"/><path d="M 163.82 59.57 A 14.89 14.89 0 0 1 178.70999999999998 74.46000000000001 L 174.98749999999998 74.46000000000001 A 11.1675 11.1675 0 0 0 163.82 63.292500000000004" fill="#66b7df"/><rect x="148.93" y="74.46" width="14.89" height="14.89" fill="#428bb2"/><path d="M 148.93 74.46 A 14.89 14.89 0 0 0 163.82 89.35 L 163.82 85.6275 A 11.1675 11.1675 0 0 1 152.6525 74.46" fill="#1a5b80"/><rect x="163.82" y="74.46" width="14.89" height="14.89" fill="#65b6de"/><path d="M 163.82 89.35 A 14.89 14.89 0 0 0 178.70999999999998 74.46 L 174.98749999999998 74.46 A 11.1675 11.1675 0 0 1 163.82 85.6275" fill="#93b1c1"/><rect x="178.71" y="59.57" width="29.79" height="29.79" fill="#1b5c81"/><path d="M 178.71 89.36 A 29.79 29.79 0 0 0 208.5 59.57 L 178.71 59.57" fill="#6dc0e8"/><rect x="208.5" y="59.57142857142857" width="29.785714285714285" height="29.785714285714285" fill="#0c4a6e"/><rect x="208.5" y="59.57" width="14.89" height="14.89" fill="#3a82a8"/><polygon points="223.39,59.57 223.39,74.46000000000001 208.5,74.46000000000001" fill="#17587c"/><rect x="223.39" y="59.57" width="14.89" height="14.89" fill="#5dacd3"/><polygon points="223.39,59.57 238.27999999999997,74.46000000000001 223.39,74.46000000000001" fill="#125176"/><rect x="208.5" y="74.46" width="14.89" height="14.89" fill="#23668b"/><polygon points="208.5,74.46 223.39,74.46 208.5,89.35" fill="#74c8f1"/><rect x="223.39" y="74.46" width="14.89" height="14.89" fill="#66b7df"/><polygon points="223.39,74.46 238.27999999999997,74.46 238.27999999999997,89.35" fill="#7acff8"/><rect x="0" y="89.36" width="29.79" height="29.79" fill="#145478"/><rect x="0" y="89.36" width="29.79" height="29.79" fill="#206287"/><rect x="29.79" y="89.36" width="29.79" height="29.79" fill="#76caf3"/><path d="M 29.79 119.15 A 29.79 29.79 0 0 1  59.58 89.36 L 29.79 119.15 A 29.79 29.79 0 0 0 59.58 89.36" fill="#63b4db"/><rect x="59.57142857142857" y="89.35714285714286" width="29.785714285714285" height="29.785714285714285" fill="#0c4a6e"/><rect x="59.57" y="89.36" width="14.89" height="14.89" fill="#0e4c71"/><path d="M 59.57 104.25 A 14.89 14.89 0 0 1 74.46000000000001 89.36 L 74.46000000000001 93.0825 A 11.1675 11.1675 0 0 0 63.292500000000004 104.25" fill="#22658a"/><rect x="74.46" y="89.36" width="14.89" height="14.89" fill="#448eb5"/><path d="M 74.46 89.36 A 14.89 14.89 0 0 1 89.35 104.25 L 85.6275 104.25 A 11.1675 11.1675 0 0 0 74.46 93.0825" fill="#62b2da"/><rect x="59.57" y="104.25" width="14.89" height="14.89" fill="#2f749a"/><path d="M 59.57 104.25 A 14.89 14.89 0 0 0 74.46000000000001 119.14 L 74.46000000000001 115.4175 A 11.1675 11.1675 0 0 1 63.292500000000004 104.25" fill="#d9e6ed"/><rect x="74.46" y="104.25" width="14.89" height="14.89" fill="#529ec5"/><path d="M 74.46 119.14 A 14.89 14.89 0 0 0 89.35 104.25 L 85.6275 104.25 A 11.1675 11.1675 0 0 1 74.46 115.4175" fill="#3f88ae"/><rect x="89.36" y="89.36" width="29.79" height="29.79" fill="#5fafd7"/><polygon points="119.15,89.36 119.15,119.15 89.36,119.15" fill="#276b90"/><rect x="119.14" y="89.36" width="29.79" height="29.79" fill="#57a4cc"/><path d="M 119.14 89.36 A 29.79 29.79 0 0 1  148.93 119.15 L 119.14 89.36 A 29.79 29.79 0 0 0 148.93 119.15" fill="#78cdf6"/><rect x="148.93" y="89.36" width="29.79" height="29.79" fill="#1a5a7f"/><path d="M 148.93 89.36 A 29.79 29.79 0 0 1  178.72 119.15 L 148.93 89.36 A 29.79 29.79 0 0 0 178.72 119.15" fill="#a9c2cf"/><rect x="178.71" y="89.36" width="29.79" height="29.79" fill="#53a1c8"/><path d="M 178.71 119.15 A 29.79 29.79 0 0 0 208.5 89.36 L 178.71 89.36" fill="#1e6084"/><rect x="208.5" y="89.36" width="29.79" height="29.79" fill="#66b7df"/><rect x="208.5" y="89.36" width="29.79" height="29.79" fill="#3c6f8c"/><rect x="0" y="119.14285714285714" width="29.785714285714285" height="29.785714285714285" fill="#0c4a6e"/><rect x="0" y="119.14" width="14.89" height="14.89" fill="#1f6186"/><path d="M 0 119.14 A 14.89 14.89 0 0 0 14.89 134.03 L 14.89 119.14" fill="#68b9e1"/><rect x="14.89" y="119.14" width="14.89" height="14.89" fill="#2b6f94"/><path d="M 14.89 134.03 A 14.89 14.89 0 0 0 29.78 119.14 L 14.89 119.14" fill="#2c7196"/><rect x="0" y="134.04" width="14.89" height="14.89" fill="#bdd1db"/><path d="M 0 148.93 A 14.89 14.89 0 0 1  14.89 134.04 L 14.89 148.93" fill="#62b3db"/><rect x="14.89" y="134.04" width="14.89" height="14.89" fill="#0d4c70"/><path d="M 14.89 134.04 A 14.89 14.89 0 0 1 29.78 148.93 L 14.89 148.93" fill="#5dadd4"/><rect x="29.79" y="119.14" width="29.79" height="29.79" fill="#6bbde5"/><polygon points="29.79,119.14 59.58,119.14 59.58,148.93" fill="#519ec5"/><rect x="59.57142857142857" y="119.14285714285714" width="29.785714285714285" height="29.785714285714285" fill="#0c4a6e"/><rect x="59.57" y="119.14" width="14.89" height="14.89" fill="#78cef6"/><path d="M 59.57 134.03 A 14.89 14.89 0 0 0 74.46000000000001 119.14 L 59.57 119.14" fill="#73c7f0"/><rect x="74.46" y="119.14" width="14.89" height="14.89" fill="#6cbfe7"/><path d="M 74.46 119.14 A 14.89 14.89 0 0 0 89.35 134.03 L 89.35 119.14" fill="#a8c1cf"/><rect x="59.57" y="134.04" width="14.89" height="14.89" fill="#458fb5"/><path d="M 59.57 134.04 A 14.89 14.89 0 0 1 74.46000000000001 148.93 L 59.57 148.93" fill="#457591"/><rect x="74.46" y="134.04" width="14.89" height="14.89" fill="#e9f3f6"/><path d="M 74.46 148.93 A 14.89 14.89 0 0 1  89.35 134.04 L 89.35 148.93" fill="#71c5ed"/><rect x="89.35714285714286" y="119.14285714285714" width="29.785714285714285" height="29.785714285714285" fill="#0c4a6e"/><rect x="89.36" y="119.14" width="14.89" height="14.89" fill="#6cbfe7"/><path d="M 89.36 134.03 A 14.89 14.89 0 0 1 104.25 119.14 L 104.25 122.8625 A 11.1675 11.1675 0 0 0 93.0825 134.03" fill="#afc7d3"/><rect x="104.25" y="119.14" width="14.89" height="14.89" fill="#3c84aa"/><path d="M 104.25 119.14 A 14.89 14.89 0 0 1 119.14 134.03 L 115.4175 134.03 A 11.1675 11.1675 0 0 0 104.25 122.8625" fill="#296e93"/><rect x="89.36" y="134.04" width="14.89" height="14.89" fill="#3981a7"/><path d="M 89.36 134.04 A 14.89 14.89 0 0 0 104.25 148.93 L 104.25 145.20749999999998 A 11.1675 11.1675 0 0 1 93.0825 134.04" fill="#4893b9"/><rect x="104.25" y="134.04" width="14.89" height="14.89" fill="#31779c"/><path d="M 104.25 148.93 A 14.89 14.89 0 0 0 119.14 134.04 L 115.4175 134.04 A 11.1675 11.1675 0 0 1 104.25 145.20749999999998" fill="#2b6281"/><rect x="119.14" y="119.14" width="29.79" height="29.79" fill="#357ca2"/><polygon points="119.14,119.14 148.93,119.14 119.14,148.93" fill="#bbcfda"/><rect x="148.93" y="119.14" width="29.79" height="29.79" fill="#387fa5"/><rect x="148.93" y="119.14" width="29.79" height="29.79" fill="#24678c"/><rect x="178.71428571428572" y="119.14285714285714" width="29.785714285714285" height="29.785714285714285" fill="#0c4a6e"/><rect x="178.71" y="119.14" width="14.89" height="14.89" fill="#2d7298"/><path d="M 178.71 119.14 A 14.89 14.89 0 0 0 193.60000000000002 134.03 L 193.60000000000002 119.14" fill="#286c91"/><rect x="193.61" y="119.14" width="14.89" height="14.89" fill="#a9c2cf"/><path d="M 193.61 134.03 A 14.89 14.89 0 0 0 208.5 119.14 L 193.61 119.14" fill="#f4fbfe"/><rect x="178.71" y="134.04" width="14.89" height="14.89" fill="#115075"/><path d="M 178.71 148.93 A 14.89 14.89 0 0 1  193.60000000000002 134.04 L 193.60000000000002 148.93" fill="#a9c2cf"/><rect x="193.61" y="134.04" width="14.89" height="14.89" fill="#1a5476"/><path d="M 193.61 134.04 A 14.89 14.89 0 0 1 208.5 148.93 L 193.61 148.93" fill="#4c98bf"/><rect x="208.5" y="119.14" width="29.79" height="29.79" fill="#7399ae"/><path d="M 208.5 119.14 A 29.79 29.79 0 0 0 238.29 148.93 L 238.29 119.14" fill="#1d5e83"/><rect x="0" y="148.93" width="29.79" height="29.79" fill="#276b90"/><path d="M 0 148.93 A 29.79 29.79 0 0 1  29.79 178.72 L 0 148.93 A 29.79 29.79 0 0 0 29.79 178.72" fill="#1a5b80"/><rect x="29.785714285714285" y="148.92857142857142" width="29.785714285714285" height="29.785714285714285" fill="#0c4a6e"/><rect x="29.79" y="148.93" width="14.89" height="14.89" fill="#135276"/><path d="M 29.79 163.82 A 14.89 14.89 0 0 0 44.68 148.93 L 29.79 148.93" fill="#18587d"/><rect x="44.68" y="148.93" width="14.89" height="14.89" fill="#529fc7"/><path d="M 44.68 148.93 A 14.89 14.89 0 0 0 59.57 163.82 L 59.57 148.93" fill="#2b6f94"/><rect x="29.79" y="163.82" width="14.89" height="14.89" fill="#77ccf5"/><path d="M 29.79 163.82 A 14.89 14.89 0 0 1 44.68 178.70999999999998 L 29.79 178.70999999999998" fill="#7acff8"/><rect x="44.68" y="163.82" width="14.89" height="14.89" fill="#c4d7e0"/><path d="M 44.68 178.70999999999998 A 14.89 14.89 0 0 1  59.57 163.82 L 59.57 178.70999999999998" fill="#3f88af"/><rect x="59.57142857142857" y="148.92857142857142" width="29.785714285714285" height="29.785714285714285" fill="#0c4a6e"/><rect x="59.57" y="148.93" width="14.89" height="14.89" fill="#9fbac9"/><polygon points="74.46000000000001,148.93 74.46000000000001,163.82 59.57,163.82" fill="#125276"/><rect x="74.46" y="148.93" width="14.89" height="14.89" fill="#387fa5"/><polygon points="74.46,148.93 89.35,163.82 74.46,163.82" fill="#74c8f1"/><rect x="59.57" y="163.82" width="14.89" height="14.89" fill="#75c9f2"/><polygon points="59.57,163.82 74.46000000000001,163.82 59.57,178.70999999999998" fill="#95b3c3"/><rect x="74.46" y="163.82" width="14.89" height="14.89" fill="#93b1c1"/><polygon points="74.46,163.82 89.35,163.82 89.35,178.70999999999998" fill="#5eaed5"/><rect x="89.35714285714286" y="148.92857142857142" width="29.785714285714285" height="29.785714285714285" fill="#0c4a6e"/><rect x="89.36" y="148.93" width="14.89" height="14.89" fill="#3e708d"/><circle cx="96.805" cy="156.375" r="7.445" fill="#4c7b95"/><rect x="104.25" y="148.93" width="14.89" height="14.89" fill="#1e6085"/><rect x="104.25" y="148.93" width="14.89" height="14.89" fill="#3980a6"/><rect x="89.36" y="163.82" width="14.89" height="14.89" fill="#19597e"/><circle cx="96.805" cy="171.265" r="7.445" fill="#668ea5"/><rect x="104.25" y="163.82" width="14.89" height="14.89" fill="#5faed6"/><rect x="104.25" y="163.82" width="14.89" height="14.89" fill="#286c91"/><rect x="119.14285714285714" y="148.92857142857142" width="29.785714285714285" height="29.785714285714285" fill="#0c4a6e"/><rect x="119.14" y="148.93" width="14.89" height="14.89" fill="#519ec5"/><path d="M 119.14 148.93 A 14.89 14.89 0 0 1 134.03 163.82 L 119.14 163.82" fill="#438db3"/><rect x="134.04" y="148.93" width="14.89" height="14.89" fill="#428bb2"/><path d="M 134.04 163.82 A 14.89 14.89 0 0 1  148.93 148.93 L 148.93 163.82" fill="#2e7499"/><rect x="119.14" y="163.82" width="14.89" height="14.89" fill="#5dacd4"/><path d="M 119.14 178.70999999999998 A 14.89 14.89 0 0 0 134.03 163.82 L 119.14 163.82" fill="#6dbfe8"/><rect x="134.04" y="163.82" width="14.89" height="14.89" fill="#438db4"/><path d="M 134.04 163.82 A 14.89 14.89 0 0 0 148.93 178.70999999999998 L 148.93 163.82" fill="#71c4ed"/><rect x="148.92857142857142" y="148.92857142857142" width="29.785714285714285" height="29.785714285714285" fill="#0c4a6e"/><rect x="148.93" y="148.93" width="14.89" height="14.89" fill="#74c8f0"/><path d="M 148.93 148.93 A 14.89 14.89 0 0 0 163.82 163.82 L 163.82 148.93" fill="#77ccf5"/><rect x="163.82" y="148.93" width="14.89" height="14.89" fill="#f5fcfe"/><path d="M 163.82 163.82 A 14.89 14.89 0 0 0 178.70999999999998 148.93 L 163.82 148.93" fill="#62b2da"/><rect x="148.93" y="163.82" width="14.89" height="14.89" fill="#2a6e93"/><path d="M 148.93 178.70999999999998 A 14.89 14.89 0 0 1  163.82 163.82 L 163.82 178.70999999999998" fill="#79cff8"/><rect x="163.82" y="163.82" width="14.89" height="14.89" fill="#9ebac8"/><path d="M 163.82 163.82 A 14.89 14.89 0 0 1 178.70999999999998 178.70999999999998 L 163.82 178.70999999999998" fill="#99b6c5"/><rect x="178.71" y="148.93" width="29.79" height="29.79" fill="#53a0c7"/><rect x="178.71" y="148.93" width="29.79" height="29.79" fill="#58a6ce"/><rect x="208.5" y="148.93" width="29.79" height="29.79" fill="#4f9bc2"/><rect x="208.5" y="148.93" width="29.79" height="29.79" fill="#0d4c70"/><rect x="0" y="178.71" width="29.79" height="29.79" fill="#a8c1cf"/><polygon points="0,178.71 29.79,178.71 29.79,208.5" fill="#357ca2"/><rect x="29.79" y="178.71" width="29.79" height="29.79" fill="#23658a"/><rect x="29.79" y="178.71" width="29.79" height="29.79" fill="#57a5cc"/><rect x="59.57" y="178.71" width="29.79" height="29.79" fill="#65b6de"/><rect x="59.57" y="178.71" width="29.79" height="29.79" fill="#c9dbe3"/><rect x="89.35714285714286" y="178.71428571428572" width="29.785714285714285" height="29.785714285714285" fill="#0c4a6e"/><rect x="89.36" y="178.71" width="14.89" height="14.89" fill="#70c3eb"/><polygon points="104.25,178.71 104.25,193.60000000000002 89.36,193.60000000000002" fill="#65b6de"/><rect x="104.25" y="178.71" width="14.89" height="14.89" fill="#dae7ed"/><polygon points="104.25,178.71 119.14,193.60000000000002 104.25,193.60000000000002" fill="#6cbfe7"/><rect x="89.36" y="193.61" width="14.89" height="14.89" fill="#316685"/><polygon points="89.36,193.61 104.25,193.61 89.36,208.5" fill="#3c6f8c"/><rect x="104.25" y="193.61" width="14.89" height="14.89" fill="#367da3"/><polygon points="104.25,193.61 119.14,193.61 119.14,208.5" fill="#519ec5"/><rect x="119.14" y="178.71" width="29.79" height="29.79" fill="#6abce4"/><path d="M 119.14 178.71 A 29.79 29.79 0 0 0 148.93 208.5 L 148.93 178.71" fill="#276b90"/><rect x="148.93" y="178.71" width="29.79" height="29.79" fill="#24678c"/><path d="M 148.93 178.71 A 29.79 29.79 0 0 0 178.72 208.5 L 178.72 178.71" fill="#1a5b80"/><rect x="178.71428571428572" y="178.71428571428572" width="29.785714285714285" height="29.785714285714285" fill="#0c4a6e"/><rect x="178.71" y="178.71" width="14.89" height="14.89" fill="#306584"/><path d="M 178.71 178.71 A 14.89 14.89 0 0 0 193.60000000000002 193.60000000000002 L 193.60000000000002 178.71" fill="#6ec0e9"/><rect x="193.61" y="178.71" width="14.89" height="14.89" fill="#4e9bc2"/><path d="M 193.61 193.60000000000002 A 14.89 14.89 0 0 0 208.5 178.71 L 193.61 178.71" fill="#25698e"/><rect x="178.71" y="193.61" width="14.89" height="14.89" fill="#216489"/><path d="M 178.71 208.5 A 14.89 14.89 0 0 1  193.60000000000002 193.61 L 193.60000000000002 208.5" fill="#78cdf5"/><rect x="193.61" y="193.61" width="14.89" height="14.89" fill="#0e4c70"/><path d="M 193.61 193.61 A 14.89 14.89 0 0 1 208.5 208.5 L 193.61 208.5" fill="#22658a"/><rect x="208.5" y="178.71428571428572" width="29.785714285714285" height="29.785714285714285" fill="#0c4a6e"/><rect x="208.5" y="178.71" width="14.89" height="14.89" fill="#7cd2fb"/><polygon points="223.39,178.71 223.39,193.60000000000002 208.5,193.60000000000002" fill="#6890a7"/><rect x="223.39" y="178.71" width="14.89" height="14.89" fill="#5aa9d0"/><polygon points="223.39,178.71 238.27999999999997,178.71 223.39,193.60000000000002" fill="#71c5ed"/><rect x="208.5" y="193.61" width="14.89" height="14.89" fill="#2a6181"/><polygon points="208.5,193.61 223.39,193.61 223.39,208.5" fill="#206388"/><rect x="223.39" y="193.61" width="14.89" height="14.89" fill="#145478"/><polygon points="223.39,193.61 238.27999999999997,208.5 223.39,208.5" fill="#145479"/><rect x="0" y="208.5" width="29.785714285714285" height="29.785714285714285" fill="#0c4a6e"/><rect x="0" y="208.5" width="14.89" height="14.89" fill="#53809a"/><path d="M 0 208.5 A 14.89 14.89 0 0 0 14.89 223.39 L 14.89 208.5" fill="#2f759a"/><rect x="14.89" y="208.5" width="14.89" height="14.89" fill="#2a6f94"/><path d="M 14.89 223.39 A 14.89 14.89 0 0 0 29.78 208.5 L 14.89 208.5" fill="#276b90"/><rect x="0" y="223.39" width="14.89" height="14.89" fill="#30759b"/><path d="M 0 238.27999999999997 A 14.89 14.89 0 0 1  14.89 223.39 L 14.89 238.27999999999997" fill="#4d99c0"/><rect x="14.89" y="223.39" width="14.89" height="14.89" fill="#519dc4"/><path d="M 14.89 223.39 A 14.89 14.89 0 0 1 29.78 238.27999999999997 L 14.89 238.27999999999997" fill="#bbd0da"/><rect x="29.79" y="208.5" width="29.79" height="29.79" fill="#f1f9fb"/><rect x="29.79" y="208.5" width="29.79" height="29.79" fill="#2d7297"/><rect x="59.57" y="208.5" width="29.79" height="29.79" fill="#75c9f2"/><rect x="59.57" y="208.5" width="29.79" height="29.79" fill="#1a5a7f"/><rect x="89.36" y="208.5" width="29.79" height="29.79" fill="#6abce4"/><polygon points="89.36,208.5 119.15,208.5 89.36,238.29" fill="#165274"/><rect x="119.14" y="208.5" width="29.79" height="29.79" fill="#4c98bf"/><path d="M 119.14 208.5 A 29.79 29.79 0 0 0 148.93 238.29 L 148.93 208.5" fill="#276b90"/><rect x="148.92857142857142" y="208.5" width="29.785714285714285" height="29.785714285714285" fill="#0c4a6e"/><rect x="148.93" y="208.5" width="14.89" height="14.89" fill="#55829b"/><path d="M 148.93 208.5 A 14.89 14.89 0 0 1 163.82 223.39 L 148.93 223.39" fill="#77ccf5"/><rect x="163.82" y="208.5" width="14.89" height="14.89" fill="#4690b6"/><path d="M 163.82 223.39 A 14.89 14.89 0 0 1  178.70999999999998 208.5 L 178.70999999999998 223.39" fill="#3b83a9"/><rect x="148.93" y="223.39" width="14.89" height="14.89" fill="#b7ccd7"/><path d="M 148.93 238.27999999999997 A 14.89 14.89 0 0 0 163.82 223.39 L 148.93 223.39" fill="#4590b6"/><rect x="163.82" y="223.39" width="14.89" height="14.89" fill="#7cd1fa"/><path d="M 163.82 223.39 A 14.89 14.89 0 0 0 178.70999999999998 238.27999999999997 L 178.70999999999998 223.39" fill="#69bbe3"/><rect x="178.71" y="208.5" width="29.79" height="29.79" fill="#4f9cc3"/><polygon points="178.71,208.5 208.5,208.5 208.5,238.29" fill="#eaf3f7"/><rect x="208.5" y="208.5" width="29.785714285714285" height="29.785714285714285" fill="#0c4a6e"/><rect x="208.5" y="208.5" width="14.89" height="14.89" fill="#65b6de"/><path d="M 208.5 223.39 A 14.89 14.89 0 0 1 223.39 208.5 L 223.39 212.2225 A 11.1675 11.1675 0 0 0 212.2225 223.39" fill="#bfd3dd"/><rect x="223.39" y="208.5" width="14.89" height="14.89" fill="#0f4c70"/><path d="M 223.39 208.5 A 14.89 14.89 0 0 1 238.27999999999997 223.39 L 234.55749999999998 223.39 A 11.1675 11.1675 0 0 0 223.39 212.2225" fill="#62b2da"/><rect x="208.5" y="223.39" width="14.89" height="14.89" fill="#125276"/><path d="M 208.5 223.39 A 14.89 14.89 0 0 0 223.39 238.27999999999997 L 223.39 234.55749999999998 A 11.1675 11.1675 0 0 1 212.2225 223.39" fill="#6cbfe7"/><rect x="223.39" y="223.39" width="14.89" height="14.89" fill="#0c4a6e"/><path d="M 223.39 238.27999999999997 A 14.89 14.89 0 0 0 238.27999999999997 223.39 L 234.55749999999998 223.39 A 11.1675 11.1675 0 0 1 223.39 234.55749999999998" fill="#357ca2"/><rect x="0" y="238.28571428571428" width="29.785714285714285" height="29.785714285714285" fill="#0c4a6e"/><rect x="0" y="238.29" width="14.89" height="14.89" fill="#3b83a9"/><polygon points="14.89,238.29 14.89,253.18 0,253.18" fill="#4792b8"/><rect x="14.89" y="238.29" width="14.89" height="14.89" fill="#155173"/><polygon points="14.89,238.29 29.78,253.18 14.89,253.18" fill="#a0bbca"/><rect x="0" y="253.18" width="14.89" height="14.89" fill="#b9ced9"/><polygon points="0,253.18 14.89,253.18 0,268.07" fill="#326786"/><rect x="14.89" y="253.18" width="14.89" height="14.89" fill="#8faebf"/><polygon points="14.89,253.18 29.78,253.18 29.78,268.07" fill="#1f587a"/><rect x="29.79" y="238.29" width="29.79" height="29.79" fill="#78cdf6"/><polygon points="29.79,238.29 59.58,268.08 29.79,268.08" fill="#65b6de"/><rect x="59.57142857142857" y="238.28571428571428" width="29.785714285714285" height="29.785714285714285" fill="#0c4a6e"/><rect x="59.57" y="238.29" width="14.89" height="14.89" fill="#d2e1e8"/><polygon points="74.46000000000001,238.29 74.46000000000001,253.18 59.57,253.18" fill="#33799e"/><rect x="74.46" y="238.29" width="14.89" height="14.89" fill="#70c3ec"/><polygon points="74.46,238.29 89.35,253.18 74.46,253.18" fill="#6dbfe7"/><rect x="59.57" y="253.18" width="14.89" height="14.89" fill="#3981a7"/><polygon points="59.57,253.18 74.46000000000001,253.18 59.57,268.07" fill="#32789e"/><rect x="74.46" y="253.18" width="14.89" height="14.89" fill="#76cbf4"/><polygon points="74.46,253.18 89.35,253.18 89.35,268.07" fill="#1d5f83"/><rect x="89.36" y="238.29" width="29.79" height="29.79" fill="#4089af"/><rect x="89.36" y="238.29" width="29.79" height="29.79" fill="#74c8f0"/><rect x="119.14285714285714" y="238.28571428571428" width="29.785714285714285" height="29.785714285714285" fill="#0c4a6e"/><rect x="119.14" y="238.29" width="14.89" height="14.89" fill="#347aa0"/><polygon points="134.03,238.29 134.03,253.18 119.14,253.18" fill="#1b5d81"/><rect x="134.04" y="238.29" width="14.89" height="14.89" fill="#cadbe3"/><polygon points="134.04,238.29 148.93,253.18 134.04,253.18" fill="#63b3db"/><rect x="119.14" y="253.18" width="14.89" height="14.89" fill="#6cbfe7"/><polygon points="119.14,253.18 134.03,253.18 134.03,268.07" fill="#61b1d9"/><rect x="134.04" y="253.18" width="14.89" height="14.89" fill="#17577c"/><polygon points="134.04,253.18 148.93,253.18 134.04,268.07" fill="#3a81a7"/><rect x="148.93" y="238.29" width="29.79" height="29.79" fill="#3e87ad"/><rect x="148.93" y="238.29" width="29.79" height="29.79" fill="#487793"/><rect x="178.71428571428572" y="238.28571428571428" width="29.785714285714285" height="29.785714285714285" fill="#0c4a6e"/><rect x="178.71" y="238.29" width="14.89" height="14.89" fill="#33799f"/><polygon points="193.60000000000002,238.29 193.60000000000002,253.18 178.71,253.18" fill="#347aa0"/><rect x="193.61" y="238.29" width="14.89" height="14.89" fill="#114e71"/><polygon points="193.61,238.29 208.5,253.18 193.61,253.18" fill="#3d86ac"/><rect x="178.71" y="253.18" width="14.89" height="14.89" fill="#54819b"/><polygon points="178.71,253.18 193.60000000000002,253.18 193.60000000000002,268.07" fill="#15557a"/><rect x="193.61" y="253.18" width="14.89" height="14.89" fill="#296d92"/><polygon points="193.61,253.18 208.5,253.18 193.61,268.07" fill="#2c6282"/><rect x="208.5" y="238.28571428571428" width="29.785714285714285" height="29.785714285714285" fill="#0c4a6e"/><rect x="208.5" y="238.29" width="14.89" height="14.89" fill="#3e87ad"/><path d="M 208.5 253.18 A 14.89 14.89 0 0 1 223.39 238.29 L 223.39 242.0125 A 11.1675 11.1675 0 0 0 212.2225 253.18" fill="#4e7c97"/><rect x="223.39" y="238.29" width="14.89" height="14.89" fill="#53a0c7"/><path d="M 223.39 238.29 A 14.89 14.89 0 0 1 238.27999999999997 253.18 L 234.55749999999998 253.18 A 11.1675 11.1675 0 0 0 223.39 242.0125" fill="#448eb5"/><rect x="208.5" y="253.18" width="14.89" height="14.89" fill="#648ea5"/><path d="M 208.5 253.18 A 14.89 14.89 0 0 0 223.39 268.07 L 223.39 264.3475 A 11.1675 11.1675 0 0 1 212.2225 253.18" fill="#4690b6"/><rect x="223.39" y="253.18" width="14.89" height="14.89" fill="#dfebf0"/><path d="M 223.39 268.07 A 14.89 14.89 0 0 0 238.27999999999997 253.18 L 234.55749999999998 253.18 A 11.1675 11.1675 0 0 1 223.39 264.3475" fill="#65b6de"/><rect x="0" y="268.07" width="29.79" height="29.79" fill="#62b3db"/><rect x="0" y="268.07" width="29.79" height="29.79" fill="#24678d"/><rect x="29.79" y="268.07" width="29.79" height="29.79" fill="#4c98be"/><polygon points="29.79,268.07 59.58,268.07 59.58,297.86" fill="#6bbde5"/><rect x="59.57142857142857" y="268.07142857142856" width="29.785714285714285" height="29.785714285714285" fill="#0c4a6e"/><rect x="59.57" y="268.07" width="14.89" height="14.89" fill="#73c7ef"/><path d="M 59.57 282.96 A 14.89 14.89 0 0 1 74.46000000000001 268.07 L 74.46000000000001 271.7925 A 11.1675 11.1675 0 0 0 63.292500000000004 282.96" fill="#80a3b6"/><rect x="74.46" y="268.07" width="14.89" height="14.89" fill="#6cbfe7"/><path d="M 74.46 268.07 A 14.89 14.89 0 0 1 89.35 282.96 L 85.6275 282.96 A 11.1675 11.1675 0 0 0 74.46 271.7925" fill="#215a7b"/><rect x="59.57" y="282.96" width="14.89" height="14.89" fill="#2d7297"/><path d="M 59.57 282.96 A 14.89 14.89 0 0 0 74.46000000000001 297.84999999999997 L 74.46000000000001 294.1275 A 11.1675 11.1675 0 0 1 63.292500000000004 282.96" fill="#195a7f"/><rect x="74.46" y="282.96" width="14.89" height="14.89" fill="#2e6483"/><path d="M 74.46 297.84999999999997 A 14.89 14.89 0 0 0 89.35 282.96 L 85.6275 282.96 A 11.1675 11.1675 0 0 1 74.46 294.1275" fill="#7cd1fa"/><rect x="89.35714285714286" y="268.07142857142856" width="29.785714285714285" height="29.785714285714285" fill="#0c4a6e"/><rect x="89.36" y="268.07" width="14.89" height="14.89" fill="#5fafd7"/><circle cx="96.805" cy="275.515" r="7.445" fill="#638ca4"/><rect x="104.25" y="268.07" width="14.89" height="14.89" fill="#3980a6"/><rect x="104.25" y="268.07" width="14.89" height="14.89" fill="#195a7e"/><rect x="89.36" y="282.96" width="14.89" height="14.89" fill="#6f96ab"/><circle cx="96.805" cy="290.405" r="7.445" fill="#1c5d82"/><rect x="104.25" y="282.96" width="14.89" height="14.89" fill="#2f749a"/><rect x="104.25" y="282.96" width="14.89" height="14.89" fill="#61b0d8"/><rect x="119.14285714285714" y="268.07142857142856" width="29.785714285714285" height="29.785714285714285" fill="#0c4a6e"/><rect x="119.14" y="268.07" width="14.89" height="14.89" fill="#1c5d82"/><circle cx="126.58500000000001" cy="275.515" r="7.445" fill="#0f4d71"/><rect x="134.04" y="268.07" width="14.89" height="14.89" fill="#93b1c1"/><rect x="134.04" y="268.07" width="14.89" height="14.89" fill="#edf6f9"/><rect x="119.14" y="282.96" width="14.89" height="14.89" fill="#31779d"/><circle cx="126.58500000000001" cy="290.405" r="7.445" fill="#265e7e"/><rect x="134.04" y="282.96" width="14.89" height="14.89" fill="#5cabd2"/><rect x="134.04" y="282.96" width="14.89" height="14.89" fill="#68b9e1"/><rect x="148.93" y="268.07" width="29.79" height="29.79" fill="#66b8e0"/><path d="M 148.93 297.86 A 29.79 29.79 0 0 0 178.72 268.07 L 148.93 268.07" fill="#93b1c2"/><rect x="178.71428571428572" y="268.07142857142856" width="29.785714285714285" height="29.785714285714285" fill="#0c4a6e"/><rect x="178.71" y="268.07" width="14.89" height="14.89" fill="#115074"/><polygon points="193.60000000000002,268.07 193.60000000000002,282.96 178.71,282.96" fill="#6cbfe7"/><rect x="193.61" y="268.07" width="14.89" height="14.89" fill="#8dadbe"/><polygon points="193.61,268.07 208.5,282.96 193.61,282.96" fill="#78cdf6"/><rect x="178.71" y="282.96" width="14.89" height="14.89" fill="#9db9c8"/><polygon points="178.71,282.96 193.60000000000002,282.96 178.71,297.84999999999997" fill="#266a8f"/><rect x="193.61" y="282.96" width="14.89" height="14.89" fill="#3a81a7"/><polygon points="193.61,282.96 208.5,282.96 208.5,297.84999999999997" fill="#9bb7c6"/><rect x="208.5" y="268.07" width="29.79" height="29.79" fill="#55829b"/><path d="M 208.5 297.86 A 29.79 29.79 0 0 0 238.29 268.07 L 208.5 268.07" fill="#2d7297"/><rect x="0" y="297.85714285714283" width="29.785714285714285" height="29.785714285714285" fill="#0c4a6e"/><rect x="0" y="297.86" width="14.89" height="14.89" fill="#428cb2"/><polygon points="14.89,297.86 14.89,312.75 0,312.75" fill="#0f4e72"/><rect x="14.89" y="297.86" width="14.89" height="14.89" fill="#82a4b7"/><polygon points="14.89,297.86 29.78,312.75 14.89,312.75" fill="#18597d"/><rect x="0" y="312.75" width="14.89" height="14.89" fill="#dde9ef"/><polygon points="0,312.75 14.89,312.75 14.89,327.64" fill="#0d4b6f"/><rect x="14.89" y="312.75" width="14.89" height="14.89" fill="#78ccf5"/><polygon points="14.89,312.75 29.78,312.75 14.89,327.64" fill="#296d92"/><rect x="29.785714285714285" y="297.85714285714283" width="29.785714285714285" height="29.785714285714285" fill="#0c4a6e"/><rect x="29.79" y="297.86" width="14.89" height="14.89" fill="#66b7df"/><polygon points="44.68,297.86 44.68,312.75 29.79,312.75" fill="#30759b"/><rect x="44.68" y="297.86" width="14.89" height="14.89" fill="#286c91"/><polygon points="44.68,297.86 59.57,312.75 44.68,312.75" fill="#458fb5"/><rect x="29.79" y="312.75" width="14.89" height="14.89" fill="#4b7a95"/><polygon points="29.79,312.75 44.68,312.75 44.68,327.64" fill="#7cd2fa"/><rect x="44.68" y="312.75" width="14.89" height="14.89" fill="#347ba1"/><polygon points="44.68,312.75 59.57,312.75 44.68,327.64" fill="#0d4c70"/><rect x="59.57142857142857" y="297.85714285714283" width="29.785714285714285" height="29.785714285714285" fill="#0c4a6e"/><rect x="59.57" y="297.86" width="14.89" height="14.89" fill="#0d4b6f"/><polygon points="74.46000000000001,297.86 74.46000000000001,312.75 59.57,312.75" fill="#76caf3"/><rect x="74.46" y="297.86" width="14.89" height="14.89" fill="#6ec1e9"/><polygon points="74.46,297.86 89.35,297.86 74.46,312.75" fill="#24678c"/><rect x="59.57" y="312.75" width="14.89" height="14.89" fill="#3b6e8b"/><polygon points="59.57,312.75 74.46000000000001,312.75 74.46000000000001,327.64" fill="#175375"/><rect x="74.46" y="312.75" width="14.89" height="14.89" fill="#30759b"/><polygon points="74.46,312.75 89.35,327.64 74.46,327.64" fill="#2e7398"/><rect x="89.35714285714286" y="297.85714285714283" width="29.785714285714285" height="29.785714285714285" fill="#0c4a6e"/><rect x="89.36" y="297.86" width="14.89" height="14.89" fill="#226489"/><polygon points="104.25,297.86 104.25,312.75 89.36,312.75" fill="#56829c"/><rect x="104.25" y="297.86" width="14.89" height="14.89" fill="#3980a6"/><polygon points="104.25,297.86 119.14,312.75 104.25,312.75" fill="#5fafd6"/><rect x="89.36" y="312.75" width="14.89" height="14.89" fill="#5a859e"/><polygon points="89.36,312.75 104.25,312.75 104.25,327.64" fill="#62b3db"/><rect x="104.25" y="312.75" width="14.89" height="14.89" fill="#6ec1ea"/><polygon points="104.25,312.75 119.14,312.75 104.25,327.64" fill="#145478"/><rect x="119.14" y="297.86" width="29.79" height="29.79" fill="#4b7a95"/><rect x="119.14" y="297.86" width="29.79" height="29.79" fill="#7bd1f9"/><rect x="148.92857142857142" y="297.85714285714283" width="29.785714285714285" height="29.785714285714285" fill="#0c4a6e"/><rect x="148.93" y="297.86" width="14.89" height="14.89" fill="#306684"/><polygon points="163.82,297.86 163.82,312.75 148.93,312.75" fill="#0f4d70"/><rect x="163.82" y="297.86" width="14.89" height="14.89" fill="#a0bbca"/><polygon points="163.82,297.86 178.70999999999998,312.75 163.82,312.75" fill="#7bd1fa"/><rect x="148.93" y="312.75" width="14.89" height="14.89" fill="#75c9f1"/><polygon points="148.93,312.75 163.82,312.75 148.93,327.64" fill="#266a8f"/><rect x="163.82" y="312.75" width="14.89" height="14.89" fill="#42738f"/><polygon points="163.82,312.75 178.70999999999998,312.75 178.70999999999998,327.64" fill="#5aa8d0"/><rect x="178.71" y="297.86" width="29.79" height="29.79" fill="#4791b8"/><rect x="178.71" y="297.86" width="29.79" height="29.79" fill="#366a88"/><rect x="208.5" y="297.85714285714283" width="29.785714285714285" height="29.785714285714285" fill="#0c4a6e"/><rect x="208.5" y="297.86" width="14.89" height="14.89" fill="#2c6282"/><polygon points="223.39,297.86 223.39,312.75 208.5,312.75" fill="#5dacd3"/><rect x="223.39" y="297.86" width="14.89" height="14.89" fill="#63b4dc"/><polygon points="223.39,297.86 238.27999999999997,312.75 223.39,312.75" fill="#216388"/><rect x="208.5" y="312.75" width="14.89" height="14.89" fill="#1b5c81"/><polygon points="208.5,312.75 223.39,312.75 208.5,327.64" fill="#316685"/><rect x="223.39" y="312.75" width="14.89" height="14.89" fill="#275e7e"/><polygon points="223.39,312.75 238.27999999999997,312.75 238.27999999999997,327.64" fill="#95b3c3"/><rect x="0" y="327.64" width="29.79" height="29.79" fill="#0f4e72"/><polygon points="0,327.64 29.79,327.64 0,357.43" fill="#367da3"/><rect x="29.79" y="327.64" width="29.79" height="29.79" fill="#4e7c97"/><path d="M 29.79 357.43 A 29.79 29.79 0 0 0 59.58 327.64 L 29.79 327.64" fill="#c6d8e1"/><rect x="59.57" y="327.64" width="29.79" height="29.79" fill="#79cef7"/><polygon points="59.57,327.64 89.36,357.43 59.57,357.43" fill="#377ea4"/><rect x="89.36" y="327.64" width="29.79" height="29.79" fill="#9bb7c6"/><rect x="89.36" y="327.64" width="29.79" height="29.79" fill="#a1bcca"/><rect x="119.14285714285714" y="327.6428571428571" width="29.785714285714285" height="29.785714285714285" fill="#0c4a6e"/><rect x="119.14" y="327.64" width="14.89" height="14.89" fill="#7bd1fa"/><path d="M 119.14 327.64 A 14.89 14.89 0 0 0 134.03 342.53 L 134.03 327.64" fill="#1f587a"/><rect x="134.04" y="327.64" width="14.89" height="14.89" fill="#5baad1"/><path d="M 134.04 342.53 A 14.89 14.89 0 0 0 148.93 327.64 L 134.04 327.64" fill="#185476"/><rect x="119.14" y="342.54" width="14.89" height="14.89" fill="#337aa0"/><path d="M 119.14 357.43 A 14.89 14.89 0 0 1  134.03 342.54 L 134.03 357.43" fill="#cbdce4"/><rect x="134.04" y="342.54" width="14.89" height="14.89" fill="#c5d7e0"/><path d="M 134.04 342.54 A 14.89 14.89 0 0 1 148.93 357.43 L 134.04 357.43" fill="#73c7ef"/><rect x="148.92857142857142" y="327.6428571428571" width="29.785714285714285" height="29.785714285714285" fill="#0c4a6e"/><rect x="148.93" y="327.64" width="14.89" height="14.89" fill="#3e87ad"/><polygon points="163.82,327.64 163.82,342.53 148.93,342.53" fill="#31779d"/><rect x="163.82" y="327.64" width="14.89" height="14.89" fill="#0c4a6e"/><polygon points="163.82,327.64 178.70999999999998,342.53 163.82,342.53" fill="#32799e"/><rect x="148.93" y="342.54" width="14.89" height="14.89" fill="#6bbde5"/><polygon points="148.93,342.54 163.82,342.54 148.93,357.43" fill="#56a4cb"/><rect x="163.82" y="342.54" width="14.89" height="14.89" fill="#4b97be"/><polygon points="163.82,342.54 178.70999999999998,342.54 178.70999999999998,357.43" fill="#5cabd2"/><rect x="178.71" y="327.64" width="29.79" height="29.79" fill="#ebf5f8"/><path d="M 178.71 357.43 A 29.79 29.79 0 0 0 208.5 327.64 L 178.71 327.64" fill="#70c4ec"/><rect x="208.5" y="327.6428571428571" width="29.785714285714285" height="29.785714285714285" fill="#0c4a6e"/><rect x="208.5" y="327.64" width="14.89" height="14.89" fill="#57839c"/><path d="M 208.5 342.53 A 14.89 14.89 0 0 1 223.39 327.64 L 223.39 331.3625 A 11.1675 11.1675 0 0 0 212.2225 342.53" fill="#6cbfe7"/><rect x="223.39" y="327.64" width="14.89" height="14.89" fill="#24678c"/><path d="M 223.39 327.64 A 14.89 14.89 0 0 1 238.27999999999997 342.53 L 234.55749999999998 342.53 A 11.1675 11.1675 0 0 0 223.39 331.3625" fill="#6dbfe8"/><rect x="208.5" y="342.54" width="14.89" height="14.89" fill="#0c4a6e"/><path d="M 208.5 342.54 A 14.89 14.89 0 0 0 223.39 357.43 L 223.39 353.70750000000004 A 11.1675 11.1675 0 0 1 212.2225 342.54" fill="#69bae2"/><rect x="223.39" y="342.54" width="14.89" height="14.89" fill="#104f73"/><path d="M 223.39 357.43 A 14.89 14.89 0 0 0 238.27999999999997 342.54 L 234.55749999999998 342.54 A 11.1675 11.1675 0 0 1 223.39 353.70750000000004" fill="#418ab0"/><rect x="0" y="357.42857142857144" width="29.785714285714285" height="29.785714285714285" fill="#0c4a6e"/><rect x="0" y="357.43" width="14.89" height="14.89" fill="#2c6282"/><path d="M 0 372.32 A 14.89 14.89 0 0 1  14.89 357.43 L 14.89 372.32" fill="#357ca2"/><rect x="14.89" y="357.43" width="14.89" height="14.89" fill="#74c8f1"/><path d="M 14.89 357.43 A 14.89 14.89 0 0 1 29.78 372.32 L 14.89 372.32" fill="#215a7b"/><rect x="0" y="372.32" width="14.89" height="14.89" fill="#4b7a95"/><path d="M 0 372.32 A 14.89 14.89 0 0 0 14.89 387.21 L 14.89 372.32" fill="#467692"/><rect x="14.89" y="372.32" width="14.89" height="14.89" fill="#356a88"/><path d="M 14.89 387.21 A 14.89 14.89 0 0 0 29.78 372.32 L 14.89 372.32" fill="#1c5d82"/><rect x="29.785714285714285" y="357.42857142857144" width="29.785714285714285" height="29.785714285714285" fill="#0c4a6e"/><rect x="29.79" y="357.43" width="14.89" height="14.89" fill="#519ec5"/><path d="M 29.79 372.32 A 14.89 14.89 0 0 1  44.68 357.43 L 44.68 372.32" fill="#2b7095"/><rect x="44.68" y="357.43" width="14.89" height="14.89" fill="#4994ba"/><path d="M 44.68 357.43 A 14.89 14.89 0 0 1 59.57 372.32 L 44.68 372.32" fill="#2c7197"/><rect x="29.79" y="372.32" width="14.89" height="14.89" fill="#2c7197"/><path d="M 29.79 372.32 A 14.89 14.89 0 0 0 44.68 387.21 L 44.68 372.32" fill="#d6e4eb"/><rect x="44.68" y="372.32" width="14.89" height="14.89" fill="#3c84aa"/><path d="M 44.68 387.21 A 14.89 14.89 0 0 0 59.57 372.32 L 44.68 372.32" fill="#96b3c3"/><rect x="59.57" y="357.43" width="29.79" height="29.79" fill="#a4becc"/><path d="M 59.57 387.22 A 29.79 29.79 0 0 0 89.36 357.43 L 59.57 357.43" fill="#337a9f"/><rect x="89.36" y="357.43" width="29.79" height="29.79" fill="#6cbfe7"/><path d="M 89.36 357.43 A 29.79 29.79 0 0 1  119.15 387.22 L 89.36 357.43 A 29.79 29.79 0 0 0 119.15 387.22" fill="#346887"/><rect x="119.14285714285714" y="357.42857142857144" width="29.785714285714285" height="29.785714285714285" fill="#0c4a6e"/><rect x="119.14" y="357.43" width="14.89" height="14.89" fill="#519ec5"/><path d="M 119.14 372.32 A 14.89 14.89 0 0 0 134.03 357.43 L 119.14 357.43" fill="#396d8a"/><rect x="134.04" y="357.43" width="14.89" height="14.89" fill="#62b2da"/><path d="M 134.04 357.43 A 14.89 14.89 0 0 0 148.93 372.32 L 148.93 357.43" fill="#63b4dc"/><rect x="119.14" y="372.32" width="14.89" height="14.89" fill="#a2bdcb"/><path d="M 119.14 372.32 A 14.89 14.89 0 0 1 134.03 387.21 L 119.14 387.21" fill="#2d7298"/><rect x="134.04" y="372.32" width="14.89" height="14.89" fill="#72c5ee"/><path d="M 134.04 387.21 A 14.89 14.89 0 0 1  148.93 372.32 L 148.93 387.21" fill="#73c7f0"/><rect x="148.92857142857142" y="357.42857142857144" width="29.785714285714285" height="29.785714285714285" fill="#0c4a6e"/><rect x="148.93" y="357.43" width="14.89" height="14.89" fill="#6cbee6"/><path d="M 148.93 357.43 A 14.89 14.89 0 0 0 163.82 372.32 L 163.82 357.43" fill="#56a4cb"/><rect x="163.82" y="357.43" width="14.89" height="14.89" fill="#387fa5"/><path d="M 163.82 372.32 A 14.89 14.89 0 0 0 178.70999999999998 357.43 L 163.82 357.43" fill="#276b90"/><rect x="148.93" y="372.32" width="14.89" height="14.89" fill="#145479"/><path d="M 148.93 387.21 A 14.89 14.89 0 0 1  163.82 372.32 L 163.82 387.21" fill="#1f597a"/><rect x="163.82" y="372.32" width="14.89" height="14.89" fill="#497994"/><path d="M 163.82 372.32 A 14.89 14.89 0 0 1 178.70999999999998 387.21 L 163.82 387.21" fill="#3f88ae"/><rect x="178.71428571428572" y="357.42857142857144" width="29.785714285714285" height="29.785714285714285" fill="#0c4a6e"/><rect x="178.71" y="357.43" width="14.89" height="14.89" fill="#387fa5"/><path d="M 178.71 357.43 A 14.89 14.89 0 0 0 193.60000000000002 372.32 L 193.60000000000002 357.43" fill="#62b3db"/><rect x="193.61" y="357.43" width="14.89" height="14.89" fill="#448eb4"/><path d="M 193.61 372.32 A 14.89 14.89 0 0 0 208.5 357.43 L 193.61 357.43" fill="#66b7df"/><rect x="178.71" y="372.32" width="14.89" height="14.89" fill="#65b6dd"/><path d="M 178.71 387.21 A 14.89 14.89 0 0 1  193.60000000000002 372.32 L 193.60000000000002 387.21" fill="#5cabd3"/><rect x="193.61" y="372.32" width="14.89" height="14.89" fill="#2d7297"/><path d="M 193.61 372.32 A 14.89 14.89 0 0 1 208.5 387.21 L 193.61 387.21" fill="#16567a"/><rect x="208.5" y="357.42857142857144" width="29.785714285714285" height="29.785714285714285" fill="#0c4a6e"/><rect x="208.5" y="357.43" width="14.89" height="14.89" fill="#104d71"/><path d="M 208.5 372.32 A 14.89 14.89 0 0 0 223.39 357.43 L 208.5 357.43" fill="#56839c"/><rect x="223.39" y="357.43" width="14.89" height="14.89" fill="#83a5b7"/><path d="M 223.39 357.43 A 14.89 14.89 0 0 0 238.27999999999997 372.32 L 238.27999999999997 357.43" fill="#55a2ca"/><rect x="208.5" y="372.32" width="14.89" height="14.89" fill="#2d7398"/><path d="M 208.5 372.32 A 14.89 14.89 0 0 1 223.39 387.21 L 208.5 387.21" fill="#72c6ee"/><rect x="223.39" y="372.32" width="14.89" height="14.89" fill="#76caf3"/><path d="M 223.39 387.21 A 14.89 14.89 0 0 1  238.27999999999997 372.32 L 238.27999999999997 387.21" fill="#357ca2"/><rect x="0" y="387.2142857142857" width="29.785714285714285" height="29.785714285714285" fill="#0c4a6e"/><rect x="0" y="387.21" width="14.89" height="14.89" fill="#5aa9d1"/><path d="M 0 387.21 A 14.89 14.89 0 0 1 14.89 402.09999999999997 L 0 402.09999999999997" fill="#e5f0f4"/><rect x="14.89" y="387.21" width="14.89" height="14.89" fill="#b1c8d4"/><path d="M 14.89 402.09999999999997 A 14.89 14.89 0 0 1  29.78 387.21 L 29.78 402.09999999999997" fill="#618ba2"/><rect x="0" y="402.11" width="14.89" height="14.89" fill="#31779d"/><path d="M 0 417 A 14.89 14.89 0 0 0 14.89 402.11 L 0 402.11" fill="#86a7b9"/><rect x="14.89" y="402.11" width="14.89" height="14.89" fill="#206287"/><path d="M 14.89 402.11 A 14.89 14.89 0 0 0 29.78 417 L 29.78 402.11" fill="#85a7b9"/><rect x="29.79" y="387.21" width="29.79" height="29.79" fill="#31779c"/><rect x="29.79" y="387.21" width="29.79" height="29.79" fill="#448eb5"/><rect x="59.57142857142857" y="387.2142857142857" width="29.785714285714285" height="29.785714285714285" fill="#0c4a6e"/><rect x="59.57" y="387.21" width="14.89" height="14.89" fill="#1b5c81"/><path d="M 59.57 402.09999999999997 A 14.89 14.89 0 0 1 74.46000000000001 387.21 L 74.46000000000001 390.9325 A 11.1675 11.1675 0 0 0 63.292500000000004 402.09999999999997" fill="#4690b7"/><rect x="74.46" y="387.21" width="14.89" height="14.89" fill="#7dd3fc"/><path d="M 74.46 387.21 A 14.89 14.89 0 0 1 89.35 402.09999999999997 L 85.6275 402.09999999999997 A 11.1675 11.1675 0 0 0 74.46 390.9325" fill="#23668b"/><rect x="59.57" y="402.11" width="14.89" height="14.89" fill="#67b8e0"/><path d="M 59.57 402.11 A 14.89 14.89 0 0 0 74.46000000000001 417 L 74.46000000000001 413.27750000000003 A 11.1675 11.1675 0 0 1 63.292500000000004 402.11" fill="#dae7ed"/><rect x="74.46" y="402.11" width="14.89" height="14.89" fill="#367da3"/><path d="M 74.46 417 A 14.89 14.89 0 0 0 89.35 402.11 L 85.6275 402.11 A 11.1675 11.1675 0 0 1 74.46 413.27750000000003" fill="#16567b"/><rect x="89.35714285714286" y="387.2142857142857" width="29.785714285714285" height="29.785714285714285" fill="#0c4a6e"/><rect x="89.36" y="387.21" width="14.89" height="14.89" fill="#74c8f0"/><path d="M 89.36 402.09999999999997 A 14.89 14.89 0 0 0 104.25 387.21 L 89.36 387.21" fill="#69bbe3"/><rect x="104.25" y="387.21" width="14.89" height="14.89" fill="#55a3ca"/><path d="M 104.25 387.21 A 14.89 14.89 0 0 0 119.14 402.09999999999997 L 119.14 387.21" fill="#296d93"/><rect x="89.36" y="402.11" width="14.89" height="14.89" fill="#336886"/><path d="M 89.36 402.11 A 14.89 14.89 0 0 1 104.25 417 L 89.36 417" fill="#78cef6"/><rect x="104.25" y="402.11" width="14.89" height="14.89" fill="#8cacbd"/><path d="M 104.25 417 A 14.89 14.89 0 0 1  119.14 402.11 L 119.14 417" fill="#93b1c1"/><rect x="119.14285714285714" y="387.2142857142857" width="29.785714285714285" height="29.785714285714285" fill="#0c4a6e"/><rect x="119.14" y="387.21" width="14.89" height="14.89" fill="#3b83a9"/><path d="M 119.14 402.09999999999997 A 14.89 14.89 0 0 1 134.03 387.21 L 134.03 390.9325 A 11.1675 11.1675 0 0 0 122.8625 402.09999999999997" fill="#e6f0f5"/><rect x="134.04" y="387.21" width="14.89" height="14.89" fill="#59a7ce"/><path d="M 134.04 387.21 A 14.89 14.89 0 0 1 148.93 402.09999999999997 L 145.20749999999998 402.09999999999997 A 11.1675 11.1675 0 0 0 134.04 390.9325" fill="#76cbf3"/><rect x="119.14" y="402.11" width="14.89" height="14.89" fill="#357ca2"/><path d="M 119.14 402.11 A 14.89 14.89 0 0 0 134.03 417 L 134.03 413.27750000000003 A 11.1675 11.1675 0 0 1 122.8625 402.11" fill="#4a96bc"/><rect x="134.04" y="402.11" width="14.89" height="14.89" fill="#d6e4eb"/><path d="M 134.04 417 A 14.89 14.89 0 0 0 148.93 402.11 L 145.20749999999998 402.11 A 11.1675 11.1675 0 0 1 134.04 413.27750000000003" fill="#56a4cb"/><rect x="148.92857142857142" y="387.2142857142857" width="29.785714285714285" height="29.785714285714285" fill="#0c4a6e"/><rect x="148.93" y="387.21" width="14.89" height="14.89" fill="#61b1d9"/><path d="M 148.93 387.21 A 14.89 14.89 0 0 0 163.82 402.09999999999997 L 163.82 387.21" fill="#65b5dd"/><rect x="163.82" y="387.21" width="14.89" height="14.89" fill="#135377"/><path d="M 163.82 402.09999999999997 A 14.89 14.89 0 0 0 178.70999999999998 387.21 L 163.82 387.21" fill="#2b7095"/><rect x="148.93" y="402.11" width="14.89" height="14.89" fill="#e8f2f6"/><path d="M 148.93 417 A 14.89 14.89 0 0 1  163.82 402.11 L 163.82 417" fill="#ccdde5"/><rect x="163.82" y="402.11" width="14.89" height="14.89" fill="#3e708d"/><path d="M 163.82 402.11 A 14.89 14.89 0 0 1 178.70999999999998 417 L 163.82 417" fill="#2c7096"/><rect x="178.71428571428572" y="387.2142857142857" width="29.785714285714285" height="29.785714285714285" fill="#0c4a6e"/><rect x="178.71" y="387.21" width="14.89" height="14.89" fill="#115075"/><polygon points="193.60000000000002,387.21 193.60000000000002,402.09999999999997 178.71,402.09999999999997" fill="#75c9f1"/><rect x="193.61" y="387.21" width="14.89" height="14.89" fill="#7ca0b3"/><polygon points="193.61,387.21 208.5,402.09999999999997 193.61,402.09999999999997" fill="#3980a6"/><rect x="178.71" y="402.11" width="14.89" height="14.89" fill="#7da0b4"/><polygon points="178.71,402.11 193.60000000000002,402.11 193.60000000000002,417" fill="#266a8f"/><rect x="193.61" y="402.11" width="14.89" height="14.89" fill="#3980a6"/><polygon points="193.61,402.11 208.5,402.11 193.61,417" fill="#cbdce4"/><rect x="208.5" y="387.2142857142857" width="29.785714285714285" height="29.785714285714285" fill="#0c4a6e"/><rect x="208.5" y="387.21" width="14.89" height="14.89" fill="#24678c"/><path d="M 208.5 387.21 A 14.89 14.89 0 0 1 223.39 402.09999999999997 L 208.5 402.09999999999997" fill="#519ec5"/><rect x="223.39" y="387.21" width="14.89" height="14.89" fill="#4b97bd"/><path d="M 223.39 402.09999999999997 A 14.89 14.89 0 0 1  238.27999999999997 387.21 L 238.27999999999997 402.09999999999997" fill="#ecf5f8"/><rect x="208.5" y="402.11" width="14.89" height="14.89" fill="#e2edf2"/><path d="M 208.5 417 A 14.89 14.89 0 0 0 223.39 402.11 L 208.5 402.11" fill="#24678c"/><rect x="223.39" y="402.11" width="14.89" height="14.89" fill="#acc4d1"/><path d="M 223.39 402.11 A 14.89 14.89 0 0 0 238.27999999999997 417 L 238.27999999999997 402.11" fill="#65b6de"/></g></svg>