<?xml version="1.0" standalone="no"?><svg xmlns:xlink="http://www.w3.org/1999/xlink" xmlns="http://www.w3.org/2000/svg" viewBox="0 0 1000 1750.0346229871452" preserveAspectRatio="xMaxYMax slice"><g transform="scale(4.196725714597471)"><rect x="0" y="0" width="238.28571428571428" height="417" fill="#0c4a6e"/><rect x="0" y="0" width="29.79" height="29.79" fill="#0d7fb5"/><rect x="0" y="0" width="29.79" height="29.79" fill="#387fa5"/><rect x="29.785714285714285" y="0" width="29.785714285714285" height="29.785714285714285" fill="#0c4a6e"/><rect x="29.79" y="0" width="14.89" height="14.89" fill="#448db4"/><polygon points="44.68,0 44.68,14.89 29.79,14.89" fill="#1c5d82"/><rect x="44.68" y="0" width="14.89" height="14.89" fill="#57a5cc"/><polygon points="44.68,0 59.57,14.89 44.68,14.89" fill="#6abce4"/><rect x="29.79" y="14.89" width="14.89" height="14.89" fill="#0e96d4"/><polygon points="29.79,14.89 44.68,14.89 29.79,29.78" fill="#347aa0"/><rect x="44.68" y="14.89" width="14.89" height="14.89" fill="#0d7db3"/><polygon points="44.68,14.89 59.57,14.89 59.57,29.78" fill="#6abce4"/><rect x="59.57" y="0" width="29.79" height="29.79" fill="#4089b0"/><polygon points="89.36,0 89.36,29.79 59.57,29.79" fill="#22658a"/><rect x="89.35714285714286" y="0" width="29.785714285714285" height="29.785714285714285" fill="#0c4a6e"/><rect x="89.36" y="0" width="14.89" height="14.89" fill="#195a7f"/><polygon points="104.25,0 104.25,14.89 89.36,14.89" fill="#25688d"/><rect x="104.25" y="0" width="14.89" height="14.89" fill="#65b6de"/><polygon points="104.25,0 119.14,14.89 104.25,14.89" fill="#0d7fb5"/><rect x="89.36" y="14.89" width="14.89" height="14.89" fill="#4b97bd"/><polygon points="89.36,14.89 104.25,14.89 89.36,29.78" fill="#0e9fe2"/><rect x="104.25" y="14.89" width="14.89" height="14.89" fill="#125176"/><polygon points="104.25,14.89 119.14,14.89 119.14,29.78" fill="#0ea2e5"/><rect x="119.14285714285714" y="0" width="29.785714285714285" height="29.785714285714285" fill="#0c4a6e"/><rect x="119.14" y="0" width="14.89" height="14.89" fill="#0c5983"/><circle cx="126.58500000000001" cy="7.445" r="7.445" fill="#72c6ee"/><rect x="134.04" y="0" width="14.89" height="14.89" fill="#75caf3"/><rect x="134.04" y="0" width="14.89" height="14.89" fill="#2e7499"/><rect x="119.14" y="14.89" width="14.89" height="14.89" fill="#0c577f"/><circle cx="126.58500000000001" cy="22.335" r="7.445" fill="#2d7297"/><rect x="134.04" y="14.89" width="14.89" height="14.89" fill="#1a5a7f"/><rect x="134.04" y="14.89" width="14.89" height="14.89" fill="#0d6b9b"/><rect x="148.92857142857142" y="0" width="29.785714285714285" height="29.785714285714285" fill="#0c4a6e"/><rect x="148.93" y="0" width="14.89" height="14.89" fill="#62b3da"/><polygon points="163.82,0 163.82,14.89 148.93,14.89" fill="#0d6795"/><rect x="163.82" y="0" width="14.89" height="14.89" fill="#66b7df"/><polygon points="163.82,0 178.70999999999998,14.89 163.82,14.89" fill="#70c3ec"/><rect x="148.93" y="14.89" width="14.89" height="14.89" fill="#6cbee7"/><polygon points="148.93,14.89 163.82,14.89 163.82,29.78" fill="#0d6390"/><rect x="163.82" y="14.89" width="14.89" height="14.89" fill="#65b6de"/><polygon points="163.82,14.89 178.70999999999998,14.89 163.82,29.78" fill="#0c5077"/><rect x="178.71" y="0" width="29.79" height="29.79" fill="#54a1c8"/><polygon points="178.71,0 208.5,0 178.71,29.79" fill="#0d79ad"/><rect x="208.5" y="0" width="29.785714285714285" height="29.785714285714285" fill="#0c4a6e"/><rect x="208.5" y="0" width="14.89" height="14.89" fill="#0d8dc8"/><path d="M 208.5 14.89 A 14.89 14.89 0 0 1 223.39 0 L 223.39 3.7225 A 11.1675 11.1675 0 0 0 212.2225 14.89" fill="#64b4dc"/><rect x="223.39" y="0" width="14.89" height="14.89" fill="#296d93"/><path d="M 223.39 0 A 14.89 14.89 0 0 1 238.27999999999997 14.89 L 234.55749999999998 14.89 A 11.1675 11.1675 0 0 0 223.39 3.7225" fill="#0d88c2"/><rect x="208.5" y="14.89" width="14.89" height="14.89" fill="#0d7cb2"/><path d="M 208.5 14.89 A 14.89 14.89 0 0 0 223.39 29.78 L 223.39 26.0575 A 11.1675 11.1675 0 0 1 212.2225 14.89" fill="#76cbf4"/><rect x="223.39" y="14.89" width="14.89" height="14.89" fill="#61b0d8"/><path d="M 223.39 29.78 A 14.89 14.89 0 0 0 238.27999999999997 14.89 L 234.55749999999998 14.89 A 11.1675 11.1675 0 0 1 223.39 26.0575" fill="#72c6ef"/><rect x="0" y="29.79" width="29.79" height="29.79" fill="#0d88c1"/><rect x="0" y="29.79" width="29.79" height="29.79" fill="#2c7096"/><rect x="29.785714285714285" y="29.785714285714285" width="29.785714285714285" height="29.785714285714285" fill="#0c4a6e"/><rect x="29.79" y="29.79" width="14.89" height="14.89" fill="#377fa5"/><circle cx="37.235" cy="37.235" r="7.445" fill="#6bbde6"/><rect x="44.68" y="29.79" width="14.89" height="14.89" fill="#6dbfe8"/><rect x="44.68" y="29.79" width="14.89" height="14.89" fill="#0d7db3"/><rect x="29.79" y="44.68" width="14.89" height="14.89" fill="#25698e"/><circle cx="37.235" cy="52.125" r="7.445" fill="#0d6b9a"/><rect x="44.68" y="44.68" width="14.89" height="14.89" fill="#68b9e1"/><rect x="44.68" y="44.68" width="14.89" height="14.89" fill="#66b7df"/><rect x="59.57" y="29.79" width="29.79" height="29.79" fill="#4690b6"/><path d="M 59.57 29.79 A 29.79 29.79 0 0 1  89.36 59.58 L 59.57 29.79 A 29.79 29.79 0 0 0 89.36 59.58" fill="#458fb6"/><rect x="89.35714285714286" y="29.785714285714285" width="29.785714285714285" height="29.785714285714285" fill="#0c4a6e"/><rect x="89.36" y="29.79" width="14.89" height="14.89" fill="#59a7ce"/><polygon points="104.25,29.79 104.25,44.68 89.36,44.68" fill="#0e90cd"/><rect x="104.25" y="29.79" width="14.89" height="14.89" fill="#0d7db3"/><polygon points="104.25,29.79 119.14,29.79 104.25,44.68" fill="#1b5d81"/><rect x="89.36" y="44.68" width="14.89" height="14.89" fill="#0d6998"/><polygon points="89.36,44.68 104.25,44.68 104.25,59.57" fill="#0e9bdc"/><rect x="104.25" y="44.68" width="14.89" height="14.89" fill="#0c5d87"/><polygon points="104.25,44.68 119.14,59.57 104.25,59.57" fill="#5aa9d0"/><rect x="119.14285714285714" y="29.785714285714285" width="29.785714285714285" height="29.785714285714285" fill="#0c4a6e"/><rect x="119.14" y="29.79" width="14.89" height="14.89" fill="#0d6d9e"/><circle cx="126.58500000000001" cy="37.235" r="7.445" fill="#19597e"/><rect x="134.04" y="29.79" width="14.89" height="14.89" fill="#7cd2fb"/><rect x="134.04" y="29.79" width="14.89" height="14.89" fill="#5dacd4"/><rect x="119.14" y="44.68" width="14.89" height="14.89" fill="#0c5b85"/><circle cx="126.58500000000001" cy="52.125" r="7.445" fill="#18597d"/><rect x="134.04" y="44.68" width="14.89" height="14.89" fill="#2b6f94"/><rect x="134.04" y="44.68" width="14.89" height="14.89" fill="#448eb5"/><rect x="148.93" y="29.79" width="29.79" height="29.79" fill="#68bae2"/><rect x="148.93" y="29.79" width="29.79" height="29.79" fill="#0e4c70"/><rect x="178.71" y="29.79" width="29.79" height="29.79" fill="#60b0d7"/><path d="M 178.71 59.58 A 29.79 29.79 0 0 1  208.5 29.79 L 208.5 59.58" fill="#2f759b"/><rect x="208.5" y="29.79" width="29.79" height="29.79" fill="#0ea2e5"/><polygon points="208.5,29.79 238.29,59.58 208.5,59.58" fill="#7bd0f9"/><rect x="0" y="59.57" width="29.79" height="29.79" fill="#75caf2"/><path d="M 0 59.57 A 29.79 29.79 0 0 1  29.79 89.36 L 0 59.57 A 29.79 29.79 0 0 0 29.79 89.36" fill="#428bb2"/><rect x="29.785714285714285" y="59.57142857142857" width="29.785714285714285" height="29.785714285714285" fill="#0c4a6e"/><rect x="29.79" y="59.57" width="14.89" height="14.89" fill="#61b1d9"/><path d="M 29.79 59.57 A 14.89 14.89 0 0 1 44.68 74.46000000000001 L 29.79 74.46000000000001" fill="#6fc3eb"/><rect x="44.68" y="59.57" width="14.89" height="14.89" fill="#0d70a2"/><path d="M 44.68 74.46000000000001 A 14.89 14.89 0 0 1  59.57 59.57 L 59.57 74.46000000000001" fill="#72c5ee"/><rect x="29.79" y="74.46" width="14.89" height="14.89" fill="#79cef7"/><path d="M 29.79 89.35 A 14.89 14.89 0 0 0 44.68 74.46 L 29.79 74.46" fill="#448eb5"/><rect x="44.68" y="74.46" width="14.89" height="14.89" fill="#0d74a7"/><path d="M 44.68 74.46 A 14.89 14.89 0 0 0 59.57 89.35 L 59.57 74.46" fill="#0c5d87"/><rect x="59.57" y="59.57" width="29.79" height="29.79" fill="#0c577f"/><rect x="59.57" y="59.57" width="29.79" height="29.79" fill="#32799e"/><rect x="89.35714285714286" y="59.57142857142857" width="29.785714285714285" height="29.785714285714285" fill="#0c4a6e"/><rect x="89.36" y="59.57" width="14.89" height="14.89" fill="#0d74a7"/><polygon points="104.25,59.57 104.25,74.46000000000001 89.36,74.46000000000001" fill="#24678c"/><rect x="104.25" y="59.57" width="14.89" height="14.89" fill="#0d73a5"/><polygon points="104.25,59.57 119.14,74.46000000000001 104.25,74.46000000000001" fill="#509cc3"/><rect x="89.36" y="74.46" width="14.89" height="14.89" fill="#0e9bdc"/><polygon points="89.36,74.46 104.25,74.46 89.36,89.35" fill="#78cdf6"/><rect x="104.25" y="74.46" width="14.89" height="14.89" fill="#60b0d8"/><polygon points="104.25,74.46 119.14,74.46 119.14,89.35" fill="#0d7db3"/><rect x="119.14" y="59.57" width="29.79" height="29.79" fill="#31769c"/><rect x="119.14" y="59.57" width="29.79" height="29.79" fill="#33799f"/><rect x="148.93" y="59.57" width="29.79" height="29.79" fill="#0d81b8"/><polygon points="178.72,59.57 178.72,89.36 148.93,89.36" fill="#0d72a4"/><rect x="178.71" y="59.57" width="29.79" height="29.79" fill="#5eadd5"/><polygon points="178.71,59.57 208.5,89.36 178.71,89.36" fill="#155479"/><rect x="208.5" y="59.57142857142857" width="29.785714285714285" height="29.785714285714285" fill="#0c4a6e"/><rect x="208.5" y="59.57" width="14.89" height="14.89" fill="#6cbfe7"/><path d="M 208.5 74.46000000000001 A 14.89 14.89 0 0 1 223.39 59.57 L 223.39 63.292500000000004 A 11.1675 11.1675 0 0 0 212.2225 74.46000000000001" fill="#0d6c9c"/><rect x="223.39" y="59.57" width="14.89" height="14.89" fill="#0d7fb5"/><path d="M 223.39 59.57 A 14.89 14.89 0 0 1 238.27999999999997 74.46000000000001 L 234.55749999999998 74.46000000000001 A 11.1675 11.1675 0 0 0 223.39 63.292500000000004" fill="#3880a5"/><rect x="208.5" y="74.46" width="14.89" height="14.89" fill="#30769c"/><path d="M 208.5 74.46 A 14.89 14.89 0 0 0 223.39 89.35 L 223.39 85.6275 A 11.1675 11.1675 0 0 1 212.2225 74.46" fill="#0c5279"/><rect x="223.39" y="74.46" width="14.89" height="14.89" fill="#4690b7"/><path d="M 223.39 89.35 A 14.89 14.89 0 0 0 238.27999999999997 74.46 L 234.55749999999998 74.46 A 11.1675 11.1675 0 0 1 223.39 85.6275" fill="#115075"/><rect x="0" y="89.35714285714286" width="29.785714285714285" height="29.785714285714285" fill="#0c4a6e"/><rect x="0" y="89.36" width="14.89" height="14.89" fill="#0e92cf"/><path d="M 0 104.25 A 14.89 14.89 0 0 1  14.89 89.36 L 14.89 104.25" fill="#0e4d71"/><rect x="14.89" y="89.36" width="14.89" height="14.89" fill="#0d70a2"/><path d="M 14.89 89.36 A 14.89 14.89 0 0 1 29.78 104.25 L 14.89 104.25" fill="#125175"/><rect x="0" y="104.25" width="14.89" height="14.89" fill="#4c97be"/><path d="M 0 104.25 A 14.89 14.89 0 0 0 14.89 119.14 L 14.89 104.25" fill="#0c5d87"/><rect x="14.89" y="104.25" width="14.89" height="14.89" fill="#0f4e72"/><path d="M 14.89 119.14 A 14.89 14.89 0 0 0 29.78 104.25 L 14.89 104.25" fill="#0e9dde"/><rect x="29.79" y="89.36" width="29.79" height="29.79" fill="#3d85ab"/><rect x="29.79" y="89.36" width="29.79" height="29.79" fill="#7bd1fa"/><rect x="59.57" y="89.36" width="29.79" height="29.79" fill="#0e90cc"/><path d="M 59.57 119.15 A 29.79 29.79 0 0 1  89.36 89.36 L 89.36 119.15" fill="#0d84bc"/><rect x="89.36" y="89.36" width="29.79" height="29.79" fill="#73c7f0"/><rect x="89.36" y="89.36" width="29.79" height="29.79" fill="#155579"/><rect x="119.14285714285714" y="89.35714285714286" width="29.785714285714285" height="29.785714285714285" fill="#0c4a6e"/><rect x="119.14" y="89.36" width="14.89" height="14.89" fill="#72c6ef"/><polygon points="134.03,89.36 134.03,104.25 119.14,104.25" fill="#0c547b"/><rect x="134.04" y="89.36" width="14.89" height="14.89" fill="#0d82ba"/><polygon points="134.04,89.36 148.93,104.25 134.04,104.25" fill="#53a0c8"/><rect x="119.14" y="104.25" width="14.89" height="14.89" fill="#2e7399"/><polygon points="119.14,104.25 134.03,104.25 119.14,119.14" fill="#3a82a8"/><rect x="134.04" y="104.25" width="14.89" height="14.89" fill="#78cdf5"/><polygon points="134.04,104.25 148.93,104.25 148.93,119.14" fill="#0c5880"/><rect x="148.93" y="89.36" width="29.79" height="29.79" fill="#125175"/><polygon points="148.93,89.36 178.72,89.36 148.93,119.15" fill="#4b97be"/><rect x="178.71" y="89.36" width="29.79" height="29.79" fill="#0e98d7"/><path d="M 178.71 119.15 A 29.79 29.79 0 0 1  208.5 89.36 L 208.5 119.15" fill="#6fc2ea"/><rect x="208.5" y="89.36" width="29.79" height="29.79" fill="#26698f"/><path d="M 208.5 119.15 A 29.79 29.79 0 0 1  238.29 89.36 L 238.29 119.15" fill="#4893b9"/><rect x="0" y="119.14285714285714" width="29.785714285714285" height="29.785714285714285" fill="#0c4a6e"/><rect x="0" y="119.14" width="14.89" height="14.89" fill="#7cd2fb"/><polygon points="14.89,119.14 14.89,134.03 0,134.03" fill="#70c3eb"/><rect x="14.89" y="119.14" width="14.89" height="14.89" fill="#60b0d8"/><polygon points="14.89,119.14 29.78,134.03 14.89,134.03" fill="#1d5f83"/><rect x="0" y="134.04" width="14.89" height="14.89" fill="#4a95bc"/><polygon points="0,134.04 14.89,134.04 0,148.93" fill="#61b1d9"/><rect x="14.89" y="134.04" width="14.89" height="14.89" fill="#32789d"/><polygon points="14.89,134.04 29.78,134.04 29.78,148.93" fill="#4a95bb"/><rect x="29.785714285714285" y="119.14285714285714" width="29.785714285714285" height="29.785714285714285" fill="#0c4a6e"/><rect x="29.79" y="119.14" width="14.89" height="14.89" fill="#448eb4"/><path d="M 29.79 119.14 A 14.89 14.89 0 0 0 44.68 134.03 L 44.68 119.14" fill="#2b7095"/><rect x="44.68" y="119.14" width="14.89" height="14.89" fill="#62b2da"/><path d="M 44.68 134.03 A 14.89 14.89 0 0 0 59.57 119.14 L 44.68 119.14" fill="#76cbf4"/><rect x="29.79" y="134.04" width="14.89" height="14.89" fill="#22658a"/><path d="M 29.79 148.93 A 14.89 14.89 0 0 1  44.68 134.04 L 44.68 148.93" fill="#0c5780"/><rect x="44.68" y="134.04" width="14.89" height="14.89" fill="#6cbee7"/><path d="M 44.68 134.04 A 14.89 14.89 0 0 1 59.57 148.93 L 44.68 148.93" fill="#5eadd5"/><rect x="59.57" y="119.14" width="29.79" height="29.79" fill="#509dc4"/><path d="M 59.57 148.93 A 29.79 29.79 0 0 0 89.36 119.14 L 59.57 119.14" fill="#5baad2"/><rect x="89.36" y="119.14" width="29.79" height="29.79" fill="#0c537a"/><path d="M 89.36 119.14 A 29.79 29.79 0 0 0 119.15 148.93 L 119.15 119.14" fill="#0d6a9a"/><rect x="119.14285714285714" y="119.14285714285714" width="29.785714285714285" height="29.785714285714285" fill="#0c4a6e"/><rect x="119.14" y="119.14" width="14.89" height="14.89" fill="#0d79ad"/><path d="M 119.14 119.14 A 14.89 14.89 0 0 0 134.03 134.03 L 134.03 119.14" fill="#7dd3fc"/><rect x="134.04" y="119.14" width="14.89" height="14.89" fill="#3c84aa"/><path d="M 134.04 134.03 A 14.89 14.89 0 0 0 148.93 119.14 L 134.04 119.14" fill="#0d6998"/><rect x="119.14" y="134.04" width="14.89" height="14.89" fill="#4590b6"/><path d="M 119.14 148.93 A 14.89 14.89 0 0 1  134.03 134.04 L 134.03 148.93" fill="#65b6de"/><rect x="134.04" y="134.04" width="14.89" height="14.89" fill="#0d7aae"/><path d="M 134.04 134.04 A 14.89 14.89 0 0 1 148.93 148.93 L 134.04 148.93" fill="#0d79ad"/><rect x="148.92857142857142" y="119.14285714285714" width="29.785714285714285" height="29.785714285714285" fill="#0c4a6e"/><rect x="148.93" y="119.14" width="14.89" height="14.89" fill="#4b97be"/><circle cx="156.375" cy="126.58500000000001" r="7.445" fill="#0d6390"/><rect x="163.82" y="119.14" width="14.89" height="14.89" fill="#0c5077"/><rect x="163.82" y="119.14" width="14.89" height="14.89" fill="#0c5982"/><rect x="148.93" y="134.04" width="14.89" height="14.89" fill="#1c5d82"/><circle cx="156.375" cy="141.48499999999999" r="7.445" fill="#357ca2"/><rect x="163.82" y="134.04" width="14.89" height="14.89" fill="#0c4d73"/><rect x="163.82" y="134.04" width="14.89" height="14.89" fill="#63b3db"/><rect x="178.71" y="119.14" width="29.79" height="29.79" fill="#61b1d9"/><path d="M 178.71 148.93 A 29.79 29.79 0 0 0 208.5 119.14 L 178.71 119.14" fill="#5dadd4"/><rect x="208.5" y="119.14" width="29.79" height="29.79" fill="#69bbe3"/><polygon points="238.29,119.14 238.29,148.93 208.5,148.93" fill="#0d7fb6"/><rect x="0" y="148.92857142857142" width="29.785714285714285" height="29.785714285714285" fill="#0c4a6e"/><rect x="0" y="148.93" width="14.89" height="14.89" fill="#0c608c"/><polygon points="14.89,148.93 14.89,163.82 0,163.82" fill="#0e94d2"/><rect x="14.89" y="148.93" width="14.89" height="14.89" fill="#0d6e9e"/><polygon points="14.89,148.93 29.78,148.93 14.89,163.82" fill="#115074"/><rect x="0" y="163.82" width="14.89" height="14.89" fill="#0c4c71"/><polygon points="0,163.82 14.89,163.82 14.89,178.70999999999998" fill="#3f88ae"/><rect x="14.89" y="163.82" width="14.89" height="14.89" fill="#0c5780"/><polygon points="14.89,163.82 29.78,178.70999999999998 14.89,178.70999999999998" fill="#3e86ac"/><rect x="29.785714285714285" y="148.92857142857142" width="29.785714285714285" height="29.785714285714285" fill="#0c4a6e"/><rect x="29.79" y="148.93" width="14.89" height="14.89" fill="#0c4e73"/><polygon points="44.68,148.93 44.68,163.82 29.79,163.82" fill="#0e94d2"/><rect x="44.68" y="148.93" width="14.89" height="14.89" fill="#0d628e"/><polygon points="44.68,148.93 59.57,163.82 44.68,163.82" fill="#0d83bb"/><rect x="29.79" y="163.82" width="14.89" height="14.89" fill="#0e99d9"/><polygon points="29.79,163.82 44.68,163.82 44.68,178.70999999999998" fill="#145478"/><rect x="44.68" y="163.82" width="14.89" height="14.89" fill="#206287"/><polygon points="44.68,163.82 59.57,163.82 44.68,178.70999999999998" fill="#32789e"/><rect x="59.57" y="148.93" width="29.79" height="29.79" fill="#0d75a8"/><polygon points="59.57,148.93 89.36,148.93 89.36,178.72" fill="#57a5cc"/><rect x="89.35714285714286" y="148.92857142857142" width="29.785714285714285" height="29.785714285714285" fill="#0c4a6e"/><rect x="89.36" y="148.93" width="14.89" height="14.89" fill="#6dc0e8"/><polygon points="104.25,148.93 104.25,163.82 89.36,163.82" fill="#428bb1"/><rect x="104.25" y="148.93" width="14.89" height="14.89" fill="#33799f"/><polygon points="104.25,148.93 119.14,163.82 104.25,163.82" fill="#0c547b"/><rect x="89.36" y="163.82" width="14.89" height="14.89" fill="#0c5076"/><polygon points="89.36,163.82 104.25,163.82 89.36,178.70999999999998" fill="#448eb4"/><rect x="104.25" y="163.82" width="14.89" height="14.89" fill="#3a82a8"/><polygon points="104.25,163.82 119.14,163.82 119.14,178.70999999999998" fill="#0d7cb2"/><rect x="119.14285714285714" y="148.92857142857142" width="29.785714285714285" height="29.785714285714285" fill="#0c4a6e"/><rect x="119.14" y="148.93" width="14.89" height="14.89" fill="#7acff8"/><path d="M 119.14 163.82 A 14.89 14.89 0 0 1  134.03 148.93 L 134.03 163.82" fill="#0d6fa0"/><rect x="134.04" y="148.93" width="14.89" height="14.89" fill="#0e94d2"/><path d="M 134.04 148.93 A 14.89 14.89 0 0 1 148.93 163.82 L 134.04 163.82" fill="#76cbf4"/><rect x="119.14" y="163.82" width="14.89" height="14.89" fill="#79cef7"/><path d="M 119.14 163.82 A 14.89 14.89 0 0 0 134.03 178.70999999999998 L 134.03 163.82" fill="#58a6cd"/><rect x="134.04" y="163.82" width="14.89" height="14.89" fill="#2a6f94"/><path d="M 134.04 178.70999999999998 A 14.89 14.89 0 0 0 148.93 163.82 L 134.04 163.82" fill="#71c5ed"/><rect x="148.92857142857142" y="148.92857142857142" width="29.785714285714285" height="29.785714285714285" fill="#0c4a6e"/><rect x="148.93" y="148.93" width="14.89" height="14.89" fill="#276b91"/><path d="M 148.93 148.93 A 14.89 14.89 0 0 1 163.82 163.82 L 148.93 163.82" fill="#0d6a99"/><rect x="163.82" y="148.93" width="14.89" height="14.89" fill="#216388"/><path d="M 163.82 163.82 A 14.89 14.89 0 0 1  178.70999999999998 148.93 L 178.70999999999998 163.82" fill="#0d83bc"/><rect x="148.93" y="163.82" width="14.89" height="14.89" fill="#5baad2"/><path d="M 148.93 178.70999999999998 A 14.89 14.89 0 0 0 163.82 163.82 L 148.93 163.82" fill="#67b8e0"/><rect x="163.82" y="163.82" width="14.89" height="14.89" fill="#0e9ada"/><path d="M 163.82 163.82 A 14.89 14.89 0 0 0 178.70999999999998 178.70999999999998 L 178.70999999999998 163.82" fill="#3c84aa"/><rect x="178.71428571428572" y="148.92857142857142" width="29.785714285714285" height="29.785714285714285" fill="#0c4a6e"/><rect x="178.71" y="148.93" width="14.89" height="14.89" fill="#0d8cc8"/><path d="M 178.71 163.82 A 14.89 14.89 0 0 1 193.60000000000002 148.93 L 193.60000000000002 152.6525 A 11.1675 11.1675 0 0 0 182.4325 163.82" fill="#337a9f"/><rect x="193.61" y="148.93" width="14.89" height="14.89" fill="#0d86bf"/><path d="M 193.61 148.93 A 14.89 14.89 0 0 1 208.5 163.82 L 204.7775 163.82 A 11.1675 11.1675 0 0 0 193.61 152.6525" fill="#1a5b7f"/><rect x="178.71" y="163.82" width="14.89" height="14.89" fill="#3f87ae"/><path d="M 178.71 163.82 A 14.89 14.89 0 0 0 193.60000000000002 178.70999999999998 L 193.60000000000002 174.98749999999998 A 11.1675 11.1675 0 0 1 182.4325 163.82" fill="#0d6896"/><rect x="193.61" y="163.82" width="14.89" height="14.89" fill="#0e92cf"/><path d="M 193.61 178.70999999999998 A 14.89 14.89 0 0 0 208.5 163.82 L 204.7775 163.82 A 11.1675 11.1675 0 0 1 193.61 174.98749999999998" fill="#0c5a83"/><rect x="208.5" y="148.92857142857142" width="29.785714285714285" height="29.785714285714285" fill="#0c4a6e"/><rect x="208.5" y="148.93" width="14.89" height="14.89" fill="#0e92cf"/><path d="M 208.5 148.93 A 14.89 14.89 0 0 0 223.39 163.82 L 223.39 148.93" fill="#3f88af"/><rect x="223.39" y="148.93" width="14.89" height="14.89" fill="#64b5dd"/><path d="M 223.39 163.82 A 14.89 14.89 0 0 0 238.27999999999997 148.93 L 223.39 148.93" fill="#16567a"/><rect x="208.5" y="163.82" width="14.89" height="14.89" fill="#0d81b8"/><path d="M 208.5 178.70999999999998 A 14.89 14.89 0 0 1  223.39 163.82 L 223.39 178.70999999999998" fill="#0d8dc8"/><rect x="223.39" y="163.82" width="14.89" height="14.89" fill="#296e93"/><path d="M 223.39 163.82 A 14.89 14.89 0 0 1 238.27999999999997 178.70999999999998 L 223.39 178.70999999999998" fill="#145478"/><rect x="0" y="178.71428571428572" width="29.785714285714285" height="29.785714285714285" fill="#0c4a6e"/><rect x="0" y="178.71" width="14.89" height="14.89" fill="#3d85ab"/><path d="M 0 193.60000000000002 A 14.89 14.89 0 0 1 14.89 178.71 L 14.89 182.4325 A 11.1675 11.1675 0 0 0 3.7225 193.60000000000002" fill="#0d7bb0"/><rect x="14.89" y="178.71" width="14.89" height="14.89" fill="#4a95bc"/><path d="M 14.89 178.71 A 14.89 14.89 0 0 1 29.78 193.60000000000002 L 26.0575 193.60000000000002 A 11.1675 11.1675 0 0 0 14.89 182.4325" fill="#216489"/><rect x="0" y="193.61" width="14.89" height="14.89" fill="#24678d"/><path d="M 0 193.61 A 14.89 14.89 0 0 0 14.89 208.5 L 14.89 204.7775 A 11.1675 11.1675 0 0 1 3.7225 193.61" fill="#367da2"/><rect x="14.89" y="193.61" width="14.89" height="14.89" fill="#0d8dc8"/><path d="M 14.89 208.5 A 14.89 14.89 0 0 0 29.78 193.61 L 26.0575 193.61 A 11.1675 11.1675 0 0 1 14.89 204.7775" fill="#0e4c70"/><rect x="29.79" y="178.71" width="29.79" height="29.79" fill="#0ea4e8"/><rect x="29.79" y="178.71" width="29.79" height="29.79" fill="#286d92"/><rect x="59.57142857142857" y="178.71428571428572" width="29.785714285714285" height="29.785714285714285" fill="#0c4a6e"/><rect x="59.57" y="178.71" width="14.89" height="14.89" fill="#67b9e1"/><polygon points="74.46000000000001,178.71 74.46000000000001,193.60000000000002 59.57,193.60000000000002" fill="#418bb1"/><rect x="74.46" y="178.71" width="14.89" height="14.89" fill="#4893ba"/><polygon points="74.46,178.71 89.35,193.60000000000002 74.46,193.60000000000002" fill="#0c4c71"/><rect x="59.57" y="193.61" width="14.89" height="14.89" fill="#0c4a6e"/><polygon points="59.57,193.61 74.46000000000001,193.61 74.46000000000001,208.5" fill="#0d86bf"/><rect x="74.46" y="193.61" width="14.89" height="14.89" fill="#0c5076"/><polygon points="74.46,193.61 89.35,193.61 74.46,208.5" fill="#529fc6"/><rect x="89.36" y="178.71" width="29.79" height="29.79" fill="#0d71a2"/><path d="M 89.36 208.5 A 29.79 29.79 0 0 1  119.15 178.71 L 89.36 208.5 A 29.79 29.79 0 0 0 119.15 178.71" fill="#64b4dc"/><rect x="119.14" y="178.71" width="29.79" height="29.79" fill="#135276"/><polygon points="119.14,178.71 148.93,178.71 148.93,208.5" fill="#276a90"/><rect x="148.93" y="178.71" width="29.79" height="29.79" fill="#438cb3"/><path d="M 148.93 208.5 A 29.79 29.79 0 0 1  178.72 178.71 L 178.72 208.5" fill="#0e93d1"/><rect x="178.71" y="178.71" width="29.79" height="29.79" fill="#64b4dc"/><path d="M 178.71 178.71 A 29.79 29.79 0 0 0 208.5 208.5 L 208.5 178.71" fill="#0d6fa0"/><rect x="208.5" y="178.71428571428572" width="29.785714285714285" height="29.785714285714285" fill="#0c4a6e"/><rect x="208.5" y="178.71" width="14.89" height="14.89" fill="#104f73"/><circle cx="215.945" cy="186.155" r="7.445" fill="#216489"/><rect x="223.39" y="178.71" width="14.89" height="14.89" fill="#31779d"/><rect x="223.39" y="178.71" width="14.89" height="14.89" fill="#0c557d"/><rect x="208.5" y="193.61" width="14.89" height="14.89" fill="#458fb6"/><circle cx="215.945" cy="201.055" r="7.445" fill="#0d86c0"/><rect x="223.39" y="193.61" width="14.89" height="14.89" fill="#0c5279"/><rect x="223.39" y="193.61" width="14.89" height="14.89" fill="#4b96bd"/><rect x="0" y="208.5" width="29.785714285714285" height="29.785714285714285" fill="#0c4a6e"/><rect x="0" y="208.5" width="14.89" height="14.89" fill="#448eb5"/><path d="M 0 223.39 A 14.89 14.89 0 0 1 14.89 208.5 L 14.89 212.2225 A 11.1675 11.1675 0 0 0 3.7225 223.39" fill="#0d7cb1"/><rect x="14.89" y="208.5" width="14.89" height="14.89" fill="#2f749a"/><path d="M 14.89 208.5 A 14.89 14.89 0 0 1 29.78 223.39 L 26.0575 223.39 A 11.1675 11.1675 0 0 0 14.89 212.2225" fill="#367da3"/><rect x="0" y="223.39" width="14.89" height="14.89" fill="#0d77ab"/><path d="M 0 223.39 A 14.89 14.89 0 0 0 14.89 238.27999999999997 L 14.89 234.55749999999998 A 11.1675 11.1675 0 0 1 3.7225 223.39" fill="#0e95d3"/><rect x="14.89" y="223.39" width="14.89" height="14.89" fill="#54a2c9"/><path d="M 14.89 238.27999999999997 A 14.89 14.89 0 0 0 29.78 223.39 L 26.0575 223.39 A 11.1675 11.1675 0 0 1 14.89 234.55749999999998" fill="#5baad1"/><rect x="29.785714285714285" y="208.5" width="29.785714285714285" height="29.785714285714285" fill="#0c4a6e"/><rect x="29.79" y="208.5" width="14.89" height="14.89" fill="#0c4a6e"/><path d="M 29.79 223.39 A 14.89 14.89 0 0 1  44.68 208.5 L 44.68 223.39" fill="#0d73a6"/><rect x="44.68" y="208.5" width="14.89" height="14.89" fill="#529fc6"/><path d="M 44.68 208.5 A 14.89 14.89 0 0 1 59.57 223.39 L 44.68 223.39" fill="#0c4b6f"/><rect x="29.79" y="223.39" width="14.89" height="14.89" fill="#357ca2"/><path d="M 29.79 223.39 A 14.89 14.89 0 0 0 44.68 238.27999999999997 L 44.68 223.39" fill="#6abce4"/><rect x="44.68" y="223.39" width="14.89" height="14.89" fill="#7bd0f9"/><path d="M 44.68 238.27999999999997 A 14.89 14.89 0 0 0 59.57 223.39 L 44.68 223.39" fill="#16567a"/><rect x="59.57" y="208.5" width="29.79" height="29.79" fill="#0d7cb1"/><rect x="59.57" y="208.5" width="29.79" height="29.79" fill="#5eadd5"/><rect x="89.36" y="208.5" width="29.79" height="29.79" fill="#6ec1e9"/><rect x="89.36" y="208.5" width="29.79" height="29.79" fill="#0d88c1"/><rect x="119.14" y="208.5" width="29.79" height="29.79" fill="#3d85ab"/><polygon points="119.14,208.5 148.93,208.5 119.14,238.29" fill="#0e4c70"/><rect x="148.92857142857142" y="208.5" width="29.785714285714285" height="29.785714285714285" fill="#0c4a6e"/><rect x="148.93" y="208.5" width="14.89" height="14.89" fill="#135276"/><path d="M 148.93 223.39 A 14.89 14.89 0 0 1  163.82 208.5 L 163.82 223.39" fill="#0ea0e2"/><rect x="163.82" y="208.5" width="14.89" height="14.89" fill="#0ea3e7"/><path d="M 163.82 208.5 A 14.89 14.89 0 0 1 178.70999999999998 223.39 L 163.82 223.39" fill="#6bbde5"/><rect x="148.93" y="223.39" width="14.89" height="14.89" fill="#0d7fb6"/><path d="M 148.93 223.39 A 14.89 14.89 0 0 0 163.82 238.27999999999997 L 163.82 223.39" fill="#53a0c7"/><rect x="163.82" y="223.39" width="14.89" height="14.89" fill="#71c5ed"/><path d="M 163.82 238.27999999999997 A 14.89 14.89 0 0 0 178.70999999999998 223.39 L 163.82 223.39" fill="#4e9ac1"/><rect x="178.71428571428572" y="208.5" width="29.785714285714285" height="29.785714285714285" fill="#0c4a6e"/><rect x="178.71" y="208.5" width="14.89" height="14.89" fill="#0d6998"/><polygon points="193.60000000000002,208.5 193.60000000000002,223.39 178.71,223.39" fill="#0d74a7"/><rect x="193.61" y="208.5" width="14.89" height="14.89" fill="#2b7095"/><polygon points="193.61,208.5 208.5,223.39 193.61,223.39" fill="#5eaed5"/><rect x="178.71" y="223.39" width="14.89" height="14.89" fill="#54a1c8"/><polygon points="178.71,223.39 193.60000000000002,223.39 178.71,238.27999999999997" fill="#296d93"/><rect x="193.61" y="223.39" width="14.89" height="14.89" fill="#0e93d1"/><polygon points="193.61,223.39 208.5,223.39 208.5,238.27999999999997" fill="#0c5c87"/><rect x="208.5" y="208.5" width="29.785714285714285" height="29.785714285714285" fill="#0c4a6e"/><rect x="208.5" y="208.5" width="14.89" height="14.89" fill="#206287"/><path d="M 208.5 223.39 A 14.89 14.89 0 0 1  223.39 208.5 L 223.39 223.39" fill="#70c4ec"/><rect x="223.39" y="208.5" width="14.89" height="14.89" fill="#0c5d88"/><path d="M 223.39 208.5 A 14.89 14.89 0 0 1 238.27999999999997 223.39 L 223.39 223.39" fill="#68bae2"/><rect x="208.5" y="223.39" width="14.89" height="14.89" fill="#226489"/><path d="M 208.5 223.39 A 14.89 14.89 0 0 0 223.39 238.27999999999997 L 223.39 223.39" fill="#458fb6"/><rect x="223.39" y="223.39" width="14.89" height="14.89" fill="#104f74"/><path d="M 223.39 238.27999999999997 A 14.89 14.89 0 0 0 238.27999999999997 223.39 L 223.39 223.39" fill="#377ea4"/><rect x="0" y="238.29" width="29.79" height="29.79" fill="#70c3eb"/><path d="M 0 238.29 A 29.79 29.79 0 0 0 29.79 268.08 L 29.79 238.29" fill="#70c3eb"/><rect x="29.79" y="238.29" width="29.79" height="29.79" fill="#4089af"/><rect x="29.79" y="238.29" width="29.79" height="29.79" fill="#0e95d3"/><rect x="59.57" y="238.29" width="29.79" height="29.79" fill="#5fafd7"/><polygon points="89.36,238.29 89.36,268.08 59.57,268.08" fill="#23668b"/><rect x="89.35714285714286" y="238.28571428571428" width="29.785714285714285" height="29.785714285714285" fill="#0c4a6e"/><rect x="89.36" y="238.29" width="14.89" height="14.89" fill="#3981a7"/><path d="M 89.36 238.29 A 14.89 14.89 0 0 1 104.25 253.18 L 89.36 253.18" fill="#276b90"/><rect x="104.25" y="238.29" width="14.89" height="14.89" fill="#2c7196"/><path d="M 104.25 253.18 A 14.89 14.89 0 0 1  119.14 238.29 L 119.14 253.18" fill="#57a5cc"/><rect x="89.36" y="253.18" width="14.89" height="14.89" fill="#59a7cf"/><path d="M 89.36 268.07 A 14.89 14.89 0 0 0 104.25 253.18 L 89.36 253.18" fill="#6abce4"/><rect x="104.25" y="253.18" width="14.89" height="14.89" fill="#62b2da"/><path d="M 104.25 253.18 A 14.89 14.89 0 0 0 119.14 268.07 L 119.14 253.18" fill="#0d6795"/><rect x="119.14" y="238.29" width="29.79" height="29.79" fill="#4690b7"/><rect x="119.14" y="238.29" width="29.79" height="29.79" fill="#63b4dc"/><rect x="148.93" y="238.29" width="29.79" height="29.79" fill="#2b6f94"/><rect x="148.93" y="238.29" width="29.79" height="29.79" fill="#2e7499"/><rect x="178.71428571428572" y="238.28571428571428" width="29.785714285714285" height="29.785714285714285" fill="#0c4a6e"/><rect x="178.71" y="238.29" width="14.89" height="14.89" fill="#0f4d72"/><circle cx="186.155" cy="245.73499999999999" r="7.445" fill="#347aa0"/><rect x="193.61" y="238.29" width="14.89" height="14.89" fill="#70c3eb"/><rect x="193.61" y="238.29" width="14.89" height="14.89" fill="#3f88ae"/><rect x="178.71" y="253.18" width="14.89" height="14.89" fill="#0c5279"/><circle cx="186.155" cy="260.625" r="7.445" fill="#115074"/><rect x="193.61" y="253.18" width="14.89" height="14.89" fill="#0c5a83"/><rect x="193.61" y="253.18" width="14.89" height="14.89" fill="#69bbe3"/><rect x="208.5" y="238.29" width="29.79" height="29.79" fill="#0c4c71"/><path d="M 208.5 268.08 A 29.79 29.79 0 0 1  238.29 238.29 L 238.29 268.08" fill="#1d5e83"/><rect x="0" y="268.07142857142856" width="29.785714285714285" height="29.785714285714285" fill="#0c4a6e"/><rect x="0" y="268.07" width="14.89" height="14.89" fill="#22658a"/><path d="M 0 268.07 A 14.89 14.89 0 0 0 14.89 282.96 L 14.89 268.07" fill="#1e5f84"/><rect x="14.89" y="268.07" width="14.89" height="14.89" fill="#155579"/><path d="M 14.89 282.96 A 14.89 14.89 0 0 0 29.78 268.07 L 14.89 268.07" fill="#0d79ad"/><rect x="0" y="282.96" width="14.89" height="14.89" fill="#6abbe4"/><path d="M 0 297.84999999999997 A 14.89 14.89 0 0 1  14.89 282.96 L 14.89 297.84999999999997" fill="#0e98d7"/><rect x="14.89" y="282.96" width="14.89" height="14.89" fill="#65b5dd"/><path d="M 14.89 282.96 A 14.89 14.89 0 0 1 29.78 297.84999999999997 L 14.89 297.84999999999997" fill="#65b6de"/><rect x="29.79" y="268.07" width="29.79" height="29.79" fill="#4e9ac1"/><path d="M 29.79 268.07 A 29.79 29.79 0 0 1  59.58 297.86 L 29.79 268.07 A 29.79 29.79 0 0 0 59.58 297.86" fill="#0c4f75"/><rect x="59.57142857142857" y="268.07142857142856" width="29.785714285714285" height="29.785714285714285" fill="#0c4a6e"/><rect x="59.57" y="268.07" width="14.89" height="14.89" fill="#30769b"/><polygon points="74.46000000000001,268.07 74.46000000000001,282.96 59.57,282.96" fill="#5aa9d0"/><rect x="74.46" y="268.07" width="14.89" height="14.89" fill="#0d72a4"/><polygon points="74.46,268.07 89.35,268.07 74.46,282.96" fill="#4089af"/><rect x="59.57" y="282.96" width="14.89" height="14.89" fill="#104f73"/><polygon points="59.57,282.96 74.46000000000001,282.96 74.46000000000001,297.84999999999997" fill="#0c547b"/><rect x="74.46" y="282.96" width="14.89" height="14.89" fill="#0d7aae"/><polygon points="74.46,282.96 89.35,297.84999999999997 74.46,297.84999999999997" fill="#155479"/><rect x="89.36" y="268.07" width="29.79" height="29.79" fill="#0d6796"/><polygon points="89.36,268.07 119.15,268.07 119.15,297.86" fill="#1c5d82"/><rect x="119.14" y="268.07" width="29.79" height="29.79" fill="#67b9e1"/><polygon points="148.93,268.07 148.93,297.86 119.14,297.86" fill="#0d6fa0"/><rect x="148.92857142857142" y="268.07142857142856" width="29.785714285714285" height="29.785714285714285" fill="#0c4a6e"/><rect x="148.93" y="268.07" width="14.89" height="14.89" fill="#0d6593"/><path d="M 148.93 268.07 A 14.89 14.89 0 0 1 163.82 282.96 L 148.93 282.96" fill="#3b82a9"/><rect x="163.82" y="268.07" width="14.89" height="14.89" fill="#2c7096"/><path d="M 163.82 282.96 A 14.89 14.89 0 0 1  178.70999999999998 268.07 L 178.70999999999998 282.96" fill="#0d72a4"/><rect x="148.93" y="282.96" width="14.89" height="14.89" fill="#65b6de"/><path d="M 148.93 297.84999999999997 A 14.89 14.89 0 0 0 163.82 282.96 L 148.93 282.96" fill="#3a82a8"/><rect x="163.82" y="282.96" width="14.89" height="14.89" fill="#4e9ac1"/><path d="M 163.82 282.96 A 14.89 14.89 0 0 0 178.70999999999998 297.84999999999997 L 178.70999999999998 282.96" fill="#6bbde5"/><rect x="178.71428571428572" y="268.07142857142856" width="29.785714285714285" height="29.785714285714285" fill="#0c4a6e"/><rect x="178.71" y="268.07" width="14.89" height="14.89" fill="#0d72a4"/><polygon points="193.60000000000002,268.07 193.60000000000002,282.96 178.71,282.96" fill="#286c91"/><rect x="193.61" y="268.07" width="14.89" height="14.89" fill="#7acff8"/><polygon points="193.61,268.07 208.5,282.96 193.61,282.96" fill="#3c84aa"/><rect x="178.71" y="282.96" width="14.89" height="14.89" fill="#76caf3"/><polygon points="178.71,282.96 193.60000000000002,282.96 193.60000000000002,297.84999999999997" fill="#33799f"/><rect x="193.61" y="282.96" width="14.89" height="14.89" fill="#65b5dd"/><polygon points="193.61,282.96 208.5,282.96 193.61,297.84999999999997" fill="#0d8cc7"/><rect x="208.5" y="268.07" width="29.79" height="29.79" fill="#0f4d71"/><path d="M 208.5 268.07 A 29.79 29.79 0 0 1  238.29 297.86 L 208.5 268.07 A 29.79 29.79 0 0 0 238.29 297.86" fill="#64b5dd"/><rect x="0" y="297.86" width="29.79" height="29.79" fill="#0d8eca"/><rect x="0" y="297.86" width="29.79" height="29.79" fill="#7bd1fa"/><rect x="29.79" y="297.86" width="29.79" height="29.79" fill="#0d87c1"/><rect x="29.79" y="297.86" width="29.79" height="29.79" fill="#0e90cc"/><rect x="59.57142857142857" y="297.85714285714283" width="29.785714285714285" height="29.785714285714285" fill="#0c4a6e"/><rect x="59.57" y="297.86" width="14.89" height="14.89" fill="#16567a"/><polygon points="74.46000000000001,297.86 74.46000000000001,312.75 59.57,312.75" fill="#57a6cd"/><rect x="74.46" y="297.86" width="14.89" height="14.89" fill="#529fc6"/><polygon points="74.46,297.86 89.35,297.86 74.46,312.75" fill="#0c577f"/><rect x="59.57" y="312.75" width="14.89" height="14.89" fill="#2c7196"/><polygon points="59.57,312.75 74.46000000000001,312.75 74.46000000000001,327.64" fill="#0d7bb1"/><rect x="74.46" y="312.75" width="14.89" height="14.89" fill="#0e91ce"/><polygon points="74.46,312.75 89.35,327.64 74.46,327.64" fill="#0e9ee0"/><rect x="89.35714285714286" y="297.85714285714283" width="29.785714285714285" height="29.785714285714285" fill="#0c4a6e"/><rect x="89.36" y="297.86" width="14.89" height="14.89" fill="#24678c"/><path d="M 89.36 312.75 A 14.89 14.89 0 0 1  104.25 297.86 L 104.25 312.75" fill="#0d6694"/><rect x="104.25" y="297.86" width="14.89" height="14.89" fill="#5aa8d0"/><path d="M 104.25 297.86 A 14.89 14.89 0 0 1 119.14 312.75 L 104.25 312.75" fill="#67b8e0"/><rect x="89.36" y="312.75" width="14.89" height="14.89" fill="#0c5178"/><path d="M 89.36 312.75 A 14.89 14.89 0 0 0 104.25 327.64 L 104.25 312.75" fill="#75c9f2"/><rect x="104.25" y="312.75" width="14.89" height="14.89" fill="#3a82a8"/><path d="M 104.25 327.64 A 14.89 14.89 0 0 0 119.14 312.75 L 104.25 312.75" fill="#2f749a"/><rect x="119.14" y="297.86" width="29.79" height="29.79" fill="#59a7cf"/><rect x="119.14" y="297.86" width="29.79" height="29.79" fill="#74c8f1"/><rect x="148.92857142857142" y="297.85714285714283" width="29.785714285714285" height="29.785714285714285" fill="#0c4a6e"/><rect x="148.93" y="297.86" width="14.89" height="14.89" fill="#31769c"/><path d="M 148.93 312.75 A 14.89 14.89 0 0 1 163.82 297.86 L 163.82 301.58250000000004 A 11.1675 11.1675 0 0 0 152.6525 312.75" fill="#448eb4"/><rect x="163.82" y="297.86" width="14.89" height="14.89" fill="#0e4c70"/><path d="M 163.82 297.86 A 14.89 14.89 0 0 1 178.70999999999998 312.75 L 174.98749999999998 312.75 A 11.1675 11.1675 0 0 0 163.82 301.58250000000004" fill="#0e9edf"/><rect x="148.93" y="312.75" width="14.89" height="14.89" fill="#0e90cc"/><path d="M 148.93 312.75 A 14.89 14.89 0 0 0 163.82 327.64 L 163.82 323.9175 A 11.1675 11.1675 0 0 1 152.6525 312.75" fill="#7bd1fa"/><rect x="163.82" y="312.75" width="14.89" height="14.89" fill="#74c8f1"/><path d="M 163.82 327.64 A 14.89 14.89 0 0 0 178.70999999999998 312.75 L 174.98749999999998 312.75 A 11.1675 11.1675 0 0 1 163.82 323.9175" fill="#71c5ed"/><rect x="178.71" y="297.86" width="29.79" height="29.79" fill="#3d85ab"/><polygon points="178.71,297.86 208.5,327.65000000000003 178.71,327.65000000000003" fill="#3a82a8"/><rect x="208.5" y="297.86" width="29.79" height="29.79" fill="#0d80b7"/><polygon points="208.5,297.86 238.29,297.86 208.5,327.65000000000003" fill="#0d79ad"/><rect x="0" y="327.6428571428571" width="29.785714285714285" height="29.785714285714285" fill="#0c4a6e"/><rect x="0" y="327.64" width="14.89" height="14.89" fill="#64b5dd"/><circle cx="7.445" cy="335.085" r="7.445" fill="#2a6e93"/><rect x="14.89" y="327.64" width="14.89" height="14.89" fill="#0c4d72"/><rect x="14.89" y="327.64" width="14.89" height="14.89" fill="#0d8ac4"/><rect x="0" y="342.54" width="14.89" height="14.89" fill="#0c5a84"/><circle cx="7.445" cy="349.985" r="7.445" fill="#71c5ee"/><rect x="14.89" y="342.54" width="14.89" height="14.89" fill="#71c5ed"/><rect x="14.89" y="342.54" width="14.89" height="14.89" fill="#70c3eb"/><rect x="29.785714285714285" y="327.6428571428571" width="29.785714285714285" height="29.785714285714285" fill="#0c4a6e"/><rect x="29.79" y="327.64" width="14.89" height="14.89" fill="#73c7f0"/><polygon points="44.68,327.64 44.68,342.53 29.79,342.53" fill="#79cef7"/><rect x="44.68" y="327.64" width="14.89" height="14.89" fill="#0e99d9"/><polygon points="44.68,327.64 59.57,342.53 44.68,342.53" fill="#5baad2"/><rect x="29.79" y="342.54" width="14.89" height="14.89" fill="#0c5f8b"/><polygon points="29.79,342.54 44.68,342.54 29.79,357.43" fill="#418ab1"/><rect x="44.68" y="342.54" width="14.89" height="14.89" fill="#69bbe3"/><polygon points="44.68,342.54 59.57,342.54 59.57,357.43" fill="#60b0d8"/><rect x="59.57" y="327.64" width="29.79" height="29.79" fill="#0d6b9b"/><rect x="59.57" y="327.64" width="29.79" height="29.79" fill="#6abde5"/><rect x="89.35714285714286" y="327.6428571428571" width="29.785714285714285" height="29.785714285714285" fill="#0c4a6e"/><rect x="89.36" y="327.64" width="14.89" height="14.89" fill="#24678c"/><polygon points="104.25,327.64 104.25,342.53 89.36,342.53" fill="#0e8fcb"/><rect x="104.25" y="327.64" width="14.89" height="14.89" fill="#1d5f84"/><polygon points="104.25,327.64 119.14,342.53 104.25,342.53" fill="#4e9ac1"/><rect x="89.36" y="342.54" width="14.89" height="14.89" fill="#2b7095"/><polygon points="89.36,342.54 104.25,342.54 89.36,357.43" fill="#24678c"/><rect x="104.25" y="342.54" width="14.89" height="14.89" fill="#286d92"/><polygon points="104.25,342.54 119.14,342.54 119.14,357.43" fill="#71c4ed"/><rect x="119.14" y="327.64" width="29.79" height="29.79" fill="#0d80b7"/><polygon points="119.14,327.64 148.93,357.43 119.14,357.43" fill="#0d88c2"/><rect x="148.93" y="327.64" width="29.79" height="29.79" fill="#0d8ac4"/><rect x="148.93" y="327.64" width="29.79" height="29.79" fill="#0d6a9a"/><rect x="178.71" y="327.64" width="29.79" height="29.79" fill="#67b8e0"/><rect x="178.71" y="327.64" width="29.79" height="29.79" fill="#418ab1"/><rect x="208.5" y="327.6428571428571" width="29.785714285714285" height="29.785714285714285" fill="#0c4a6e"/><rect x="208.5" y="327.64" width="14.89" height="14.89" fill="#5dadd4"/><path d="M 208.5 342.53 A 14.89 14.89 0 0 0 223.39 327.64 L 208.5 327.64" fill="#0d80b6"/><rect x="223.39" y="327.64" width="14.89" height="14.89" fill="#69bae2"/><path d="M 223.39 327.64 A 14.89 14.89 0 0 0 238.27999999999997 342.53 L 238.27999999999997 327.64" fill="#0d89c3"/><rect x="208.5" y="342.54" width="14.89" height="14.89" fill="#0d87c0"/><path d="M 208.5 342.54 A 14.89 14.89 0 0 1 223.39 357.43 L 208.5 357.43" fill="#0d7cb1"/><rect x="223.39" y="342.54" width="14.89" height="14.89" fill="#0d7cb2"/><path d="M 223.39 357.43 A 14.89 14.89 0 0 1  238.27999999999997 342.54 L 238.27999999999997 357.43" fill="#0c567f"/><rect x="0" y="357.42857142857144" width="29.785714285714285" height="29.785714285714285" fill="#0c4a6e"/><rect x="0" y="357.43" width="14.89" height="14.89" fill="#428cb2"/><polygon points="14.89,357.43 14.89,372.32 0,372.32" fill="#2f7499"/><rect x="14.89" y="357.43" width="14.89" height="14.89" fill="#72c6ee"/><polygon points="14.89,357.43 29.78,372.32 14.89,372.32" fill="#1a5b80"/><rect x="0" y="372.32" width="14.89" height="14.89" fill="#0c5d88"/><polygon points="0,372.32 14.89,372.32 14.89,387.21" fill="#74c8f1"/><rect x="14.89" y="372.32" width="14.89" height="14.89" fill="#0d86bf"/><polygon points="14.89,372.32 29.78,372.32 14.89,387.21" fill="#0d6f9f"/><rect x="29.79" y="357.43" width="29.79" height="29.79" fill="#428bb2"/><path d="M 29.79 357.43 A 29.79 29.79 0 0 1 59.58 387.22 L 29.79 387.22" fill="#67b9e1"/><rect x="59.57142857142857" y="357.42857142857144" width="29.785714285714285" height="29.785714285714285" fill="#0c4a6e"/><rect x="59.57" y="357.43" width="14.89" height="14.89" fill="#4c98be"/><path d="M 59.57 372.32 A 14.89 14.89 0 0 0 74.46000000000001 357.43 L 59.57 357.43" fill="#74c8f0"/><rect x="74.46" y="357.43" width="14.89" height="14.89" fill="#0c577f"/><path d="M 74.46 357.43 A 14.89 14.89 0 0 0 89.35 372.32 L 89.35 357.43" fill="#0c5278"/><rect x="59.57" y="372.32" width="14.89" height="14.89" fill="#0d6693"/><path d="M 59.57 372.32 A 14.89 14.89 0 0 1 74.46000000000001 387.21 L 59.57 387.21" fill="#4791b8"/><rect x="74.46" y="372.32" width="14.89" height="14.89" fill="#0c547c"/><path d="M 74.46 387.21 A 14.89 14.89 0 0 1  89.35 372.32 L 89.35 387.21" fill="#69bbe3"/><rect x="89.35714285714286" y="357.42857142857144" width="29.785714285714285" height="29.785714285714285" fill="#0c4a6e"/><rect x="89.36" y="357.43" width="14.89" height="14.89" fill="#0d628e"/><polygon points="104.25,357.43 104.25,372.32 89.36,372.32" fill="#357ca1"/><rect x="104.25" y="357.43" width="14.89" height="14.89" fill="#0d87c1"/><polygon points="104.25,357.43 119.14,372.32 104.25,372.32" fill="#438db4"/><rect x="89.36" y="372.32" width="14.89" height="14.89" fill="#72c6ef"/><polygon points="89.36,372.32 104.25,372.32 104.25,387.21" fill="#3880a6"/><rect x="104.25" y="372.32" width="14.89" height="14.89" fill="#3d85ab"/><polygon points="104.25,372.32 119.14,372.32 104.25,387.21" fill="#74c8f1"/><rect x="119.14285714285714" y="357.42857142857144" width="29.785714285714285" height="29.785714285714285" fill="#0c4a6e"/><rect x="119.14" y="357.43" width="14.89" height="14.89" fill="#125175"/><polygon points="134.03,357.43 134.03,372.32 119.14,372.32" fill="#206287"/><rect x="134.04" y="357.43" width="14.89" height="14.89" fill="#24678c"/><polygon points="134.04,357.43 148.93,357.43 134.04,372.32" fill="#0d6fa1"/><rect x="119.14" y="372.32" width="14.89" height="14.89" fill="#135377"/><polygon points="119.14,372.32 134.03,372.32 134.03,387.21" fill="#0d75a8"/><rect x="134.04" y="372.32" width="14.89" height="14.89" fill="#61b1d9"/><polygon points="134.04,372.32 148.93,387.21 134.04,387.21" fill="#24678c"/><rect x="148.93" y="357.43" width="29.79" height="29.79" fill="#6ec1ea"/><path d="M 148.93 387.22 A 29.79 29.79 0 0 0 178.72 357.43 L 148.93 357.43" fill="#0e99d9"/><rect x="178.71428571428572" y="357.42857142857144" width="29.785714285714285" height="29.785714285714285" fill="#0c4a6e"/><rect x="178.71" y="357.43" width="14.89" height="14.89" fill="#31779d"/><path d="M 178.71 357.43 A 14.89 14.89 0 0 1 193.60000000000002 372.32 L 178.71 372.32" fill="#0d88c1"/><rect x="193.61" y="357.43" width="14.89" height="14.89" fill="#0d79ad"/><path d="M 193.61 372.32 A 14.89 14.89 0 0 1  208.5 357.43 L 208.5 372.32" fill="#2a6e94"/><rect x="178.71" y="372.32" width="14.89" height="14.89" fill="#4a95bc"/><path d="M 178.71 387.21 A 14.89 14.89 0 0 0 193.60000000000002 372.32 L 178.71 372.32" fill="#0d4c70"/><rect x="193.61" y="372.32" width="14.89" height="14.89" fill="#6dbfe8"/><path d="M 193.61 372.32 A 14.89 14.89 0 0 0 208.5 387.21 L 208.5 372.32" fill="#0c5279"/><rect x="208.5" y="357.43" width="29.79" height="29.79" fill="#4690b6"/><polygon points="238.29,357.43 238.29,387.22 208.5,387.22" fill="#4e9ac0"/><rect x="0" y="387.2142857142857" width="29.785714285714285" height="29.785714285714285" fill="#0c4a6e"/><rect x="0" y="387.21" width="14.89" height="14.89" fill="#6bbde5"/><path d="M 0 402.09999999999997 A 14.89 14.89 0 0 1  14.89 387.21 L 14.89 402.09999999999997" fill="#0d6c9c"/><rect x="14.89" y="387.21" width="14.89" height="14.89" fill="#0c5880"/><path d="M 14.89 387.21 A 14.89 14.89 0 0 1 29.78 402.09999999999997 L 14.89 402.09999999999997" fill="#0e4c70"/><rect x="0" y="402.11" width="14.89" height="14.89" fill="#71c5ed"/><path d="M 0 402.11 A 14.89 14.89 0 0 0 14.89 417 L 14.89 402.11" fill="#438db3"/><rect x="14.89" y="402.11" width="14.89" height="14.89" fill="#62b2da"/><path d="M 14.89 417 A 14.89 14.89 0 0 0 29.78 402.11 L 14.89 402.11" fill="#0ea4e7"/><rect x="29.785714285714285" y="387.2142857142857" width="29.785714285714285" height="29.785714285714285" fill="#0c4a6e"/><rect x="29.79" y="387.21" width="14.89" height="14.89" fill="#0e4d71"/><polygon points="44.68,387.21 44.68,402.09999999999997 29.79,402.09999999999997" fill="#438cb3"/><rect x="44.68" y="387.21" width="14.89" height="14.89" fill="#0d84bc"/><polygon points="44.68,387.21 59.57,402.09999999999997 44.68,402.09999999999997" fill="#286c91"/><rect x="29.79" y="402.11" width="14.89" height="14.89" fill="#0d6e9f"/><polygon points="29.79,402.11 44.68,402.11 44.68,417" fill="#31779d"/><rect x="44.68" y="402.11" width="14.89" height="14.89" fill="#0d78ac"/><polygon points="44.68,402.11 59.57,402.11 44.68,417" fill="#0c5d88"/><rect x="59.57142857142857" y="387.2142857142857" width="29.785714285714285" height="29.785714285714285" fill="#0c4a6e"/><rect x="59.57" y="387.21" width="14.89" height="14.89" fill="#75c9f2"/><circle cx="67.015" cy="394.655" r="7.445" fill="#59a7cf"/><rect x="74.46" y="387.21" width="14.89" height="14.89" fill="#0ea3e7"/><rect x="74.46" y="387.21" width="14.89" height="14.89" fill="#61b1d9"/><rect x="59.57" y="402.11" width="14.89" height="14.89" fill="#59a8cf"/><circle cx="67.015" cy="409.555" r="7.445" fill="#0d6592"/><rect x="74.46" y="402.11" width="14.89" height="14.89" fill="#296d92"/><rect x="74.46" y="402.11" width="14.89" height="14.89" fill="#0c4a6f"/><rect x="89.36" y="387.21" width="29.79" height="29.79" fill="#0d73a5"/><rect x="89.36" y="387.21" width="29.79" height="29.79" fill="#0d7cb2"/><rect x="119.14" y="387.21" width="29.79" height="29.79" fill="#4e9ac1"/><path d="M 119.14 387.21 A 29.79 29.79 0 0 1  148.93 417 L 119.14 387.21 A 29.79 29.79 0 0 0 148.93 417" fill="#5eaed6"/><rect x="148.92857142857142" y="387.2142857142857" width="29.785714285714285" height="29.785714285714285" fill="#0c4a6e"/><rect x="148.93" y="387.21" width="14.89" height="14.89" fill="#216388"/><path d="M 148.93 402.09999999999997 A 14.89 14.89 0 0 1  163.82 387.21 L 163.82 402.09999999999997" fill="#0e9ee0"/><rect x="163.82" y="387.21" width="14.89" height="14.89" fill="#0d81b8"/><path d="M 163.82 387.21 A 14.89 14.89 0 0 1 178.70999999999998 402.09999999999997 L 163.82 402.09999999999997" fill="#0d70a2"/><rect x="148.93" y="402.11" width="14.89" height="14.89" fill="#58a6cd"/><path d="M 148.93 402.11 A 14.89 14.89 0 0 0 163.82 417 L 163.82 402.11" fill="#0c5d88"/><rect x="163.82" y="402.11" width="14.89" height="14.89" fill="#31779d"/><path d="M 163.82 417 A 14.89 14.89 0 0 0 178.70999999999998 402.11 L 163.82 402.11" fill="#0d6e9f"/><rect x="178.71428571428572" y="387.2142857142857" width="29.785714285714285" height="29.785714285714285" fill="#0c4a6e"/><rect x="178.71" y="387.21" width="14.89" height="14.89" fill="#0d6fa0"/><path d="M 178.71 387.21 A 14.89 14.89 0 0 1 193.60000000000002 402.09999999999997 L 178.71 402.09999999999997" fill="#0d618d"/><rect x="193.61" y="387.21" width="14.89" height="14.89" fill="#0e97d6"/><path d="M 193.61 402.09999999999997 A 14.89 14.89 0 0 1  208.5 387.21 L 208.5 402.09999999999997" fill="#24678c"/><rect x="178.71" y="402.11" width="14.89" height="14.89" fill="#68bae2"/><path d="M 178.71 417 A 14.89 14.89 0 0 0 193.60000000000002 402.11 L 178.71 402.11" fill="#0d6d9e"/><rect x="193.61" y="402.11" width="14.89" height="14.89" fill="#0ea1e4"/><path d="M 193.61 402.11 A 14.89 14.89 0 0 0 208.5 417 L 208.5 402.11" fill="#1b5c81"/><rect x="208.5" y="387.21" width="29.79" height="29.79" fill="#4e9ac1"/><polygon points="208.5,387.21 238.29,387.21 208.5,417" fill="#71c5ed"/></g></svg>