<?xml version="1.0" standalone="no"?><svg xmlns:xlink="http://www.w3.org/1999/xlink" xmlns="http://www.w3.org/2000/svg" viewBox="0 0 1000 1750.033228479022" preserveAspectRatio="xMaxYMax slice"><g transform="scale(3.6920532246392868)"><rect x="0" y="0" width="270.85714285714283" height="507.85714285714283" fill="#0c4a6e"/><rect x="0" y="0" width="33.857142857142854" height="33.857142857142854" fill="#0c4a6e"/><rect x="0" y="0" width="16.93" height="16.93" fill="#0c4a6e"/><path d="M 0 16.93 A 16.93 16.93 0 0 1  16.93 0 L 16.93 16.93" fill="#63b3db"/><rect x="16.93" y="0" width="16.93" height="16.93" fill="#0d84bc"/><path d="M 16.93 0 A 16.93 16.93 0 0 1 33.86 16.93 L 16.93 16.93" fill="#0c4a6e"/><rect x="0" y="16.93" width="16.93" height="16.93" fill="#2b7095"/><path d="M 0 16.93 A 16.93 16.93 0 0 0 16.93 33.86 L 16.93 16.93" fill="#0c4a6e"/><rect x="16.93" y="16.93" width="16.93" height="16.93" fill="#0c608c"/><path d="M 16.93 33.86 A 16.93 16.93 0 0 0 33.86 16.93 L 16.93 16.93" fill="#2f759a"/><rect x="33.857142857142854" y="0" width="33.857142857142854" height="33.857142857142854" fill="#0c4a6e"/><rect x="33.86" y="0" width="16.93" height="16.93" fill="#0c4a6e"/><polygon points="50.79,0 50.79,16.93 33.86,16.93" fill="#0e9cdd"/><rect x="50.79" y="0" width="16.93" height="16.93" fill="#0c4a6e"/><polygon points="50.79,0 67.72,16.93 50.79,16.93" fill="#0d8eca"/><rect x="33.86" y="16.93" width="16.93" height="16.93" fill="#0d7eb5"/><polygon points="33.86,16.93 50.79,16.93 50.79,33.86" fill="#78cdf5"/><rect x="50.79" y="16.93" width="16.93" height="16.93" fill="#0d80b6"/><polygon points="50.79,16.93 67.72,16.93 50.79,33.86" fill="#0d79ae"/><rect x="67.71428571428571" y="0" width="33.857142857142854" height="33.857142857142854" fill="#0c4a6e"/><rect x="67.71" y="0" width="16.93" height="16.93" fill="#0c4a6e"/><polygon points="84.63999999999999,0 84.63999999999999,16.93 67.71,16.93" fill="#0d6a99"/><rect x="84.64" y="0" width="16.93" height="16.93" fill="#0c5279"/><polygon points="84.64,0 101.57,16.93 84.64,16.93" fill="#0e9ee0"/><rect x="67.71" y="16.93" width="16.93" height="16.93" fill="#2b6f95"/><polygon points="67.71,16.93 84.63999999999999,16.93 67.71,33.86" fill="#3a82a8"/><rect x="84.64" y="16.93" width="16.93" height="16.93" fill="#0c4a6e"/><polygon points="84.64,16.93 101.57,16.93 101.57,33.86" fill="#71c5ed"/><rect x="101.57142857142856" y="0" width="33.857142857142854" height="33.857142857142854" fill="#0c4a6e"/><rect x="101.57" y="0" width="16.93" height="16.93" fill="#0d8cc7"/><polygon points="118.5,0 118.5,16.93 101.57,16.93" fill="#0c4a6e"/><rect x="118.5" y="0" width="16.93" height="16.93" fill="#5ba9d1"/><polygon points="118.5,0 135.43,0 118.5,16.93" fill="#0d76aa"/><rect x="101.57" y="16.93" width="16.93" height="16.93" fill="#0c5a84"/><polygon points="101.57,16.93 118.5,16.93 118.5,33.86" fill="#0c4a6e"/><rect x="118.5" y="16.93" width="16.93" height="16.93" fill="#0c4a6e"/><polygon points="118.5,16.93 135.43,33.86 118.5,33.86" fill="#0c4b6f"/><rect x="135.42857142857142" y="0" width="33.857142857142854" height="33.857142857142854" fill="#0c4a6e"/><rect x="135.43" y="0" width="16.93" height="16.93" fill="#72c6ee"/><path d="M 135.43 16.93 A 16.93 16.93 0 0 1 152.36 0 L 152.36 4.2325 A 12.6975 12.6975 0 0 0 139.6625 16.93" fill="#0c4a6e"/><rect x="152.36" y="0" width="16.93" height="16.93" fill="#0ea3e6"/><path d="M 152.36 0 A 16.93 16.93 0 0 1 169.29000000000002 16.93 L 165.0575 16.93 A 12.6975 12.6975 0 0 0 152.36 4.2325" fill="#0d8ac5"/><rect x="135.43" y="16.93" width="16.93" height="16.93" fill="#0c4a6e"/><path d="M 135.43 16.93 A 16.93 16.93 0 0 0 152.36 33.86 L 152.36 29.627499999999998 A 12.6975 12.6975 0 0 1 139.6625 16.93" fill="#0c5d88"/><rect x="152.36" y="16.93" width="16.93" height="16.93" fill="#0c4a6e"/><path d="M 152.36 33.86 A 16.93 16.93 0 0 0 169.29000000000002 16.93 L 165.0575 16.93 A 12.6975 12.6975 0 0 1 152.36 29.627499999999998" fill="#0e9fe1"/><rect x="169.29" y="0" width="33.86" height="33.86" fill="#0e9edf"/><rect x="169.29" y="0" width="33.86" height="33.86" fill="#0e91ce"/><rect x="203.14" y="0" width="33.86" height="33.86" fill="#0d6796"/><rect x="203.14" y="0" width="33.86" height="33.86" fill="#0d6e9e"/><rect x="236.99999999999997" y="0" width="33.857142857142854" height="33.857142857142854" fill="#0c4a6e"/><rect x="237" y="0" width="16.93" height="16.93" fill="#78cdf5"/><polygon points="253.93,0 253.93,16.93 237,16.93" fill="#0d74a6"/><rect x="253.93" y="0" width="16.93" height="16.93" fill="#428bb1"/><polygon points="253.93,0 270.86,16.93 253.93,16.93" fill="#0d6998"/><rect x="237" y="16.93" width="16.93" height="16.93" fill="#0d87c1"/><polygon points="237,16.93 253.93,16.93 237,33.86" fill="#0d71a3"/><rect x="253.93" y="16.93" width="16.93" height="16.93" fill="#0d73a6"/><polygon points="253.93,16.93 270.86,16.93 270.86,33.86" fill="#0c4a6e"/><rect x="0" y="33.857142857142854" width="33.857142857142854" height="33.857142857142854" fill="#0c4a6e"/><rect x="0" y="33.86" width="16.93" height="16.93" fill="#6ec1ea"/><path d="M 0 33.86 A 16.93 16.93 0 0 0 16.93 50.79 L 16.93 33.86" fill="#0c4a6e"/><rect x="16.93" y="33.86" width="16.93" height="16.93" fill="#0c4a6e"/><path d="M 16.93 50.79 A 16.93 16.93 0 0 0 33.86 33.86 L 16.93 33.86" fill="#0c4a6e"/><rect x="0" y="50.79" width="16.93" height="16.93" fill="#1b5c81"/><path d="M 0 67.72 A 16.93 16.93 0 0 1  16.93 50.79 L 16.93 67.72" fill="#0e9edf"/><rect x="16.93" y="50.79" width="16.93" height="16.93" fill="#0c4a6e"/><path d="M 16.93 50.79 A 16.93 16.93 0 0 1 33.86 67.72 L 16.93 67.72" fill="#0c4a6e"/><rect x="33.86" y="33.86" width="33.86" height="33.86" fill="#0c4a6e"/><path d="M 33.86 67.72 A 33.86 33.86 0 0 0 67.72 33.86 L 33.86 33.86" fill="#67b8e0"/><rect x="67.71" y="33.86" width="33.86" height="33.86" fill="#0c4a6e"/><rect x="67.71" y="33.86" width="33.86" height="33.86" fill="#64b4dc"/><rect x="101.57142857142856" y="33.857142857142854" width="33.857142857142854" height="33.857142857142854" fill="#0c4a6e"/><rect x="101.57" y="33.86" width="16.93" height="16.93" fill="#0d83bc"/><circle cx="110.035" cy="42.325" r="8.465" fill="#0e92cf"/><rect x="118.5" y="33.86" width="16.93" height="16.93" fill="#519dc4"/><rect x="118.5" y="33.86" width="16.93" height="16.93" fill="#61b1d9"/><rect x="101.57" y="50.79" width="16.93" height="16.93" fill="#418bb1"/><circle cx="110.035" cy="59.254999999999995" r="8.465" fill="#0e9bdc"/><rect x="118.5" y="50.79" width="16.93" height="16.93" fill="#3a82a8"/><rect x="118.5" y="50.79" width="16.93" height="16.93" fill="#195a7f"/><rect x="135.43" y="33.86" width="33.86" height="33.86" fill="#0c4a6e"/><path d="M 135.43 33.86 A 33.86 33.86 0 0 1 169.29000000000002 67.72 L 135.43 67.72" fill="#25688d"/><rect x="169.29" y="33.86" width="33.86" height="33.86" fill="#0c4a6e"/><polygon points="203.14999999999998,33.86 203.14999999999998,67.72 169.29,67.72" fill="#2b6f95"/><rect x="203.1428571428571" y="33.857142857142854" width="33.857142857142854" height="33.857142857142854" fill="#0c4a6e"/><rect x="203.14" y="33.86" width="16.93" height="16.93" fill="#0d6d9e"/><polygon points="220.07,33.86 220.07,50.79 203.14,50.79" fill="#0d8cc8"/><rect x="220.07" y="33.86" width="16.93" height="16.93" fill="#0c5177"/><polygon points="220.07,33.86 237,33.86 220.07,50.79" fill="#7bd0f9"/><rect x="203.14" y="50.79" width="16.93" height="16.93" fill="#0c4a6e"/><polygon points="203.14,50.79 220.07,50.79 220.07,67.72" fill="#0c4a6e"/><rect x="220.07" y="50.79" width="16.93" height="16.93" fill="#4690b7"/><polygon points="220.07,50.79 237,67.72 220.07,67.72" fill="#0d74a6"/><rect x="236.99999999999997" y="33.857142857142854" width="33.857142857142854" height="33.857142857142854" fill="#0c4a6e"/><rect x="237" y="33.86" width="16.93" height="16.93" fill="#0c4a6e"/><path d="M 237 33.86 A 16.93 16.93 0 0 1 253.93 50.79 L 237 50.79" fill="#7dd3fc"/><rect x="253.93" y="33.86" width="16.93" height="16.93" fill="#4a95bc"/><path d="M 253.93 50.79 A 16.93 16.93 0 0 1  270.86 33.86 L 270.86 50.79" fill="#0d77aa"/><rect x="237" y="50.79" width="16.93" height="16.93" fill="#0c4a6e"/><path d="M 237 67.72 A 16.93 16.93 0 0 0 253.93 50.79 L 237 50.79" fill="#0d71a3"/><rect x="253.93" y="50.79" width="16.93" height="16.93" fill="#0c557d"/><path d="M 253.93 50.79 A 16.93 16.93 0 0 0 270.86 67.72 L 270.86 50.79" fill="#0d6592"/><rect x="0" y="67.71" width="33.86" height="33.86" fill="#0c4b70"/><polygon points="33.86,67.71 33.86,101.57 0,101.57" fill="#6bbde5"/><rect x="33.86" y="67.71" width="33.86" height="33.86" fill="#2e7499"/><rect x="33.86" y="67.71" width="33.86" height="33.86" fill="#0c4a6e"/><rect x="67.71" y="67.71" width="33.86" height="33.86" fill="#0e8fcb"/><rect x="67.71" y="67.71" width="33.86" height="33.86" fill="#0e9ee0"/><rect x="101.57142857142856" y="67.71428571428571" width="33.857142857142854" height="33.857142857142854" fill="#0c4a6e"/><rect x="101.57" y="67.71" width="16.93" height="16.93" fill="#4a96bd"/><polygon points="118.5,67.71 118.5,84.63999999999999 101.57,84.63999999999999" fill="#0c4a6e"/><rect x="118.5" y="67.71" width="16.93" height="16.93" fill="#0d8cc7"/><polygon points="118.5,67.71 135.43,84.63999999999999 118.5,84.63999999999999" fill="#0d6592"/><rect x="101.57" y="84.64" width="16.93" height="16.93" fill="#0c4a6e"/><polygon points="101.57,84.64 118.5,84.64 101.57,101.57" fill="#6cbee6"/><rect x="118.5" y="84.64" width="16.93" height="16.93" fill="#5eaed5"/><polygon points="118.5,84.64 135.43,84.64 135.43,101.57" fill="#0c4a6e"/><rect x="135.42857142857142" y="67.71428571428571" width="33.857142857142854" height="33.857142857142854" fill="#0c4a6e"/><rect x="135.43" y="67.71" width="16.93" height="16.93" fill="#0c4a6e"/><polygon points="152.36,67.71 152.36,84.63999999999999 135.43,84.63999999999999" fill="#79cef7"/><rect x="152.36" y="67.71" width="16.93" height="16.93" fill="#2a6f94"/><polygon points="152.36,67.71 169.29000000000002,84.63999999999999 152.36,84.63999999999999" fill="#0d73a6"/><rect x="135.43" y="84.64" width="16.93" height="16.93" fill="#0c4a6e"/><polygon points="135.43,84.64 152.36,84.64 135.43,101.57" fill="#0c4a6e"/><rect x="152.36" y="84.64" width="16.93" height="16.93" fill="#0c4a6e"/><polygon points="152.36,84.64 169.29000000000002,84.64 169.29000000000002,101.57" fill="#0c4a6e"/><rect x="169.28571428571428" y="67.71428571428571" width="33.857142857142854" height="33.857142857142854" fill="#0c4a6e"/><rect x="169.29" y="67.71" width="16.93" height="16.93" fill="#0ea4e7"/><circle cx="177.755" cy="76.175" r="8.465" fill="#0ea3e7"/><rect x="186.21" y="67.71" width="16.93" height="16.93" fill="#0c4a6e"/><rect x="186.21" y="67.71" width="16.93" height="16.93" fill="#3d86ac"/><rect x="169.29" y="84.64" width="16.93" height="16.93" fill="#1c5e82"/><circle cx="177.755" cy="93.105" r="8.465" fill="#0c4a6e"/><rect x="186.21" y="84.64" width="16.93" height="16.93" fill="#0c4a6e"/><rect x="186.21" y="84.64" width="16.93" height="16.93" fill="#0c5780"/><rect x="203.14" y="67.71" width="33.86" height="33.86" fill="#0c5f8a"/><rect x="203.14" y="67.71" width="33.86" height="33.86" fill="#0c5178"/><rect x="236.99999999999997" y="67.71428571428571" width="33.857142857142854" height="33.857142857142854" fill="#0c4a6e"/><rect x="237" y="67.71" width="16.93" height="16.93" fill="#0f4d71"/><polygon points="253.93,67.71 253.93,84.63999999999999 237,84.63999999999999" fill="#0c567f"/><rect x="253.93" y="67.71" width="16.93" height="16.93" fill="#0c4a6e"/><polygon points="253.93,67.71 270.86,67.71 253.93,84.63999999999999" fill="#6bbee6"/><rect x="237" y="84.64" width="16.93" height="16.93" fill="#6abce4"/><polygon points="237,84.64 253.93,84.64 253.93,101.57" fill="#0e9ada"/><rect x="253.93" y="84.64" width="16.93" height="16.93" fill="#0d6c9c"/><polygon points="253.93,84.64 270.86,101.57 253.93,101.57" fill="#0c4a6e"/><rect x="0" y="101.57142857142856" width="33.857142857142854" height="33.857142857142854" fill="#0c4a6e"/><rect x="0" y="101.57" width="16.93" height="16.93" fill="#0c4a6e"/><polygon points="16.93,101.57 16.93,118.5 0,118.5" fill="#0c4a6e"/><rect x="16.93" y="101.57" width="16.93" height="16.93" fill="#0ea3e6"/><polygon points="16.93,101.57 33.86,118.5 16.93,118.5" fill="#0ea5e9"/><rect x="0" y="118.5" width="16.93" height="16.93" fill="#0e4c70"/><polygon points="0,118.5 16.93,118.5 16.93,135.43" fill="#0c4a6e"/><rect x="16.93" y="118.5" width="16.93" height="16.93" fill="#0c4a6e"/><polygon points="16.93,118.5 33.86,118.5 16.93,135.43" fill="#104f73"/><rect x="33.86" y="101.57" width="33.86" height="33.86" fill="#0e99d9"/><rect x="33.86" y="101.57" width="33.86" height="33.86" fill="#0c4a6e"/><rect x="67.71428571428571" y="101.57142857142856" width="33.857142857142854" height="33.857142857142854" fill="#0c4a6e"/><rect x="67.71" y="101.57" width="16.93" height="16.93" fill="#0d73a5"/><polygon points="84.63999999999999,101.57 84.63999999999999,118.5 67.71,118.5" fill="#0c4a6e"/><rect x="84.64" y="101.57" width="16.93" height="16.93" fill="#0c4a6e"/><polygon points="84.64,101.57 101.57,101.57 84.64,118.5" fill="#0c4a6e"/><rect x="67.71" y="118.5" width="16.93" height="16.93" fill="#6abce4"/><polygon points="67.71,118.5 84.63999999999999,118.5 84.63999999999999,135.43" fill="#23668b"/><rect x="84.64" y="118.5" width="16.93" height="16.93" fill="#0c4a6e"/><polygon points="84.64,118.5 101.57,135.43 84.64,135.43" fill="#0e8eca"/><rect x="101.57" y="101.57" width="33.86" height="33.86" fill="#0d71a3"/><rect x="101.57" y="101.57" width="33.86" height="33.86" fill="#0c4a6e"/><rect x="135.42857142857142" y="101.57142857142856" width="33.857142857142854" height="33.857142857142854" fill="#0c4a6e"/><rect x="135.43" y="101.57" width="16.93" height="16.93" fill="#0d6e9e"/><path d="M 135.43 101.57 A 16.93 16.93 0 0 1 152.36 118.5 L 135.43 118.5" fill="#55a3ca"/><rect x="152.36" y="101.57" width="16.93" height="16.93" fill="#529fc6"/><path d="M 152.36 118.5 A 16.93 16.93 0 0 1  169.29000000000002 101.57 L 169.29000000000002 118.5" fill="#0e9fe1"/><rect x="135.43" y="118.5" width="16.93" height="16.93" fill="#68b9e1"/><path d="M 135.43 135.43 A 16.93 16.93 0 0 0 152.36 118.5 L 135.43 118.5" fill="#5aa9d0"/><rect x="152.36" y="118.5" width="16.93" height="16.93" fill="#5faed6"/><path d="M 152.36 118.5 A 16.93 16.93 0 0 0 169.29000000000002 135.43 L 169.29000000000002 118.5" fill="#0c5177"/><rect x="169.28571428571428" y="101.57142857142856" width="33.857142857142854" height="33.857142857142854" fill="#0c4a6e"/><rect x="169.29" y="101.57" width="16.93" height="16.93" fill="#0d8bc6"/><path d="M 169.29 118.5 A 16.93 16.93 0 0 1 186.22 101.57 L 186.22 105.8025 A 12.6975 12.6975 0 0 0 173.52249999999998 118.5" fill="#0c5780"/><rect x="186.21" y="101.57" width="16.93" height="16.93" fill="#4d99bf"/><path d="M 186.21 101.57 A 16.93 16.93 0 0 1 203.14000000000001 118.5 L 198.9075 118.5 A 12.6975 12.6975 0 0 0 186.21 105.8025" fill="#0c4a6e"/><rect x="169.29" y="118.5" width="16.93" height="16.93" fill="#0c4a6e"/><path d="M 169.29 118.5 A 16.93 16.93 0 0 0 186.22 135.43 L 186.22 131.1975 A 12.6975 12.6975 0 0 1 173.52249999999998 118.5" fill="#0d8ac5"/><rect x="186.21" y="118.5" width="16.93" height="16.93" fill="#6dc0e8"/><path d="M 186.21 135.43 A 16.93 16.93 0 0 0 203.14000000000001 118.5 L 198.9075 118.5 A 12.6975 12.6975 0 0 1 186.21 131.1975" fill="#5cacd3"/><rect x="203.14" y="101.57" width="33.86" height="33.86" fill="#0c5a84"/><rect x="203.14" y="101.57" width="33.86" height="33.86" fill="#16567a"/><rect x="237" y="101.57" width="33.86" height="33.86" fill="#0d7aaf"/><rect x="237" y="101.57" width="33.86" height="33.86" fill="#0d8bc6"/><rect x="0" y="135.42857142857142" width="33.857142857142854" height="33.857142857142854" fill="#0c4a6e"/><rect x="0" y="135.43" width="16.93" height="16.93" fill="#0c4a6e"/><path d="M 0 152.36 A 16.93 16.93 0 0 1  16.93 135.43 L 16.93 152.36" fill="#0d80b7"/><rect x="16.93" y="135.43" width="16.93" height="16.93" fill="#0d7fb5"/><path d="M 16.93 135.43 A 16.93 16.93 0 0 1 33.86 152.36 L 16.93 152.36" fill="#0d6491"/><rect x="0" y="152.36" width="16.93" height="16.93" fill="#23658a"/><path d="M 0 152.36 A 16.93 16.93 0 0 0 16.93 169.29000000000002 L 16.93 152.36" fill="#387fa5"/><rect x="16.93" y="152.36" width="16.93" height="16.93" fill="#0c4a6e"/><path d="M 16.93 169.29000000000002 A 16.93 16.93 0 0 0 33.86 152.36 L 16.93 152.36" fill="#0c4a6e"/><rect x="33.857142857142854" y="135.42857142857142" width="33.857142857142854" height="33.857142857142854" fill="#0c4a6e"/><rect x="33.86" y="135.43" width="16.93" height="16.93" fill="#0ea2e5"/><path d="M 33.86 152.36 A 16.93 16.93 0 0 1  50.79 135.43 L 50.79 152.36" fill="#0c4a6e"/><rect x="50.79" y="135.43" width="16.93" height="16.93" fill="#0c5279"/><path d="M 50.79 135.43 A 16.93 16.93 0 0 1 67.72 152.36 L 50.79 152.36" fill="#0c4a6e"/><rect x="33.86" y="152.36" width="16.93" height="16.93" fill="#155479"/><path d="M 33.86 152.36 A 16.93 16.93 0 0 0 50.79 169.29000000000002 L 50.79 152.36" fill="#0d88c2"/><rect x="50.79" y="152.36" width="16.93" height="16.93" fill="#0c4a6e"/><path d="M 50.79 169.29000000000002 A 16.93 16.93 0 0 0 67.72 152.36 L 50.79 152.36" fill="#0e93d1"/><rect x="67.71428571428571" y="135.42857142857142" width="33.857142857142854" height="33.857142857142854" fill="#0c4a6e"/><rect x="67.71" y="135.43" width="16.93" height="16.93" fill="#7cd2fb"/><path d="M 67.71 152.36 A 16.93 16.93 0 0 1 84.63999999999999 135.43 L 84.63999999999999 139.6625 A 12.6975 12.6975 0 0 0 71.9425 152.36" fill="#0c4a6e"/><rect x="84.64" y="135.43" width="16.93" height="16.93" fill="#0c4a6e"/><path d="M 84.64 135.43 A 16.93 16.93 0 0 1 101.57 152.36 L 97.3375 152.36 A 12.6975 12.6975 0 0 0 84.64 139.6625" fill="#0c4a6e"/><rect x="67.71" y="152.36" width="16.93" height="16.93" fill="#0c4a6e"/><path d="M 67.71 152.36 A 16.93 16.93 0 0 0 84.63999999999999 169.29000000000002 L 84.63999999999999 165.0575 A 12.6975 12.6975 0 0 1 71.9425 152.36" fill="#0c4a6e"/><rect x="84.64" y="152.36" width="16.93" height="16.93" fill="#0c4a6e"/><path d="M 84.64 169.29000000000002 A 16.93 16.93 0 0 0 101.57 152.36 L 97.3375 152.36 A 12.6975 12.6975 0 0 1 84.64 165.0575" fill="#155579"/><rect x="101.57142857142856" y="135.42857142857142" width="33.857142857142854" height="33.857142857142854" fill="#0c4a6e"/><rect x="101.57" y="135.43" width="16.93" height="16.93" fill="#66b7df"/><path d="M 101.57 152.36 A 16.93 16.93 0 0 1 118.5 135.43 L 118.5 139.6625 A 12.6975 12.6975 0 0 0 105.8025 152.36" fill="#0c4a6e"/><rect x="118.5" y="135.43" width="16.93" height="16.93" fill="#0c4a6e"/><path d="M 118.5 135.43 A 16.93 16.93 0 0 1 135.43 152.36 L 131.1975 152.36 A 12.6975 12.6975 0 0 0 118.5 139.6625" fill="#0c4a6e"/><rect x="101.57" y="152.36" width="16.93" height="16.93" fill="#5aa9d0"/><path d="M 101.57 152.36 A 16.93 16.93 0 0 0 118.5 169.29000000000002 L 118.5 165.0575 A 12.6975 12.6975 0 0 1 105.8025 152.36" fill="#0c4a6e"/><rect x="118.5" y="152.36" width="16.93" height="16.93" fill="#4a96bc"/><path d="M 118.5 169.29000000000002 A 16.93 16.93 0 0 0 135.43 152.36 L 131.1975 152.36 A 12.6975 12.6975 0 0 1 118.5 165.0575" fill="#0d71a3"/><rect x="135.42857142857142" y="135.42857142857142" width="33.857142857142854" height="33.857142857142854" fill="#0c4a6e"/><rect x="135.43" y="135.43" width="16.93" height="16.93" fill="#0c4a6e"/><path d="M 135.43 152.36 A 16.93 16.93 0 0 1  152.36 135.43 L 152.36 152.36" fill="#0c5f8a"/><rect x="152.36" y="135.43" width="16.93" height="16.93" fill="#0c4a6e"/><path d="M 152.36 135.43 A 16.93 16.93 0 0 1 169.29000000000002 152.36 L 152.36 152.36" fill="#0d618d"/><rect x="135.43" y="152.36" width="16.93" height="16.93" fill="#0d77ab"/><path d="M 135.43 152.36 A 16.93 16.93 0 0 0 152.36 169.29000000000002 L 152.36 152.36" fill="#135377"/><rect x="152.36" y="152.36" width="16.93" height="16.93" fill="#0d7bb0"/><path d="M 152.36 169.29000000000002 A 16.93 16.93 0 0 0 169.29000000000002 152.36 L 152.36 152.36" fill="#0d618d"/><rect x="169.29" y="135.43" width="33.86" height="33.86" fill="#0d6d9e"/><polygon points="169.29,135.43 203.14999999999998,135.43 203.14999999999998,169.29000000000002" fill="#0d7aaf"/><rect x="203.14" y="135.43" width="33.86" height="33.86" fill="#79cef6"/><path d="M 203.14 169.29000000000002 A 33.86 33.86 0 0 1  237 135.43 L 237 169.29000000000002" fill="#0d7eb4"/><rect x="236.99999999999997" y="135.42857142857142" width="33.857142857142854" height="33.857142857142854" fill="#0c4a6e"/><rect x="237" y="135.43" width="16.93" height="16.93" fill="#0e98d7"/><path d="M 237 152.36 A 16.93 16.93 0 0 0 253.93 135.43 L 237 135.43" fill="#0c4a6e"/><rect x="253.93" y="135.43" width="16.93" height="16.93" fill="#0c4a6e"/><path d="M 253.93 135.43 A 16.93 16.93 0 0 0 270.86 152.36 L 270.86 135.43" fill="#1d5f84"/><rect x="237" y="152.36" width="16.93" height="16.93" fill="#0d6b9b"/><path d="M 237 152.36 A 16.93 16.93 0 0 1 253.93 169.29000000000002 L 237 169.29000000000002" fill="#276a8f"/><rect x="253.93" y="152.36" width="16.93" height="16.93" fill="#0c5982"/><path d="M 253.93 169.29000000000002 A 16.93 16.93 0 0 1  270.86 152.36 L 270.86 169.29000000000002" fill="#0c4a6e"/><rect x="0" y="169.28571428571428" width="33.857142857142854" height="33.857142857142854" fill="#0c4a6e"/><rect x="0" y="169.29" width="16.93" height="16.93" fill="#428bb1"/><path d="M 0 169.29 A 16.93 16.93 0 0 0 16.93 186.22 L 16.93 169.29" fill="#0d8dc8"/><rect x="16.93" y="169.29" width="16.93" height="16.93" fill="#6abce4"/><path d="M 16.93 186.22 A 16.93 16.93 0 0 0 33.86 169.29 L 16.93 169.29" fill="#266a8f"/><rect x="0" y="186.21" width="16.93" height="16.93" fill="#0c4a6e"/><path d="M 0 203.14000000000001 A 16.93 16.93 0 0 1  16.93 186.21 L 16.93 203.14000000000001" fill="#0e96d4"/><rect x="16.93" y="186.21" width="16.93" height="16.93" fill="#0d82ba"/><path d="M 16.93 186.21 A 16.93 16.93 0 0 1 33.86 203.14000000000001 L 16.93 203.14000000000001" fill="#0d83bb"/><rect x="33.857142857142854" y="169.28571428571428" width="33.857142857142854" height="33.857142857142854" fill="#0c4a6e"/><rect x="33.86" y="169.29" width="16.93" height="16.93" fill="#0c4a6e"/><polygon points="50.79,169.29 50.79,186.22 33.86,186.22" fill="#3b83aa"/><rect x="50.79" y="169.29" width="16.93" height="16.93" fill="#0c577f"/><polygon points="50.79,169.29 67.72,186.22 50.79,186.22" fill="#0c4a6e"/><rect x="33.86" y="186.21" width="16.93" height="16.93" fill="#23668b"/><polygon points="33.86,186.21 50.79,186.21 33.86,203.14000000000001" fill="#0c4a6e"/><rect x="50.79" y="186.21" width="16.93" height="16.93" fill="#0d89c3"/><polygon points="50.79,186.21 67.72,186.21 67.72,203.14000000000001" fill="#0c4a6e"/><rect x="67.71" y="169.29" width="33.86" height="33.86" fill="#0c4a6e"/><rect x="67.71" y="169.29" width="33.86" height="33.86" fill="#367da3"/><rect x="101.57" y="169.29" width="33.86" height="33.86" fill="#1e6084"/><path d="M 101.57 169.29 A 33.86 33.86 0 0 1 135.43 203.14999999999998 L 101.57 203.14999999999998" fill="#0c4a6e"/><rect x="135.43" y="169.29" width="33.86" height="33.86" fill="#0c4a6e"/><rect x="135.43" y="169.29" width="33.86" height="33.86" fill="#206287"/><rect x="169.29" y="169.29" width="33.86" height="33.86" fill="#0d8eca"/><path d="M 169.29 169.29 A 33.86 33.86 0 0 0 203.14999999999998 203.14999999999998 L 203.14999999999998 169.29" fill="#67b8e0"/><rect x="203.14" y="169.29" width="33.86" height="33.86" fill="#0c4a6e"/><path d="M 203.14 169.29 A 33.86 33.86 0 0 1  237 203.14999999999998 L 203.14 169.29 A 33.86 33.86 0 0 0 237 203.14999999999998" fill="#1a5a7f"/><rect x="237" y="169.29" width="33.86" height="33.86" fill="#0d6693"/><polygon points="237,169.29 270.86,169.29 237,203.14999999999998" fill="#509cc3"/><rect x="0" y="203.1428571428571" width="33.857142857142854" height="33.857142857142854" fill="#0c4a6e"/><rect x="0" y="203.14" width="16.93" height="16.93" fill="#0c4a6e"/><path d="M 0 203.14 A 16.93 16.93 0 0 1 16.93 220.07 L 0 220.07" fill="#0c4a6e"/><rect x="16.93" y="203.14" width="16.93" height="16.93" fill="#0c4a6e"/><path d="M 16.93 220.07 A 16.93 16.93 0 0 1  33.86 203.14 L 33.86 220.07" fill="#3b83a9"/><rect x="0" y="220.07" width="16.93" height="16.93" fill="#145479"/><path d="M 0 237 A 16.93 16.93 0 0 0 16.93 220.07 L 0 220.07" fill="#2c7196"/><rect x="16.93" y="220.07" width="16.93" height="16.93" fill="#4791b8"/><path d="M 16.93 220.07 A 16.93 16.93 0 0 0 33.86 237 L 33.86 220.07" fill="#74c8f0"/><rect x="33.857142857142854" y="203.1428571428571" width="33.857142857142854" height="33.857142857142854" fill="#0c4a6e"/><rect x="33.86" y="203.14" width="16.93" height="16.93" fill="#0c4a6e"/><path d="M 33.86 203.14 A 16.93 16.93 0 0 1 50.79 220.07 L 33.86 220.07" fill="#0e90cd"/><rect x="50.79" y="203.14" width="16.93" height="16.93" fill="#0c5b85"/><path d="M 50.79 220.07 A 16.93 16.93 0 0 1  67.72 203.14 L 67.72 220.07" fill="#0c5881"/><rect x="33.86" y="220.07" width="16.93" height="16.93" fill="#0c4a6e"/><path d="M 33.86 237 A 16.93 16.93 0 0 0 50.79 220.07 L 33.86 220.07" fill="#0c4a6e"/><rect x="50.79" y="220.07" width="16.93" height="16.93" fill="#0e9dde"/><path d="M 50.79 220.07 A 16.93 16.93 0 0 0 67.72 237 L 67.72 220.07" fill="#0d84bd"/><rect x="67.71" y="203.14" width="33.86" height="33.86" fill="#0c4a6e"/><polygon points="67.71,203.14 101.57,203.14 101.57,237" fill="#0c4a6e"/><rect x="101.57142857142856" y="203.1428571428571" width="33.857142857142854" height="33.857142857142854" fill="#0c4a6e"/><rect x="101.57" y="203.14" width="16.93" height="16.93" fill="#0c4a6e"/><path d="M 101.57 203.14 A 16.93 16.93 0 0 0 118.5 220.07 L 118.5 203.14" fill="#0c5982"/><rect x="118.5" y="203.14" width="16.93" height="16.93" fill="#0c4a6e"/><path d="M 118.5 220.07 A 16.93 16.93 0 0 0 135.43 203.14 L 118.5 203.14" fill="#18597d"/><rect x="101.57" y="220.07" width="16.93" height="16.93" fill="#5eaed5"/><path d="M 101.57 237 A 16.93 16.93 0 0 1  118.5 220.07 L 118.5 237" fill="#0ea0e3"/><rect x="118.5" y="220.07" width="16.93" height="16.93" fill="#0c5e89"/><path d="M 118.5 220.07 A 16.93 16.93 0 0 1 135.43 237 L 118.5 237" fill="#2f749a"/><rect x="135.42857142857142" y="203.1428571428571" width="33.857142857142854" height="33.857142857142854" fill="#0c4a6e"/><rect x="135.43" y="203.14" width="16.93" height="16.93" fill="#0d70a2"/><path d="M 135.43 220.07 A 16.93 16.93 0 0 1  152.36 203.14 L 152.36 220.07" fill="#0c4a6e"/><rect x="152.36" y="203.14" width="16.93" height="16.93" fill="#0c4a6e"/><path d="M 152.36 203.14 A 16.93 16.93 0 0 1 169.29000000000002 220.07 L 152.36 220.07" fill="#0c4a6e"/><rect x="135.43" y="220.07" width="16.93" height="16.93" fill="#5baad1"/><path d="M 135.43 220.07 A 16.93 16.93 0 0 0 152.36 237 L 152.36 220.07" fill="#6abbe4"/><rect x="152.36" y="220.07" width="16.93" height="16.93" fill="#0c4a6e"/><path d="M 152.36 237 A 16.93 16.93 0 0 0 169.29000000000002 220.07 L 152.36 220.07" fill="#0e9ee0"/><rect x="169.29" y="203.14" width="33.86" height="33.86" fill="#0d6593"/><polygon points="203.14999999999998,203.14 203.14999999999998,237 169.29,237" fill="#0c4a6e"/><rect x="203.1428571428571" y="203.1428571428571" width="33.857142857142854" height="33.857142857142854" fill="#0c4a6e"/><rect x="203.14" y="203.14" width="16.93" height="16.93" fill="#72c5ee"/><circle cx="211.605" cy="211.605" r="8.465" fill="#0e9dde"/><rect x="220.07" y="203.14" width="16.93" height="16.93" fill="#0c577f"/><rect x="220.07" y="203.14" width="16.93" height="16.93" fill="#0c4a6e"/><rect x="203.14" y="220.07" width="16.93" height="16.93" fill="#0c537a"/><circle cx="211.605" cy="228.535" r="8.465" fill="#7cd1fa"/><rect x="220.07" y="220.07" width="16.93" height="16.93" fill="#0e8fcc"/><rect x="220.07" y="220.07" width="16.93" height="16.93" fill="#0c4c71"/><rect x="237" y="203.14" width="33.86" height="33.86" fill="#286d92"/><rect x="237" y="203.14" width="33.86" height="33.86" fill="#0c4a6e"/><rect x="0" y="237" width="33.86" height="33.86" fill="#529fc6"/><polygon points="0,237 33.86,237 33.86,270.86" fill="#0c608c"/><rect x="33.86" y="237" width="33.86" height="33.86" fill="#458fb5"/><rect x="33.86" y="237" width="33.86" height="33.86" fill="#4c98bf"/><rect x="67.71428571428571" y="236.99999999999997" width="33.857142857142854" height="33.857142857142854" fill="#0c4a6e"/><rect x="67.71" y="237" width="16.93" height="16.93" fill="#73c7f0"/><polygon points="84.63999999999999,237 84.63999999999999,253.93 67.71,253.93" fill="#1f6186"/><rect x="84.64" y="237" width="16.93" height="16.93" fill="#0d79ae"/><polygon points="84.64,237 101.57,237 84.64,253.93" fill="#7acff8"/><rect x="67.71" y="253.93" width="16.93" height="16.93" fill="#0c4a6e"/><polygon points="67.71,253.93 84.63999999999999,253.93 84.63999999999999,270.86" fill="#0d88c2"/><rect x="84.64" y="253.93" width="16.93" height="16.93" fill="#0e9bdb"/><polygon points="84.64,253.93 101.57,270.86 84.64,270.86" fill="#0c4a6e"/><rect x="101.57" y="237" width="33.86" height="33.86" fill="#2a6f94"/><rect x="101.57" y="237" width="33.86" height="33.86" fill="#1a5b80"/><rect x="135.42857142857142" y="236.99999999999997" width="33.857142857142854" height="33.857142857142854" fill="#0c4a6e"/><rect x="135.43" y="237" width="16.93" height="16.93" fill="#0c4a6e"/><path d="M 135.43 253.93 A 16.93 16.93 0 0 1  152.36 237 L 152.36 253.93" fill="#5fafd6"/><rect x="152.36" y="237" width="16.93" height="16.93" fill="#0c5880"/><path d="M 152.36 237 A 16.93 16.93 0 0 1 169.29000000000002 253.93 L 152.36 253.93" fill="#55a3ca"/><rect x="135.43" y="253.93" width="16.93" height="16.93" fill="#0d4b6f"/><path d="M 135.43 253.93 A 16.93 16.93 0 0 0 152.36 270.86 L 152.36 253.93" fill="#67b9e1"/><rect x="152.36" y="253.93" width="16.93" height="16.93" fill="#0c4a6e"/><path d="M 152.36 270.86 A 16.93 16.93 0 0 0 169.29000000000002 253.93 L 152.36 253.93" fill="#0c4a6e"/><rect x="169.28571428571428" y="236.99999999999997" width="33.857142857142854" height="33.857142857142854" fill="#0c4a6e"/><rect x="169.29" y="237" width="16.93" height="16.93" fill="#509cc3"/><path d="M 169.29 237 A 16.93 16.93 0 0 0 186.22 253.93 L 186.22 237" fill="#0c5279"/><rect x="186.21" y="237" width="16.93" height="16.93" fill="#0c4a6e"/><path d="M 186.21 253.93 A 16.93 16.93 0 0 0 203.14000000000001 237 L 186.21 237" fill="#0c4a6e"/><rect x="169.29" y="253.93" width="16.93" height="16.93" fill="#0d8dc8"/><path d="M 169.29 270.86 A 16.93 16.93 0 0 1  186.22 253.93 L 186.22 270.86" fill="#0e99d9"/><rect x="186.21" y="253.93" width="16.93" height="16.93" fill="#0d82b9"/><path d="M 186.21 253.93 A 16.93 16.93 0 0 1 203.14000000000001 270.86 L 186.21 270.86" fill="#0c4a6e"/><rect x="203.1428571428571" y="236.99999999999997" width="33.857142857142854" height="33.857142857142854" fill="#0c4a6e"/><rect x="203.14" y="237" width="16.93" height="16.93" fill="#0c4a6e"/><path d="M 203.14 253.93 A 16.93 16.93 0 0 1 220.07 237 L 220.07 241.2325 A 12.6975 12.6975 0 0 0 207.37249999999997 253.93" fill="#0c4a6e"/><rect x="220.07" y="237" width="16.93" height="16.93" fill="#4893ba"/><path d="M 220.07 237 A 16.93 16.93 0 0 1 237 253.93 L 232.76749999999998 253.93 A 12.6975 12.6975 0 0 0 220.07 241.2325" fill="#0c4a6e"/><rect x="203.14" y="253.93" width="16.93" height="16.93" fill="#31769c"/><path d="M 203.14 253.93 A 16.93 16.93 0 0 0 220.07 270.86 L 220.07 266.6275 A 12.6975 12.6975 0 0 1 207.37249999999997 253.93" fill="#104f73"/><rect x="220.07" y="253.93" width="16.93" height="16.93" fill="#0c5982"/><path d="M 220.07 270.86 A 16.93 16.93 0 0 0 237 253.93 L 232.76749999999998 253.93 A 12.6975 12.6975 0 0 1 220.07 266.6275" fill="#73c7f0"/><rect x="236.99999999999997" y="236.99999999999997" width="33.857142857142854" height="33.857142857142854" fill="#0c4a6e"/><rect x="237" y="237" width="16.93" height="16.93" fill="#0d77ab"/><path d="M 237 253.93 A 16.93 16.93 0 0 1 253.93 237 L 253.93 241.2325 A 12.6975 12.6975 0 0 0 241.2325 253.93" fill="#0c4a6e"/><rect x="253.93" y="237" width="16.93" height="16.93" fill="#64b5dd"/><path d="M 253.93 237 A 16.93 16.93 0 0 1 270.86 253.93 L 266.6275 253.93 A 12.6975 12.6975 0 0 0 253.93 241.2325" fill="#0c4a6e"/><rect x="237" y="253.93" width="16.93" height="16.93" fill="#0c4a6e"/><path d="M 237 253.93 A 16.93 16.93 0 0 0 253.93 270.86 L 253.93 266.6275 A 12.6975 12.6975 0 0 1 241.2325 253.93" fill="#0c4a6e"/><rect x="253.93" y="253.93" width="16.93" height="16.93" fill="#0e9bdb"/><path d="M 253.93 270.86 A 16.93 16.93 0 0 0 270.86 253.93 L 266.6275 253.93 A 12.6975 12.6975 0 0 1 253.93 266.6275" fill="#0c4a6e"/><rect x="0" y="270.85714285714283" width="33.857142857142854" height="33.857142857142854" fill="#0c4a6e"/><rect x="0" y="270.86" width="16.93" height="16.93" fill="#0c5881"/><polygon points="16.93,270.86 16.93,287.79 0,287.79" fill="#0c4a6e"/><rect x="16.93" y="270.86" width="16.93" height="16.93" fill="#0d6a99"/><polygon points="16.93,270.86 33.86,287.79 16.93,287.79" fill="#0d6b9b"/><rect x="0" y="287.79" width="16.93" height="16.93" fill="#0e92d0"/><polygon points="0,287.79 16.93,287.79 16.93,304.72" fill="#0c4a6e"/><rect x="16.93" y="287.79" width="16.93" height="16.93" fill="#104f73"/><polygon points="16.93,287.79 33.86,287.79 16.93,304.72" fill="#448eb4"/><rect x="33.86" y="270.86" width="33.86" height="33.86" fill="#0f4d71"/><path d="M 33.86 270.86 A 33.86 33.86 0 0 1  67.72 304.72 L 33.86 270.86 A 33.86 33.86 0 0 0 67.72 304.72" fill="#0d89c4"/><rect x="67.71428571428571" y="270.85714285714283" width="33.857142857142854" height="33.857142857142854" fill="#0c4a6e"/><rect x="67.71" y="270.86" width="16.93" height="16.93" fill="#0c4a6e"/><circle cx="76.175" cy="279.325" r="8.465" fill="#4e9ac1"/><rect x="84.64" y="270.86" width="16.93" height="16.93" fill="#145378"/><rect x="84.64" y="270.86" width="16.93" height="16.93" fill="#0c4a6e"/><rect x="67.71" y="287.79" width="16.93" height="16.93" fill="#2a6e94"/><circle cx="76.175" cy="296.255" r="8.465" fill="#0c4a6e"/><rect x="84.64" y="287.79" width="16.93" height="16.93" fill="#0d81b8"/><rect x="84.64" y="287.79" width="16.93" height="16.93" fill="#1d5e83"/><rect x="101.57" y="270.86" width="33.86" height="33.86" fill="#0c5177"/><path d="M 101.57 304.72 A 33.86 33.86 0 0 1  135.43 270.86 L 135.43 304.72" fill="#4d99bf"/><rect x="135.42857142857142" y="270.85714285714283" width="33.857142857142854" height="33.857142857142854" fill="#0c4a6e"/><rect x="135.43" y="270.86" width="16.93" height="16.93" fill="#0d7db3"/><path d="M 135.43 270.86 A 16.93 16.93 0 0 0 152.36 287.79 L 152.36 270.86" fill="#0c4a6e"/><rect x="152.36" y="270.86" width="16.93" height="16.93" fill="#0c4a6e"/><path d="M 152.36 287.79 A 16.93 16.93 0 0 0 169.29000000000002 270.86 L 152.36 270.86" fill="#0c4a6e"/><rect x="135.43" y="287.79" width="16.93" height="16.93" fill="#0c4a6e"/><path d="M 135.43 304.72 A 16.93 16.93 0 0 1  152.36 287.79 L 152.36 304.72" fill="#0d618d"/><rect x="152.36" y="287.79" width="16.93" height="16.93" fill="#0c4a6e"/><path d="M 152.36 287.79 A 16.93 16.93 0 0 1 169.29000000000002 304.72 L 152.36 304.72" fill="#18597e"/><rect x="169.28571428571428" y="270.85714285714283" width="33.857142857142854" height="33.857142857142854" fill="#0c4a6e"/><rect x="169.29" y="270.86" width="16.93" height="16.93" fill="#0d6a99"/><path d="M 169.29 270.86 A 16.93 16.93 0 0 0 186.22 287.79 L 186.22 270.86" fill="#0c4a6e"/><rect x="186.21" y="270.86" width="16.93" height="16.93" fill="#0c4a6e"/><path d="M 186.21 287.79 A 16.93 16.93 0 0 0 203.14000000000001 270.86 L 186.21 270.86" fill="#0c4f75"/><rect x="169.29" y="287.79" width="16.93" height="16.93" fill="#0ea2e5"/><path d="M 169.29 304.72 A 16.93 16.93 0 0 1  186.22 287.79 L 186.22 304.72" fill="#0c4e74"/><rect x="186.21" y="287.79" width="16.93" height="16.93" fill="#0c4a6e"/><path d="M 186.21 287.79 A 16.93 16.93 0 0 1 203.14000000000001 304.72 L 186.21 304.72" fill="#0c4a6e"/><rect x="203.14" y="270.86" width="33.86" height="33.86" fill="#0d79ae"/><rect x="203.14" y="270.86" width="33.86" height="33.86" fill="#0c4a6e"/><rect x="237" y="270.86" width="33.86" height="33.86" fill="#0c4a6e"/><path d="M 237 270.86 A 33.86 33.86 0 0 1 270.86 304.72 L 237 304.72" fill="#1d5f83"/><rect x="0" y="304.71" width="33.86" height="33.86" fill="#0c4a6e"/><path d="M 0 338.57 A 33.86 33.86 0 0 1  33.86 304.71 L 33.86 338.57" fill="#5aa9d0"/><rect x="33.857142857142854" y="304.71428571428567" width="33.857142857142854" height="33.857142857142854" fill="#0c4a6e"/><rect x="33.86" y="304.71" width="16.93" height="16.93" fill="#0c4f75"/><path d="M 33.86 304.71 A 16.93 16.93 0 0 1 50.79 321.64 L 33.86 321.64" fill="#0c4c70"/><rect x="50.79" y="304.71" width="16.93" height="16.93" fill="#63b4db"/><path d="M 50.79 321.64 A 16.93 16.93 0 0 1  67.72 304.71 L 67.72 321.64" fill="#0c4a6e"/><rect x="33.86" y="321.64" width="16.93" height="16.93" fill="#57a5cd"/><path d="M 33.86 338.57 A 16.93 16.93 0 0 0 50.79 321.64 L 33.86 321.64" fill="#0d77aa"/><rect x="50.79" y="321.64" width="16.93" height="16.93" fill="#0ea2e5"/><path d="M 50.79 321.64 A 16.93 16.93 0 0 0 67.72 338.57 L 67.72 321.64" fill="#4792b9"/><rect x="67.71428571428571" y="304.71428571428567" width="33.857142857142854" height="33.857142857142854" fill="#0c4a6e"/><rect x="67.71" y="304.71" width="16.93" height="16.93" fill="#0c4a6e"/><path d="M 67.71 321.64 A 16.93 16.93 0 0 1  84.63999999999999 304.71 L 84.63999999999999 321.64" fill="#3980a6"/><rect x="84.64" y="304.71" width="16.93" height="16.93" fill="#0c5881"/><path d="M 84.64 304.71 A 16.93 16.93 0 0 1 101.57 321.64 L 84.64 321.64" fill="#0e99d9"/><rect x="67.71" y="321.64" width="16.93" height="16.93" fill="#0c4a6e"/><path d="M 67.71 321.64 A 16.93 16.93 0 0 0 84.63999999999999 338.57 L 84.63999999999999 321.64" fill="#0c4a6e"/><rect x="84.64" y="321.64" width="16.93" height="16.93" fill="#0c4a6e"/><path d="M 84.64 338.57 A 16.93 16.93 0 0 0 101.57 321.64 L 84.64 321.64" fill="#0e94d3"/><rect x="101.57142857142856" y="304.71428571428567" width="33.857142857142854" height="33.857142857142854" fill="#0c4a6e"/><rect x="101.57" y="304.71" width="16.93" height="16.93" fill="#0d8dc8"/><path d="M 101.57 321.64 A 16.93 16.93 0 0 0 118.5 304.71 L 101.57 304.71" fill="#0c4e73"/><rect x="118.5" y="304.71" width="16.93" height="16.93" fill="#0d74a7"/><path d="M 118.5 304.71 A 16.93 16.93 0 0 0 135.43 321.64 L 135.43 304.71" fill="#1d5f83"/><rect x="101.57" y="321.64" width="16.93" height="16.93" fill="#428cb2"/><path d="M 101.57 321.64 A 16.93 16.93 0 0 1 118.5 338.57 L 101.57 338.57" fill="#0c5b84"/><rect x="118.5" y="321.64" width="16.93" height="16.93" fill="#0d74a7"/><path d="M 118.5 338.57 A 16.93 16.93 0 0 1  135.43 321.64 L 135.43 338.57" fill="#0c4a6e"/><rect x="135.43" y="304.71" width="33.86" height="33.86" fill="#0c4a6e"/><polygon points="169.29000000000002,304.71 169.29000000000002,338.57 135.43,338.57" fill="#0c5279"/><rect x="169.28571428571428" y="304.71428571428567" width="33.857142857142854" height="33.857142857142854" fill="#0c4a6e"/><rect x="169.29" y="304.71" width="16.93" height="16.93" fill="#0c4a6e"/><path d="M 169.29 304.71 A 16.93 16.93 0 0 1 186.22 321.64 L 169.29 321.64" fill="#3a82a8"/><rect x="186.21" y="304.71" width="16.93" height="16.93" fill="#0c4a6e"/><path d="M 186.21 321.64 A 16.93 16.93 0 0 1  203.14000000000001 304.71 L 203.14000000000001 321.64" fill="#67b8e0"/><rect x="169.29" y="321.64" width="16.93" height="16.93" fill="#286c91"/><path d="M 169.29 338.57 A 16.93 16.93 0 0 0 186.22 321.64 L 169.29 321.64" fill="#3b83a9"/><rect x="186.21" y="321.64" width="16.93" height="16.93" fill="#18597d"/><path d="M 186.21 321.64 A 16.93 16.93 0 0 0 203.14000000000001 338.57 L 203.14000000000001 321.64" fill="#115175"/><rect x="203.1428571428571" y="304.71428571428567" width="33.857142857142854" height="33.857142857142854" fill="#0c4a6e"/><rect x="203.14" y="304.71" width="16.93" height="16.93" fill="#4a95bc"/><path d="M 203.14 321.64 A 16.93 16.93 0 0 1  220.07 304.71 L 220.07 321.64" fill="#0c4a6e"/><rect x="220.07" y="304.71" width="16.93" height="16.93" fill="#4d99c0"/><path d="M 220.07 304.71 A 16.93 16.93 0 0 1 237 321.64 L 220.07 321.64" fill="#0c4a6e"/><rect x="203.14" y="321.64" width="16.93" height="16.93" fill="#0d6694"/><path d="M 203.14 321.64 A 16.93 16.93 0 0 0 220.07 338.57 L 220.07 321.64" fill="#0d6c9c"/><rect x="220.07" y="321.64" width="16.93" height="16.93" fill="#0c4a6e"/><path d="M 220.07 338.57 A 16.93 16.93 0 0 0 237 321.64 L 220.07 321.64" fill="#0c4a6e"/><rect x="236.99999999999997" y="304.71428571428567" width="33.857142857142854" height="33.857142857142854" fill="#0c4a6e"/><rect x="237" y="304.71" width="16.93" height="16.93" fill="#75c9f1"/><path d="M 237 321.64 A 16.93 16.93 0 0 1 253.93 304.71 L 253.93 308.9425 A 12.6975 12.6975 0 0 0 241.2325 321.64" fill="#357ba1"/><rect x="253.93" y="304.71" width="16.93" height="16.93" fill="#5eadd5"/><path d="M 253.93 304.71 A 16.93 16.93 0 0 1 270.86 321.64 L 266.6275 321.64 A 12.6975 12.6975 0 0 0 253.93 308.9425" fill="#0c4a6e"/><rect x="237" y="321.64" width="16.93" height="16.93" fill="#0d6e9f"/><path d="M 237 321.64 A 16.93 16.93 0 0 0 253.93 338.57 L 253.93 334.3375 A 12.6975 12.6975 0 0 1 241.2325 321.64" fill="#0c4a6e"/><rect x="253.93" y="321.64" width="16.93" height="16.93" fill="#58a6cd"/><path d="M 253.93 338.57 A 16.93 16.93 0 0 0 270.86 321.64 L 266.6275 321.64 A 12.6975 12.6975 0 0 1 253.93 334.3375" fill="#0d73a5"/><rect x="0" y="338.57142857142856" width="33.857142857142854" height="33.857142857142854" fill="#0c4a6e"/><rect x="0" y="338.57" width="16.93" height="16.93" fill="#0e90cd"/><path d="M 0 338.57 A 16.93 16.93 0 0 0 16.93 355.5 L 16.93 338.57" fill="#0d77ab"/><rect x="16.93" y="338.57" width="16.93" height="16.93" fill="#0c4a6e"/><path d="M 16.93 355.5 A 16.93 16.93 0 0 0 33.86 338.57 L 16.93 338.57" fill="#53a0c7"/><rect x="0" y="355.5" width="16.93" height="16.93" fill="#0c4a6e"/><path d="M 0 372.43 A 16.93 16.93 0 0 1  16.93 355.5 L 16.93 372.43" fill="#0c4a6e"/><rect x="16.93" y="355.5" width="16.93" height="16.93" fill="#0ea1e4"/><path d="M 16.93 355.5 A 16.93 16.93 0 0 1 33.86 372.43 L 16.93 372.43" fill="#0c4a6e"/><rect x="33.857142857142854" y="338.57142857142856" width="33.857142857142854" height="33.857142857142854" fill="#0c4a6e"/><rect x="33.86" y="338.57" width="16.93" height="16.93" fill="#0d6d9e"/><polygon points="50.79,338.57 50.79,355.5 33.86,355.5" fill="#67b8e0"/><rect x="50.79" y="338.57" width="16.93" height="16.93" fill="#3e86ad"/><polygon points="50.79,338.57 67.72,355.5 50.79,355.5" fill="#3981a7"/><rect x="33.86" y="355.5" width="16.93" height="16.93" fill="#1f6185"/><polygon points="33.86,355.5 50.79,355.5 50.79,372.43" fill="#17577c"/><rect x="50.79" y="355.5" width="16.93" height="16.93" fill="#0d7db3"/><polygon points="50.79,355.5 67.72,355.5 50.79,372.43" fill="#77cbf4"/><rect x="67.71" y="338.57" width="33.86" height="33.86" fill="#0d82b9"/><polygon points="101.57,338.57 101.57,372.43 67.71,372.43" fill="#1f6186"/><rect x="101.57" y="338.57" width="33.86" height="33.86" fill="#0d85be"/><polygon points="101.57,338.57 135.43,338.57 101.57,372.43" fill="#0c4a6e"/><rect x="135.43" y="338.57" width="33.86" height="33.86" fill="#68b9e1"/><path d="M 135.43 338.57 A 33.86 33.86 0 0 0 169.29000000000002 372.43 L 169.29000000000002 338.57" fill="#0c4a6e"/><rect x="169.28571428571428" y="338.57142857142856" width="33.857142857142854" height="33.857142857142854" fill="#0c4a6e"/><rect x="169.29" y="338.57" width="16.93" height="16.93" fill="#0c4a6e"/><path d="M 169.29 338.57 A 16.93 16.93 0 0 0 186.22 355.5 L 186.22 338.57" fill="#0c4a6e"/><rect x="186.21" y="338.57" width="16.93" height="16.93" fill="#3880a6"/><path d="M 186.21 355.5 A 16.93 16.93 0 0 0 203.14000000000001 338.57 L 186.21 338.57" fill="#0c4a6e"/><rect x="169.29" y="355.5" width="16.93" height="16.93" fill="#115074"/><path d="M 169.29 372.43 A 16.93 16.93 0 0 1  186.22 355.5 L 186.22 372.43" fill="#74c8f0"/><rect x="186.21" y="355.5" width="16.93" height="16.93" fill="#0d6d9d"/><path d="M 186.21 355.5 A 16.93 16.93 0 0 1 203.14000000000001 372.43 L 186.21 372.43" fill="#0c4a6e"/><rect x="203.14" y="338.57" width="33.86" height="33.86" fill="#66b7df"/><polygon points="203.14,338.57 237,372.43 203.14,372.43" fill="#0e91ce"/><rect x="237" y="338.57" width="33.86" height="33.86" fill="#0c5f8a"/><polygon points="270.86,338.57 270.86,372.43 237,372.43" fill="#19597e"/><rect x="0" y="372.43" width="33.86" height="33.86" fill="#0c4a6e"/><rect x="0" y="372.43" width="33.86" height="33.86" fill="#0c4a6e"/><rect x="33.857142857142854" y="372.4285714285714" width="33.857142857142854" height="33.857142857142854" fill="#0c4a6e"/><rect x="33.86" y="372.43" width="16.93" height="16.93" fill="#0c4d72"/><path d="M 33.86 372.43 A 16.93 16.93 0 0 0 50.79 389.36 L 50.79 372.43" fill="#0c4a6e"/><rect x="50.79" y="372.43" width="16.93" height="16.93" fill="#0e98d7"/><path d="M 50.79 389.36 A 16.93 16.93 0 0 0 67.72 372.43 L 50.79 372.43" fill="#17577c"/><rect x="33.86" y="389.36" width="16.93" height="16.93" fill="#0c4a6e"/><path d="M 33.86 406.29 A 16.93 16.93 0 0 1  50.79 389.36 L 50.79 406.29" fill="#0c4a6e"/><rect x="50.79" y="389.36" width="16.93" height="16.93" fill="#0c4a6e"/><path d="M 50.79 389.36 A 16.93 16.93 0 0 1 67.72 406.29 L 50.79 406.29" fill="#0d71a2"/><rect x="67.71428571428571" y="372.4285714285714" width="33.857142857142854" height="33.857142857142854" fill="#0c4a6e"/><rect x="67.71" y="372.43" width="16.93" height="16.93" fill="#2b7095"/><polygon points="84.63999999999999,372.43 84.63999999999999,389.36 67.71,389.36" fill="#0d6fa0"/><rect x="84.64" y="372.43" width="16.93" height="16.93" fill="#0c4a6e"/><polygon points="84.64,372.43 101.57,372.43 84.64,389.36" fill="#0c4a6e"/><rect x="67.71" y="389.36" width="16.93" height="16.93" fill="#0c4a6e"/><polygon points="67.71,389.36 84.63999999999999,389.36 84.63999999999999,406.29" fill="#0c4a6e"/><rect x="84.64" y="389.36" width="16.93" height="16.93" fill="#438cb3"/><polygon points="84.64,389.36 101.57,406.29 84.64,406.29" fill="#0c4a6e"/><rect x="101.57142857142856" y="372.4285714285714" width="33.857142857142854" height="33.857142857142854" fill="#0c4a6e"/><rect x="101.57" y="372.43" width="16.93" height="16.93" fill="#0c4a6e"/><polygon points="118.5,372.43 118.5,389.36 101.57,389.36" fill="#4f9bc2"/><rect x="118.5" y="372.43" width="16.93" height="16.93" fill="#0c5f8a"/><polygon points="118.5,372.43 135.43,389.36 118.5,389.36" fill="#6fc2ea"/><rect x="101.57" y="389.36" width="16.93" height="16.93" fill="#0ea2e5"/><polygon points="101.57,389.36 118.5,389.36 118.5,406.29" fill="#0d89c3"/><rect x="118.5" y="389.36" width="16.93" height="16.93" fill="#0e9fe1"/><polygon points="118.5,389.36 135.43,389.36 118.5,406.29" fill="#0c4a6e"/><rect x="135.42857142857142" y="372.4285714285714" width="33.857142857142854" height="33.857142857142854" fill="#0c4a6e"/><rect x="135.43" y="372.43" width="16.93" height="16.93" fill="#5cabd3"/><path d="M 135.43 389.36 A 16.93 16.93 0 0 1 152.36 372.43 L 152.36 376.6625 A 12.6975 12.6975 0 0 0 139.6625 389.36" fill="#4a95bc"/><rect x="152.36" y="372.43" width="16.93" height="16.93" fill="#0d86c0"/><path d="M 152.36 372.43 A 16.93 16.93 0 0 1 169.29000000000002 389.36 L 165.0575 389.36 A 12.6975 12.6975 0 0 0 152.36 376.6625" fill="#0c4a6e"/><rect x="135.43" y="389.36" width="16.93" height="16.93" fill="#0d78ac"/><path d="M 135.43 389.36 A 16.93 16.93 0 0 0 152.36 406.29 L 152.36 402.0575 A 12.6975 12.6975 0 0 1 139.6625 389.36" fill="#0c4a6e"/><rect x="152.36" y="389.36" width="16.93" height="16.93" fill="#0c4a6e"/><path d="M 152.36 406.29 A 16.93 16.93 0 0 0 169.29000000000002 389.36 L 165.0575 389.36 A 12.6975 12.6975 0 0 1 152.36 402.0575" fill="#6cbee7"/><rect x="169.29" y="372.43" width="33.86" height="33.86" fill="#0d71a3"/><polygon points="169.29,372.43 203.14999999999998,372.43 169.29,406.29" fill="#0c4a6e"/><rect x="203.14" y="372.43" width="33.86" height="33.86" fill="#0c577f"/><polygon points="203.14,372.43 237,372.43 237,406.29" fill="#0c5177"/><rect x="236.99999999999997" y="372.4285714285714" width="33.857142857142854" height="33.857142857142854" fill="#0c4a6e"/><rect x="237" y="372.43" width="16.93" height="16.93" fill="#32799e"/><polygon points="253.93,372.43 253.93,389.36 237,389.36" fill="#0c4a6e"/><rect x="253.93" y="372.43" width="16.93" height="16.93" fill="#296d93"/><polygon points="253.93,372.43 270.86,389.36 253.93,389.36" fill="#3981a7"/><rect x="237" y="389.36" width="16.93" height="16.93" fill="#0c4a6e"/><polygon points="237,389.36 253.93,389.36 253.93,406.29" fill="#0d6998"/><rect x="253.93" y="389.36" width="16.93" height="16.93" fill="#0c4a6e"/><polygon points="253.93,389.36 270.86,389.36 253.93,406.29" fill="#0c4a6e"/><rect x="0" y="406.2857142857142" width="33.857142857142854" height="33.857142857142854" fill="#0c4a6e"/><rect x="0" y="406.29" width="16.93" height="16.93" fill="#0c4a6e"/><path d="M 0 423.22 A 16.93 16.93 0 0 1  16.93 406.29 L 16.93 423.22" fill="#0e95d3"/><rect x="16.93" y="406.29" width="16.93" height="16.93" fill="#0c4a6e"/><path d="M 16.93 406.29 A 16.93 16.93 0 0 1 33.86 423.22 L 16.93 423.22" fill="#6abce5"/><rect x="0" y="423.21" width="16.93" height="16.93" fill="#0d89c3"/><path d="M 0 423.21 A 16.93 16.93 0 0 0 16.93 440.14 L 16.93 423.21" fill="#0c4a6e"/><rect x="16.93" y="423.21" width="16.93" height="16.93" fill="#0c4c71"/><path d="M 16.93 440.14 A 16.93 16.93 0 0 0 33.86 423.21 L 16.93 423.21" fill="#24688d"/><rect x="33.86" y="406.29" width="33.86" height="33.86" fill="#67b8e0"/><rect x="33.86" y="406.29" width="33.86" height="33.86" fill="#4b96bd"/><rect x="67.71" y="406.29" width="33.86" height="33.86" fill="#78cdf6"/><rect x="67.71" y="406.29" width="33.86" height="33.86" fill="#0d7bb1"/><rect x="101.57142857142856" y="406.2857142857142" width="33.857142857142854" height="33.857142857142854" fill="#0c4a6e"/><rect x="101.57" y="406.29" width="16.93" height="16.93" fill="#0c4a6e"/><path d="M 101.57 406.29 A 16.93 16.93 0 0 1 118.5 423.22 L 101.57 423.22" fill="#448eb5"/><rect x="118.5" y="406.29" width="16.93" height="16.93" fill="#0c4a6e"/><path d="M 118.5 423.22 A 16.93 16.93 0 0 1  135.43 406.29 L 135.43 423.22" fill="#0c4a6e"/><rect x="101.57" y="423.21" width="16.93" height="16.93" fill="#1c5d82"/><path d="M 101.57 440.14 A 16.93 16.93 0 0 0 118.5 423.21 L 101.57 423.21" fill="#0d6998"/><rect x="118.5" y="423.21" width="16.93" height="16.93" fill="#7acff8"/><path d="M 118.5 423.21 A 16.93 16.93 0 0 0 135.43 440.14 L 135.43 423.21" fill="#0c4a6e"/><rect x="135.42857142857142" y="406.2857142857142" width="33.857142857142854" height="33.857142857142854" fill="#0c4a6e"/><rect x="135.43" y="406.29" width="16.93" height="16.93" fill="#4691b7"/><path d="M 135.43 406.29 A 16.93 16.93 0 0 1 152.36 423.22 L 135.43 423.22" fill="#0d81b8"/><rect x="152.36" y="406.29" width="16.93" height="16.93" fill="#76caf3"/><path d="M 152.36 423.22 A 16.93 16.93 0 0 1  169.29000000000002 406.29 L 169.29000000000002 423.22" fill="#2f7499"/><rect x="135.43" y="423.21" width="16.93" height="16.93" fill="#0c4a6e"/><path d="M 135.43 440.14 A 16.93 16.93 0 0 0 152.36 423.21 L 135.43 423.21" fill="#0d6896"/><rect x="152.36" y="423.21" width="16.93" height="16.93" fill="#0d83bb"/><path d="M 152.36 423.21 A 16.93 16.93 0 0 0 169.29000000000002 440.14 L 169.29000000000002 423.21" fill="#0c4a6e"/><rect x="169.28571428571428" y="406.2857142857142" width="33.857142857142854" height="33.857142857142854" fill="#0c4a6e"/><rect x="169.29" y="406.29" width="16.93" height="16.93" fill="#0c4a6e"/><path d="M 169.29 423.22 A 16.93 16.93 0 0 0 186.22 406.29 L 169.29 406.29" fill="#4c98bf"/><rect x="186.21" y="406.29" width="16.93" height="16.93" fill="#2a6e94"/><path d="M 186.21 406.29 A 16.93 16.93 0 0 0 203.14000000000001 423.22 L 203.14000000000001 406.29" fill="#0e94d2"/><rect x="169.29" y="423.21" width="16.93" height="16.93" fill="#0c5780"/><path d="M 169.29 423.21 A 16.93 16.93 0 0 1 186.22 440.14 L 169.29 440.14" fill="#0d6795"/><rect x="186.21" y="423.21" width="16.93" height="16.93" fill="#0d8cc7"/><path d="M 186.21 440.14 A 16.93 16.93 0 0 1  203.14000000000001 423.21 L 203.14000000000001 440.14" fill="#1d5f83"/><rect x="203.14" y="406.29" width="33.86" height="33.86" fill="#62b2da"/><rect x="203.14" y="406.29" width="33.86" height="33.86" fill="#7acff8"/><rect x="236.99999999999997" y="406.2857142857142" width="33.857142857142854" height="33.857142857142854" fill="#0c4a6e"/><rect x="237" y="406.29" width="16.93" height="16.93" fill="#25698e"/><polygon points="253.93,406.29 253.93,423.22 237,423.22" fill="#0d6d9d"/><rect x="253.93" y="406.29" width="16.93" height="16.93" fill="#0ea4e7"/><polygon points="253.93,406.29 270.86,406.29 253.93,423.22" fill="#357ca1"/><rect x="237" y="423.21" width="16.93" height="16.93" fill="#0d6390"/><polygon points="237,423.21 253.93,423.21 253.93,440.14" fill="#0c5279"/><rect x="253.93" y="423.21" width="16.93" height="16.93" fill="#0c4a6e"/><polygon points="253.93,423.21 270.86,440.14 253.93,440.14" fill="#0e9fe0"/><rect x="0" y="440.1428571428571" width="33.857142857142854" height="33.857142857142854" fill="#0c4a6e"/><rect x="0" y="440.14" width="16.93" height="16.93" fill="#0d6998"/><path d="M 0 457.07 A 16.93 16.93 0 0 0 16.93 440.14 L 0 440.14" fill="#5cacd3"/><rect x="16.93" y="440.14" width="16.93" height="16.93" fill="#0d8dc9"/><path d="M 16.93 440.14 A 16.93 16.93 0 0 0 33.86 457.07 L 33.86 440.14" fill="#0d84bc"/><rect x="0" y="457.07" width="16.93" height="16.93" fill="#0c4a6e"/><path d="M 0 457.07 A 16.93 16.93 0 0 1 16.93 474 L 0 474" fill="#0c4a6e"/><rect x="16.93" y="457.07" width="16.93" height="16.93" fill="#428cb2"/><path d="M 16.93 474 A 16.93 16.93 0 0 1  33.86 457.07 L 33.86 474" fill="#0c5983"/><rect x="33.857142857142854" y="440.1428571428571" width="33.857142857142854" height="33.857142857142854" fill="#0c4a6e"/><rect x="33.86" y="440.14" width="16.93" height="16.93" fill="#0c4a6e"/><path d="M 33.86 457.07 A 16.93 16.93 0 0 0 50.79 440.14 L 33.86 440.14" fill="#59a7ce"/><rect x="50.79" y="440.14" width="16.93" height="16.93" fill="#0c4a6e"/><path d="M 50.79 440.14 A 16.93 16.93 0 0 0 67.72 457.07 L 67.72 440.14" fill="#7bd1fa"/><rect x="33.86" y="457.07" width="16.93" height="16.93" fill="#0c5a84"/><path d="M 33.86 457.07 A 16.93 16.93 0 0 1 50.79 474 L 33.86 474" fill="#18597d"/><rect x="50.79" y="457.07" width="16.93" height="16.93" fill="#0e92cf"/><path d="M 50.79 474 A 16.93 16.93 0 0 1  67.72 457.07 L 67.72 474" fill="#0e94d3"/><rect x="67.71" y="440.14" width="33.86" height="33.86" fill="#0c4a6e"/><rect x="67.71" y="440.14" width="33.86" height="33.86" fill="#0c4a6e"/><rect x="101.57" y="440.14" width="33.86" height="33.86" fill="#0c4a6e"/><polygon points="101.57,440.14 135.43,440.14 135.43,474" fill="#2d7297"/><rect x="135.43" y="440.14" width="33.86" height="33.86" fill="#0c557c"/><rect x="135.43" y="440.14" width="33.86" height="33.86" fill="#74c8f1"/><rect x="169.28571428571428" y="440.1428571428571" width="33.857142857142854" height="33.857142857142854" fill="#0c4a6e"/><rect x="169.29" y="440.14" width="16.93" height="16.93" fill="#0d6b9b"/><path d="M 169.29 440.14 A 16.93 16.93 0 0 0 186.22 457.07 L 186.22 440.14" fill="#74c8f0"/><rect x="186.21" y="440.14" width="16.93" height="16.93" fill="#0c4a6e"/><path d="M 186.21 457.07 A 16.93 16.93 0 0 0 203.14000000000001 440.14 L 186.21 440.14" fill="#0e4c71"/><rect x="169.29" y="457.07" width="16.93" height="16.93" fill="#0c4a6e"/><path d="M 169.29 474 A 16.93 16.93 0 0 1  186.22 457.07 L 186.22 474" fill="#15557a"/><rect x="186.21" y="457.07" width="16.93" height="16.93" fill="#0c4d72"/><path d="M 186.21 457.07 A 16.93 16.93 0 0 1 203.14000000000001 474 L 186.21 474" fill="#0c4a6e"/><rect x="203.1428571428571" y="440.1428571428571" width="33.857142857142854" height="33.857142857142854" fill="#0c4a6e"/><rect x="203.14" y="440.14" width="16.93" height="16.93" fill="#0c4a6e"/><path d="M 203.14 457.07 A 16.93 16.93 0 0 1  220.07 440.14 L 220.07 457.07" fill="#0c4c71"/><rect x="220.07" y="440.14" width="16.93" height="16.93" fill="#1f6186"/><path d="M 220.07 440.14 A 16.93 16.93 0 0 1 237 457.07 L 220.07 457.07" fill="#0c4a6e"/><rect x="203.14" y="457.07" width="16.93" height="16.93" fill="#0c4a6e"/><path d="M 203.14 457.07 A 16.93 16.93 0 0 0 220.07 474 L 220.07 457.07" fill="#0c4a6e"/><rect x="220.07" y="457.07" width="16.93" height="16.93" fill="#0e98d8"/><path d="M 220.07 474 A 16.93 16.93 0 0 0 237 457.07 L 220.07 457.07" fill="#0c4a6e"/><rect x="236.99999999999997" y="440.1428571428571" width="33.857142857142854" height="33.857142857142854" fill="#0c4a6e"/><rect x="237" y="440.14" width="16.93" height="16.93" fill="#0c4a6e"/><path d="M 237 457.07 A 16.93 16.93 0 0 1  253.93 440.14 L 253.93 457.07" fill="#56a4cb"/><rect x="253.93" y="440.14" width="16.93" height="16.93" fill="#0d6998"/><path d="M 253.93 440.14 A 16.93 16.93 0 0 1 270.86 457.07 L 253.93 457.07" fill="#7cd2fa"/><rect x="237" y="457.07" width="16.93" height="16.93" fill="#0c5780"/><path d="M 237 457.07 A 16.93 16.93 0 0 0 253.93 474 L 253.93 457.07" fill="#0c4a6e"/><rect x="253.93" y="457.07" width="16.93" height="16.93" fill="#0d78ac"/><path d="M 253.93 474 A 16.93 16.93 0 0 0 270.86 457.07 L 253.93 457.07" fill="#6bbde6"/><rect x="0" y="474" width="33.86" height="33.86" fill="#53a0c7"/><polygon points="0,474 33.86,474 33.86,507.86" fill="#56a4cb"/><rect x="33.86" y="474" width="33.86" height="33.86" fill="#0c5780"/><rect x="33.86" y="474" width="33.86" height="33.86" fill="#0d6d9d"/><rect x="67.71" y="474" width="33.86" height="33.86" fill="#0d72a3"/><rect x="67.71" y="474" width="33.86" height="33.86" fill="#0c4a6e"/><rect x="101.57142857142856" y="473.99999999999994" width="33.857142857142854" height="33.857142857142854" fill="#0c4a6e"/><rect x="101.57" y="474" width="16.93" height="16.93" fill="#0c4a6e"/><polygon points="118.5,474 118.5,490.93 101.57,490.93" fill="#0d618e"/><rect x="118.5" y="474" width="16.93" height="16.93" fill="#0c4a6e"/><polygon points="118.5,474 135.43,490.93 118.5,490.93" fill="#0c4a6e"/><rect x="101.57" y="490.93" width="16.93" height="16.93" fill="#0c4a6e"/><polygon points="101.57,490.93 118.5,490.93 118.5,507.86" fill="#0c4a6e"/><rect x="118.5" y="490.93" width="16.93" height="16.93" fill="#0d7bb0"/><polygon points="118.5,490.93 135.43,490.93 118.5,507.86" fill="#0e9dde"/><rect x="135.43" y="474" width="33.86" height="33.86" fill="#0e93d1"/><rect x="135.43" y="474" width="33.86" height="33.86" fill="#0c4a6e"/><rect x="169.29" y="474" width="33.86" height="33.86" fill="#0c4a6e"/><polygon points="203.14999999999998,474 203.14999999999998,507.86 169.29,507.86" fill="#408ab0"/><rect x="203.1428571428571" y="473.99999999999994" width="33.857142857142854" height="33.857142857142854" fill="#0c4a6e"/><rect x="203.14" y="474" width="16.93" height="16.93" fill="#0c5780"/><path d="M 203.14 490.93 A 16.93 16.93 0 0 0 220.07 474 L 203.14 474" fill="#0d6390"/><rect x="220.07" y="474" width="16.93" height="16.93" fill="#79cef7"/><path d="M 220.07 474 A 16.93 16.93 0 0 0 237 490.93 L 237 474" fill="#0d88c2"/><rect x="203.14" y="490.93" width="16.93" height="16.93" fill="#0c4a6e"/><path d="M 203.14 490.93 A 16.93 16.93 0 0 1 220.07 507.86 L 203.14 507.86" fill="#0d6795"/><rect x="220.07" y="490.93" width="16.93" height="16.93" fill="#0c5f8a"/><path d="M 220.07 507.86 A 16.93 16.93 0 0 1  237 490.93 L 237 507.86" fill="#0f4e72"/><rect x="236.99999999999997" y="473.99999999999994" width="33.857142857142854" height="33.857142857142854" fill="#0c4a6e"/><rect x="237" y="474" width="16.93" height="16.93" fill="#4691b7"/><path d="M 237 474 A 16.93 16.93 0 0 1 253.93 490.93 L 237 490.93" fill="#6ec1e9"/><rect x="253.93" y="474" width="16.93" height="16.93" fill="#0c4a6e"/><path d="M 253.93 490.93 A 16.93 16.93 0 0 1  270.86 474 L 270.86 490.93" fill="#206287"/><rect x="237" y="490.93" width="16.93" height="16.93" fill="#0c4a6e"/><path d="M 237 507.86 A 16.93 16.93 0 0 0 253.93 490.93 L 237 490.93" fill="#57a4cc"/><rect x="253.93" y="490.93" width="16.93" height="16.93" fill="#0c4a6e"/><path d="M 253.93 490.93 A 16.93 16.93 0 0 0 270.86 507.86 L 270.86 490.93" fill="#0c4a6e"/></g></svg>